<svg height="40" xmlns="http://www.w3.org/2000/svg" viewBox="0 0 140.89 37.77"><defs><style>.cls-1{fill:#7b2420;}.cls-2{fill:#20475c;}</style></defs><g id="Layer_2" data-name="Layer 2"><g id="Layer_1-2" data-name="Layer 1"><path class="cls-1" d="M11,29.63A69.43,69.43,0,0,1,21.1,24a45.64,45.64,0,0,1,10.13-3.49A31.46,31.46,0,0,1,38.08,20c.38,0,.7,0,.89.51A45.41,45.41,0,0,1,41.55,28c.23,1.08.1,1.48-.85,2.06a7.73,7.73,0,0,1-3.46,1A15.84,15.84,0,0,1,31,30.32c-2-.61-3.91-1.2-5.87-1.8a19.93,19.93,0,0,0-12,.41C12.44,29.15,11.71,29.4,11,29.63Z"/><path class="cls-2" d="M0,31.34a54,54,0,0,1,4.63-5.51c1.67-1.71,3.31-3.44,5.12-5a48,48,0,0,1,18-10.23,37.18,37.18,0,0,1,4.43-1c.29-.05.55-.1.78.22a50.6,50.6,0,0,1,4.63,7.56,26.82,26.82,0,0,0-6.38-.17A38.28,38.28,0,0,0,24,18.65a72.45,72.45,0,0,0-19.28,9.4C3.15,29.1,1.58,30.24,0,31.34Z"/><path class="cls-1" d="M30.6,7c-1.05.2-2.06.35-3,.58a38.13,38.13,0,0,0-12.29,5.76,68,68,0,0,0-8.59,6.81l-.75.64A14.6,14.6,0,0,1,7.32,18,69.59,69.59,0,0,1,15.8,6,31.13,31.13,0,0,1,22.43.23a1,1,0,0,1,1.33.08A55.92,55.92,0,0,1,30.6,7Z"/><path class="cls-1" d="M97.26,8.82a4.77,4.77,0,0,1,4.45-1.23,2,2,0,0,1,1.17.53c.65.83,1.13.68,1.93.09A4.43,4.43,0,0,1,109,7.72,3.32,3.32,0,0,1,111.31,11c.1,1.89.06,3.79.07,5.69,0,.18.05.42-.23.42a16.67,16.67,0,0,1-1.87,0c-.35,0-.2-.38-.2-.59,0-1.63,0-3.26,0-4.89a2.13,2.13,0,0,0-3.3-1.9,2.23,2.23,0,0,0-1.27,2.08c0,1.54-.06,3.09,0,4.64,0,.58-.17.71-.73.7-1.54,0-1.54,0-1.54-1.54,0-1.23,0-2.46,0-3.69,0-1.52-.72-2.37-2-2.47a2.33,2.33,0,0,0-2.63,2.15,33.81,33.81,0,0,0-.07,4.72c0,.65-.12.87-.83.84-1.44-.06-1.44,0-1.44-1.42,0-2.46,0-4.92,0-7.38,0-.62.14-.9.8-.79a1.13,1.13,0,0,0,.41,0C97.22,7.43,97.66,7.67,97.26,8.82Z"/><path class="cls-1" d="M116.51,8.55c2.5-1.58,5.24-1.37,6.82.52a5.18,5.18,0,0,1-.13,6.68c-1.77,1.86-4.43,2-6.83.27a5.4,5.4,0,0,0,0,.57c.07.44-.13.51-.54.52-1.6,0-1.6,0-1.6-1.5,0-3.66,0-7.32,0-11,0-.61.11-.83.78-.81,1.51,0,1.51,0,1.51,1.53Zm0,3.69a2.77,2.77,0,0,0,2.69,3.06,2.81,2.81,0,0,0,3-2.94,2.79,2.79,0,0,0-2.72-3A2.72,2.72,0,0,0,116.48,12.24Z"/><path class="cls-1" d="M64.13,17.07c-2.39.11-2.42.12-3.27-2a1.22,1.22,0,0,0-1.4-.92c-1.57.06-3.15,0-4.72,0a.75.75,0,0,0-.85.53c-.25.67-.57,1.32-.83,2-.1.24-.15.46-.46.47a10.36,10.36,0,0,1-2.34-.09c1.85-3.44,3.35-6.94,4.94-10.4a6.21,6.21,0,0,0,.39-.88c.26-1,.85-1.34,1.92-1.27a1.33,1.33,0,0,1,1.36.9c1.63,3.65,3.3,7.27,5,10.91ZM57.29,7c-.78,1.78-1.48,3.43-2.21,5.07-.16.38,0,.39.31.39H59.2c.36,0,.43-.12.3-.42C58.79,10.35,58.06,8.72,57.29,7Z"/><path class="cls-1" d="M137,13.07c-1.09,0-2.17,0-3.26,0-.51,0-.51.15-.34.54.74,1.74,3.39,2.35,5.08,1.08.91-.69.91.28,1.29.54s.31.6-.06.92a6,6,0,0,1-7.49-.49,5,5,0,0,1,.42-7A5.38,5.38,0,0,1,138.33,8a4.83,4.83,0,0,1,2.55,4.57c0,.42-.18.53-.59.52C139.2,13.05,138.12,13.07,137,13.07Zm-1.12-1.49c.73,0,1.47,0,2.2,0,.57,0,.64-.19.46-.65a2.81,2.81,0,0,0-5.2.12c-.14.38-.1.54.35.53C134.46,11.57,135.19,11.58,135.92,11.58Z"/><path class="cls-1" d="M89.26,13.07c-1.06,0-2.11,0-3.17,0-.63,0-.6.21-.39.65a3.51,3.51,0,0,0,5,1c.19-.13.36-.54.65-.25a4.43,4.43,0,0,1,1,1.22c0,.06-.14.2-.23.29-1.62,1.62-5.36,1.67-7.2.1a5,5,0,0,1-.71-6.77,5.2,5.2,0,0,1,5.87-1.52,4.77,4.77,0,0,1,3,4.76c0,.45-.19.53-.59.52C91.43,13.05,90.35,13.07,89.26,13.07Zm-1.12-1.49c.75,0,1.51,0,2.27,0,.54,0,.56-.18.39-.61a2.8,2.8,0,0,0-5.22.1c-.12.38-.07.52.37.51C86.68,11.56,87.41,11.58,88.14,11.58Z"/><path class="cls-1" d="M69,7.46A8.65,8.65,0,0,1,71.92,8c.45.16.62.38.32.81a1.7,1.7,0,0,0-.19.35c-.23.6-.48.83-1.21.48a4.27,4.27,0,0,0-3-.25c-.49.14-1,.35-1,.93s.43.78.89.88c.73.18,1.47.32,2.21.45,1.85.32,2.79,1.15,2.86,2.54s-.95,2.48-2.66,2.86a8.44,8.44,0,0,1-5.22-.56c-.48-.2-.65-.41-.33-.87a1.55,1.55,0,0,0,.23-.42c.18-.6.43-.75,1.08-.41a5.6,5.6,0,0,0,3.63.52c.54-.09,1-.33,1-.94s-.47-.74-.93-.84c-.94-.22-1.91-.35-2.85-.58a2.47,2.47,0,0,1-2.17-2.27,2.72,2.72,0,0,1,1.81-2.76A6.27,6.27,0,0,1,69,7.46Z"/><path class="cls-1" d="M78.3,7.46a8.53,8.53,0,0,1,3,.57c.41.16.59.34.28.74a.61.61,0,0,0-.07.14c-.27.75-.58,1.17-1.53.68a3.82,3.82,0,0,0-2.77-.2c-.51.14-1,.31-1,.95s.51.79,1,.91c.71.18,1.43.27,2.15.4,1.82.32,2.75,1.13,2.82,2.47s-.9,2.54-2.66,2.93a8.44,8.44,0,0,1-5.22-.56c-.49-.21-.61-.44-.31-.88a2.59,2.59,0,0,0,.3-.57c.17-.49.38-.56.88-.3a5.85,5.85,0,0,0,3.54.6c.59-.08,1.2-.23,1.24-.92s-.59-.83-1.11-.94c-.87-.2-1.76-.3-2.62-.52-1.41-.34-2.08-1.08-2.16-2.25a2.66,2.66,0,0,1,1.81-2.82A6.4,6.4,0,0,1,78.3,7.46Z"/><path class="cls-1" d="M126.6,10.47c0-2,0-4,0-6,0-.48.12-.63.63-.63,1.65,0,1.65,0,1.65,1.62,0,3.65,0,7.31,0,11,0,.57-.15.71-.72.7-1.57,0-1.57,0-1.57-1.52Z"/><path class="cls-2" d="M107.9,25.46c0-1.21,0-2.22,0-3.24,0-.42.07-.63.57-.62s.6.14.59.6c0,1.46,0,2.93,0,4.4,0,.27.24.69-.24.81a.94.94,0,0,1-1.05-.4c-.87-1.11-1.79-2.19-2.81-3.44,0,1.18,0,2.2,0,3.21,0,.46-.07.67-.61.67s-.53-.29-.53-.66c0-1.47,0-2.94,0-4.41,0-.25-.2-.64.22-.75a.89.89,0,0,1,1,.37c.83,1.05,1.69,2.07,2.54,3.1Z"/><path class="cls-2" d="M74.05,23.48c0,1.29,0,2.35,0,3.4,0,.36-.07.53-.49.52s-.54-.06-.54-.48c0-1.6,0-3.2,0-4.81,0-.17-.06-.39.22-.43a.89.89,0,0,1,.93.31c.8,1,1.63,2,2.45,3l.49.56c0-1.23,0-2.28,0-3.33,0-.39.07-.55.52-.57s.55.23.55.63c0,1.49,0,3,0,4.48,0,.21.18.54-.16.62a.83.83,0,0,1-.94-.25C76.2,26,75.3,25,74.41,23.89,74.35,23.81,74.28,23.73,74.05,23.48Z"/><path class="cls-2" d="M96.48,27.35a1.26,1.26,0,0,1-1.7-.7,1.41,1.41,0,0,0-1.5-.92c-.6.05-.7.24-.69.76,0,.3.25.72-.19.92a.61.61,0,0,1-.93-.61c0-1.52,0-3,0-4.56,0-.51.15-.66.64-.63.79.05,1.57,0,2.35.08a2,2,0,0,1,1.9,1.47,1.82,1.82,0,0,1-.78,2.16c-.27.19-.35.32-.11.61S96.12,26.83,96.48,27.35Zm-3.87-3.71c0,.59-.28,1.31.87,1.21s1.8-.33,1.82-1.1-.51-1.09-1.89-1.19C92.35,22.48,92.65,23.14,92.61,23.64Z"/><path class="cls-2" d="M116.55,24.56c0-.8,0-1.6,0-2.4,0-.43.14-.56.56-.55,1.08,0,2.17,0,3.25,0,.38,0,.54.09.53.49s-.15.5-.53.49c-.73,0-1.46,0-2.19,0s-.49.36-.47.68-.22.81.46.78,1.3,0,1.95,0c.36,0,.46.14.46.48s-.13.47-.48.46c-.62,0-1.25,0-1.87,0s-.51.43-.52.79-.17.83.54.78,1.52,0,2.28,0c.29,0,.51,0,.51.41s-.13.51-.52.5c-1.13,0-2.27,0-3.41,0-.42,0-.57-.12-.55-.54C116.57,26.11,116.55,25.34,116.55,24.56Z"/><path class="cls-2" d="M90,23.73c0,.48,0,1,0,1.44a2.56,2.56,0,0,1-5.07.22c-.09-1.11,0-2.24,0-3.36,0-.48.31-.41.6-.42s.57,0,.56.47c0,1,0,2,0,3s.5,1.51,1.48,1.49S88.93,26,88.91,25s0-1.87,0-2.81c0-.44.17-.53.58-.53s.6.06.57.52,0,1.06,0,1.6Z"/><path class="cls-2" d="M96.81,27.34Q98,24.64,99.24,22c.16-.35.42-.34.73-.35a.61.61,0,0,1,.68.41c.72,1.6,1.47,3.19,2.18,4.8.08.16.42.47,0,.57s-.91.26-1-.2c-.24-1.34-1.22-1-2.1-1.09s-1.53,0-1.75,1C97.94,27.51,97.8,27.5,96.81,27.34ZM101,25.21l-1.06-2.45-1,2.45Z"/><path class="cls-2" d="M81.77,27.5a4.51,4.51,0,0,1-2.06-.4c-.35-.16-.43-.35-.26-.74s.43-.23.67-.1a3.07,3.07,0,0,0,1.81.31c.42-.05.83-.15.88-.65s-.35-.64-.7-.75-1-.22-1.41-.37c-.73-.24-1.32-.63-1.3-1.51a1.65,1.65,0,0,1,1.43-1.61,4.17,4.17,0,0,1,2.32.12c.3.1.6.18.4.67s-.39.41-.72.24a2.79,2.79,0,0,0-1.43-.2c-.48,0-.89.22-.94.71s.38.61.74.72.83.21,1.25.33c1.2.35,1.53.77,1.43,1.84,0,.62-.84,1.25-1.71,1.36A2.8,2.8,0,0,1,81.77,27.5Z"/><path class="cls-2" d="M113.39,21.56a2.82,2.82,0,0,1,1.65.5c.21.13.64.27.39.63s-.45.57-1,.23a2,2,0,1,0-2.26,3.32,1.9,1.9,0,0,0,2.27-.09c.49-.42.65,0,.89.18.41.39-.09.48-.27.62a3.31,3.31,0,0,1-3.78,0,2.93,2.93,0,0,1-1-3.28A3,3,0,0,1,113.39,21.56Z"/><path class="cls-1" d="M86.76,37.77a4.52,4.52,0,0,1,3-1.51,58.87,58.87,0,0,1,13.65-.75l.36.1C97.94,35.91,92.19,35.53,86.76,37.77Z"/><path class="cls-2" d="M70.38,24.47c0-.77,0-1.54,0-2.31,0-.49.23-.49.59-.5s.5.1.5.5c0,1.59,0,3.19,0,4.78,0,.44-.2.46-.54.46s-.56,0-.54-.46C70.4,26.12,70.38,25.29,70.38,24.47Z"/><path class="cls-1" d="M74.85,34.51a9.61,9.61,0,0,0,2.46-2.59c.11-.13.17-.39.42-.23s.12.27.07.43a15.47,15.47,0,0,1-1.44,3.44c-.19.29-.39.67-.94.45a5.29,5.29,0,0,0,1.47-2.67c-.72.31-1,.92-1.47,1.27-.25.18-.44.42-.78.2s-.27-.46-.16-.77c.26-.68.5-1.38.8-2.23A2.28,2.28,0,0,0,74,33.72a.83.83,0,0,1-.08-1.21c.39-.48.78-1,1.51-.87.51.11.32.49.19.76A8,8,0,0,0,74.85,34.51ZM77,33c.06-.11.17-.27.06-.34s-.16.13-.25.19-.23.3-.07.39S77,33.13,77,33Z"/><path class="cls-1" d="M102.24,33.2c-.08.36-.13.71-.22,1s0,.48-.36.36-.28-.26-.17-.53c.36-.88.66-1.79,1-2.69.06-.18.06-.43.34-.29a.36.36,0,0,1,.17.54,1.64,1.64,0,0,0-.45.91c0,.16-.25.34,0,.49s.37,0,.52-.1a3,3,0,0,0,1.31-1.27,1,1,0,0,0-.92-1.56,3.13,3.13,0,0,0-2.8,1.58c-.36-.27-.23-.53,0-.8a3.68,3.68,0,0,1,3.29-.91,1.31,1.31,0,0,1,.81,1.86,4,4,0,0,1-1.67,1.58C102.77,33.59,102.6,33.24,102.24,33.2Z"/><path class="cls-1" d="M85.76,31.93a2.37,2.37,0,0,0-1.45.58.7.7,0,0,1,.54-.86,8,8,0,0,1,2.37-.4,1,1,0,0,1,.59.24c.13.1.1.29,0,.43a.26.26,0,0,1-.28.09c-1.08-.3-1.08-.3-1.49.7a.57.57,0,0,0,.13.08c.26.12.73-.33.79.13s-.45.32-.75.35c-.71.09-.75.68-.86,1.17a1.81,1.81,0,0,1-.34.93s-.21-.06-.26-.13c-.27-.36,0-.65.18-.93.25-.49.23-.76-.52-.73C85,33.11,85.82,32.91,85.76,31.93Z"/><path class="cls-1" d="M81,34c.51-.26.85-.86,1.56-.77.13,0,.26-.06.31.12a.21.21,0,0,1-.19.28,1.56,1.56,0,0,0-.92.73c-.09.14,0,.44-.31.38s0-.37-.15-.58c-.32.66-1.09.24-1.55.65-.1.08-.27-.09-.3-.2-.25-.79-.59-.34-.9-.07s-.47.69-.81.25,0-.92.34-1.27.65-.37.85.08.94.09.75.79c.47-.18.58-.56.81-.84.08-.1.14-.27.29-.19s.09.27.09.42-.26.23-.14.36S80.9,34.06,81,34Z"/><path class="cls-1" d="M114.75,32.2c.4-.13.54-.76.79-.74,1.09.11,1-.84,1.46-1.35.14-.18.25-.51.53-.35s0,.4-.14.57a4.71,4.71,0,0,0-1.08,3.08c-.54.2-.06-.73-.61-.53s-.57-.21-.73-.51c-.21.18-.39.37-.61.53s-.38.32-.64.11a.57.57,0,0,1-.23-.77c.18-.33.31-.73.8-.72s.38.27.33.55c-.26.17-.71.06-.82.52C114.24,32.73,114.49,32.45,114.75,32.2Z"/><path class="cls-1" d="M88.61,33.73a2.41,2.41,0,0,1,.24-.21c.83-.69.83-.69-.23-1.16.72,0,1.28-.08,1.45-.79,0-.08.09-.23.22-.15s.19.18.17.24c-.26.68.2.48.55.45a3.61,3.61,0,0,1,.6.1c-.78.26-1.59,0-1.85.91A3.93,3.93,0,0,0,89.42,35c-.53-.38-.32-.88-.31-1.41-.3.82-1.13.47-1.65.83-.21.15-.37-.16-.4-.36a1.17,1.17,0,0,1,.1-.54c.07-.21.17-.59.37-.5.41.18-.08.41-.08.64s-.13.21,0,.34l.23-.15c.15-.21.31-.42.47-.61s.11-.37.31-.27.08.35,0,.53a.32.32,0,0,0-.05.34Z"/><path class="cls-1" d="M112.22,32.18a1.3,1.3,0,0,0,.73-.9c-.26-.12-.63,0-.8-.39.67.09,1.18-.08,1.37-.77,0-.09.07-.21.21-.19s.22.12.19.21c-.23.74.32.54.69.57.15,0,.34,0,.37.22-.62.19-1.47-.2-1.77.79a3.05,3.05,0,0,0-.25,2.2,1.27,1.27,0,0,1-.44-1.44c-.44.15-.59.6-1,.69s-.26-.62-.66-.65h0c0-.51.39-.75.75-1s.55-.08.42.36c-.44,0-.58.31-.68.7C111.82,32.66,112,32.36,112.22,32.18Z"/><path class="cls-1" d="M108.84,31.45l-.9-.28c.64-.1,1.31-.11,1.49-.93a.19.19,0,0,1,.32-.1c.16.11,0,1-.14,1.08a2.89,2.89,0,0,0-.83,2.55,1.42,1.42,0,0,1,0,.25c-.47-.47-.47-.47-.42-1.53a1.57,1.57,0,0,0-1.1.67c-.12.16-.3.33-.55.19a.45.45,0,0,1-.19-.56,1.47,1.47,0,0,1,.61-1.06.56.56,0,0,1,.62,0C108.45,32.26,108.46,32.26,108.84,31.45Z"/><path class="cls-1" d="M90.55,33.88l.84-1c.11.42.11.42-.09.93a.94.94,0,0,0,.76-.47c.27-.64.88-.26,1.26-.49a.16.16,0,0,1,.24.13.26.26,0,0,1-.1.19,1.57,1.57,0,0,0-1.13,1,.18.18,0,0,1-.26.12c-.35-.18.15-.41-.07-.67-.26.79-1,.44-1.58.73-.23.13-.45-.29-.35-.62s.12-.71.37-.73c.51,0,.13.27.09.43a2.65,2.65,0,0,1-.11.3l-.06.19Z"/><path class="cls-1" d="M97.3,32.57c.15.36,0,.65-.36,1.09.75-.28,1-.89,1.52-1.13.21-.09.43-.33.6,0s-.2.24-.35.32-.44.16-.22.38.68.3.29.68a.73.73,0,0,1-1.13.07c.27-.13.65,0,.78-.33-.28-.31-.55-.53-.9,0-.19.27-.47.7-.8.48s0-.68.09-1A1.15,1.15,0,0,1,97.3,32.57Z"/><path class="cls-1" d="M110.85,32.52a5.93,5.93,0,0,1-.53.47c-.23.18-.49.38-.78.1a.64.64,0,0,1-.12-.8,1.3,1.3,0,0,1,.27-.39c.2-.2.44-.52.73-.26s.22.61-.34.79l.79.1Z"/><path class="cls-1" d="M94.29,33.6l.6,0c-.2.39-.45.68-.89.61a.49.49,0,0,1-.41-.52,1.26,1.26,0,0,1,.79-1c.27-.09.35.11.4.27C94.91,33.38,94.55,33.41,94.29,33.6Z"/><path class="cls-1" d="M106.43,31.94s0,.14,0,.15a2.06,2.06,0,0,0-1.35,1.22s-.15,0-.21,0a.21.21,0,0,1-.1-.18c0-.59,1-1.49,1.5-1.4C106.38,31.75,106.41,31.83,106.43,31.94Z"/><path class="cls-1" d="M76.85,32.89c.09-.06.1-.29.25-.19s0,.23-.06.34Z"/><path class="cls-1" d="M77,33c-.08.09-.05.36-.26.24s0-.25.07-.39Z"/></g></g></svg>