<svg height="40"  xmlns="http://www.w3.org/2000/svg" viewBox="0 0 181.93 36.27"><defs><style>.cls-1{fill:#b42328;}.cls-2{fill:#385ea1;}.cls-3{fill:#231f20;}</style></defs><g id="Layer_2" data-name="Layer 2"><g id="Layer_1-2" data-name="Layer 1"><path class="cls-1" d="M61.41,16.66v-8c0-.44.05-.48.49-.47h1.29c.34,0,.41,0,.41.4,0,.64,0,1.28,0,1.93a1,1,0,0,0,0,.24c0,.06,0,.15.08.18s.11-.08.15-.13a7.45,7.45,0,0,1,1.22-1.35,6.88,6.88,0,0,1,3-1.5,6.31,6.31,0,0,1,2.33-.07,5.61,5.61,0,0,1,2.08.78,5.26,5.26,0,0,1,2,2.3,3.73,3.73,0,0,1,.2.56c0,.08.07.14.16.15s.11,0,.16-.1a7.77,7.77,0,0,1,2.44-2.69A6.65,6.65,0,0,1,81,7.71a5.53,5.53,0,0,1,2.56.53,5.34,5.34,0,0,1,2.42,2.37,6.37,6.37,0,0,1,.57,1.71,21.11,21.11,0,0,1,.32,4.76q0,3.86,0,7.69c0,.31-.08.41-.39.4-.48,0-1,0-1.45,0-.28,0-.36-.12-.36-.38,0-2.89,0-5.79,0-8.68,0-.95-.07-1.89-.15-2.83a3.62,3.62,0,0,0-1.06-2.36A3.81,3.81,0,0,0,81,9.85,5,5,0,0,0,77.43,11a5.35,5.35,0,0,0-1.82,2.9,17.05,17.05,0,0,0-.41,3.76c-.07,2.35,0,4.7,0,7,0,.47,0,.47-.46.47s-.95,0-1.42,0c-.22,0-.29-.09-.29-.28v-.42c0-3,0-6.05,0-9.08a11.7,11.7,0,0,0-.31-2.95,3.28,3.28,0,0,0-1.05-1.69,3.93,3.93,0,0,0-2.83-.94,4.94,4.94,0,0,0-3,1.22,5.55,5.55,0,0,0-1.45,1.85,6.94,6.94,0,0,0-.6,2,69.74,69.74,0,0,0-.16,7.37c0,.83,0,1.65,0,2.48,0,.27-.13.37-.38.38H61.8c-.34,0-.42-.1-.42-.45V16.66Z"/><path class="cls-1" d="M49.66,16.82H42.39c-.19,0-.34,0-.33.26a6.54,6.54,0,0,0,.39,2.32,6.85,6.85,0,0,0,1.29,2.15,6.27,6.27,0,0,0,2.75,1.82,6.45,6.45,0,0,0,2.83.22,6.66,6.66,0,0,0,4-1.93,9.07,9.07,0,0,0,1.4-1.86.27.27,0,0,1,.42-.13c.44.23.87.48,1.32.69.16.07.23.2.12.41a11.83,11.83,0,0,1-1.43,2.06,8.17,8.17,0,0,1-2,1.63,8,8,0,0,1-2.79,1,9.91,9.91,0,0,1-4.06-.1,7.35,7.35,0,0,1-4.18-2.48,10.29,10.29,0,0,1-1.78-3,8.73,8.73,0,0,1-.5-4.17,5.94,5.94,0,0,1,.23-1.39c.21-.57.36-1.16.62-1.71a9.86,9.86,0,0,1,1.4-2.1,2.74,2.74,0,0,1,.47-.49c.26-.18.36-.48.62-.66a10,10,0,0,1,2.21-1.17A7.83,7.83,0,0,1,47,7.81a9,9,0,0,1,3.44.08,8.27,8.27,0,0,1,5.35,3.7,9.39,9.39,0,0,1,1,1.93A14.9,14.9,0,0,1,57.17,15a1.7,1.7,0,0,1,0,.45v0l0,0s0,0,0,0,0,.11.06.17c0,.27.05.54.09.8s0,.45-.4.45H49.66ZM48.6,15h5.93c.38,0,.42-.08.3-.44s-.24-.73-.4-1.09a5.35,5.35,0,0,0-1.14-1.75A6.18,6.18,0,0,0,50.48,10a6.89,6.89,0,0,0-3.16-.18,6.3,6.3,0,0,0-3.13,1.57,6.44,6.44,0,0,0-1.8,3.08c-.13.47-.13.48.36.48Z"/><path class="cls-1" d="M21.18,8.47a9.34,9.34,0,0,1,0,1.4.41.41,0,0,1-.09-.36c0-2.5,0-5,0-7.48,0-.41,0-.45.45-.45s.89,0,1.33,0c.26,0,.32.08.32.33V8.39c0,.81,0,1.61,0,2.41,0,.09-.05.23.08.26s.18-.06.24-.15a8.65,8.65,0,0,1,3.08-2.52A6.78,6.78,0,0,1,28,7.94a7.41,7.41,0,0,1,2.57-.13,5.57,5.57,0,0,1,2.17.72A5.94,5.94,0,0,1,34.43,10a5.1,5.1,0,0,1,.89,1.63,12.51,12.51,0,0,1,.54,3.6c0,3.19,0,6.38,0,9.56,0,.26-.08.36-.35.35-.48,0-1,0-1.44,0-.27,0-.36-.08-.36-.36,0-3.45,0-6.9,0-10.35a5.36,5.36,0,0,0-1-3.18,3.76,3.76,0,0,0-2.41-1.41,5,5,0,0,0-1.34-.09,6.07,6.07,0,0,0-2.51.8,6.43,6.43,0,0,0-1.76,1.6A5,5,0,0,0,23.66,14a22.54,22.54,0,0,0-.45,5.37c0,1.83,0,3.66,0,5.49,0,.24-.07.35-.33.34-.48,0-.95,0-1.42,0s-.41-.06-.41-.4q0-8,0-15.95A.39.39,0,0,1,21.18,8.47Z"/><path class="cls-1" d="M16.6,14.11a5.3,5.3,0,0,0-.69,0,.53.53,0,0,1-.6-.36,7.11,7.11,0,0,0-3-3.13,6.66,6.66,0,0,0-4-.73A6.32,6.32,0,0,0,4.9,11.35a7.11,7.11,0,0,0-1.8,2.23,6.87,6.87,0,0,0,2.67,9.16,6.53,6.53,0,0,0,3.8.88,6.81,6.81,0,0,0,4.41-2,7.54,7.54,0,0,0,1.31-1.81.28.28,0,0,1,.29-.16c.63,0,1.26,0,1.9,0,.2,0,.28.06.2.27a9.08,9.08,0,0,1-5,5.24,9.19,9.19,0,0,1-3.69.71A8.93,8.93,0,0,1,5.25,25a9,9,0,0,1-3.67-3.18,9.45,9.45,0,0,1-1-1.9A9.92,9.92,0,0,1,0,17.08a7.5,7.5,0,0,1,.25-2.35,9,9,0,0,1,.7-2,18.38,18.38,0,0,1,1-1.67A6.37,6.37,0,0,1,3,10,8.83,8.83,0,0,1,5.38,8.42a10.56,10.56,0,0,1,1.8-.6,9.55,9.55,0,0,1,3.2-.14,7.39,7.39,0,0,1,1.94.5,9.21,9.21,0,0,1,2.5,1.41,8.11,8.11,0,0,1,1.65,1.71,7.74,7.74,0,0,1,1.13,2.1,2.18,2.18,0,0,1,.16.45c0,.18,0,.26-.22.25H16.6Z"/><path class="cls-2" d="M153.15,17.37h-7.93c-.26,0-.36.1-.3.37a6.88,6.88,0,0,0,.65,2.06,10.27,10.27,0,0,0,1.19,1.76A7.25,7.25,0,0,0,148.47,23a6.21,6.21,0,0,0,1.62.83,8.6,8.6,0,0,0,1.14.27c.39,0,.78.11,1.19.12a6.91,6.91,0,0,0,2.91-.61,7.91,7.91,0,0,0,2.5-1.58A15.4,15.4,0,0,0,159,20.65a.38.38,0,0,1,.35-.17h1.15c.24,0,.23.11.14.28a9.13,9.13,0,0,1-1.3,1.84,8.39,8.39,0,0,1-2.6,2.1,9.61,9.61,0,0,1-2.77.92,8,8,0,0,1-3,0,9.33,9.33,0,0,1-3.24-1.23,9.81,9.81,0,0,1-2.83-2.8,8.31,8.31,0,0,1-1.1-2.26,9.55,9.55,0,0,1-.37-2.87,7.77,7.77,0,0,1,.39-2.55,9.8,9.8,0,0,1,1.9-3.27,9,9,0,0,1,3-2.24,8.33,8.33,0,0,1,2.69-.78A12.23,12.23,0,0,1,153,7.52a9.53,9.53,0,0,1,3,.69A9.4,9.4,0,0,1,158,9.33a8.92,8.92,0,0,1,1.54,1.53,8.8,8.8,0,0,1,.89,1.3,10.64,10.64,0,0,1,.81,1.9,9.84,9.84,0,0,1,.35,2.75c0,.51,0,.55-.54.56h-7.85Zm-.67-1.4h7.24c.23,0,.3-.09.3-.3a4.67,4.67,0,0,0-.32-1.48,7.67,7.67,0,0,0-4.52-4.77A8.28,8.28,0,0,0,153,9a7.16,7.16,0,0,0-2.73.29,7.85,7.85,0,0,0-4.73,4.1,8.75,8.75,0,0,0-.65,2.13c-.08.37,0,.5.41.5Z"/><path class="cls-2" d="M115.28,16.63a9.09,9.09,0,0,1,9-9.14,9.1,9.1,0,0,1,0,18.2A9.08,9.08,0,0,1,115.28,16.63Zm9.09,7.66a7.68,7.68,0,1,0-7.6-8.43A7.77,7.77,0,0,0,124.37,24.29Z"/><path class="cls-2" d="M105.09,25.74a9.58,9.58,0,0,1-1.42-.06,9,9,0,0,1-1.43-.42,11.23,11.23,0,0,1-2.2-1.08,9.65,9.65,0,0,1-2.19-2,8.79,8.79,0,0,1-1.3-2.31A9.26,9.26,0,0,1,96,16a8.44,8.44,0,0,1,.7-3,9.23,9.23,0,0,1,3.47-4,8.93,8.93,0,0,1,1.73-.84,8.1,8.1,0,0,1,3-.57,8.63,8.63,0,0,1,2.08.2,11.84,11.84,0,0,1,2.38.85,8.58,8.58,0,0,1,2,1.42,8.46,8.46,0,0,1,1.9,2.46c.13.28.27.55.39.83s0,.41-.27.41a6,6,0,0,0-.85,0c-.33,0-.48-.12-.6-.39a6.46,6.46,0,0,0-1.1-1.72,7.2,7.2,0,0,0-2.25-1.74,7.66,7.66,0,0,0-1.85-.65,8.79,8.79,0,0,0-2.8-.09,6.46,6.46,0,0,0-2.18.69A7.75,7.75,0,0,0,98.39,13a8.28,8.28,0,0,0-.74,2,7.23,7.23,0,0,0-.12,2.66,6.82,6.82,0,0,0,.68,2.21,10.37,10.37,0,0,0,1.31,2,5.65,5.65,0,0,0,1.61,1.34A6.94,6.94,0,0,0,103,24a8.1,8.1,0,0,0,2.41.25,7.13,7.13,0,0,0,2.54-.54,6.38,6.38,0,0,0,2-1.26A9.85,9.85,0,0,0,112,19.67a.22.22,0,0,1,.23-.13c.37,0,.74,0,1.11,0s.35.12.25.39-.25.58-.39.87A8.92,8.92,0,0,1,111.58,23a7.64,7.64,0,0,1-1.29,1.1,8.77,8.77,0,0,1-2.43,1.21c-.44.14-.91.23-1.36.33A8.32,8.32,0,0,1,105.09,25.74Z"/><path class="cls-2" d="M168.5,15.29c.46-.66.91-1.29,1.34-1.93l2.23-3.27.94-1.4a.47.47,0,0,1,.45-.25c.36,0,.72,0,1.08,0s.31.07.17.29c-.35.5-.69,1-1,1.52L172,12.73l-1.49,2.21c-.32.47-.63,1-1,1.41-.24.3-.07.52.08.71.43.54.75,1.15,1.2,1.68a8.65,8.65,0,0,1,.69,1.05c.28.45.6.87.88,1.32.62,1,1.28,1.93,1.93,2.89l.59.88a.28.28,0,0,1,.07.3c-.05.11-.17.07-.27.07a4.82,4.82,0,0,0-.66,0c-.53.1-.77-.22-1-.59-.52-.81-1.08-1.6-1.6-2.4-.35-.55-.72-1.09-1.08-1.64l-1.22-1.8c-.21-.29-.4-.58-.62-.89a19.1,19.1,0,0,0-1.23,1.74c-.45.61-.86,1.24-1.28,1.87s-1.05,1.51-1.53,2.3c-.27.41-.56.81-.84,1.22a.39.39,0,0,1-.33.18h-1.08c-.24,0-.27-.13-.17-.32a24.21,24.21,0,0,1,1.7-2.68c.78-1,1.47-2.11,2.19-3.18.42-.62.87-1.23,1.31-1.84s.43-.67,0-1.23c-.59-.73-1.06-1.54-1.6-2.31s-.89-1.3-1.36-1.93-1-1.48-1.47-2.21c-.18-.27-.39-.51-.55-.78s-.12-.45.27-.45a7.2,7.2,0,0,0,.93,0,.64.64,0,0,1,.64.36c.5.81,1,1.58,1.58,2.37.4.58.73,1.2,1.12,1.79s.86,1.23,1.26,1.87A5.6,5.6,0,0,0,168.5,15.29Z"/><path class="cls-2" d="M139.64,17.36v7.27c0,.42,0,.42-.4.41a3.31,3.31,0,0,0-.63,0c-.32.06-.38-.1-.37-.37V10.47c0-.12,0-.24,0-.36,0-.39-.11-.46-.48-.46H135c-.27,0-.36-.1-.35-.35s0-.48,0-.72.09-.36.35-.36h2.78c.41,0,.45,0,.45-.44l0-5.37c0-.38,0-.4.42-.4s.48,0,.72,0,.38.11.38.39c0,1.74,0,3.48,0,5.22a1.92,1.92,0,0,0,0,.24c0,.22.11.33.37.32.94,0,1.89,0,2.83,0,.29,0,.38.12.38.37s0,.51,0,.76-.07.37-.36.36c-.94,0-1.89,0-2.83,0-.41,0-.45,0-.45.45v7.27Z"/><path class="cls-1" d="M91.13,16.66v-8c0-.46,0-.48.48-.48h1.26c.39,0,.4,0,.4.41v3.67q0,6.27,0,12.54c0,.28-.11.36-.36.36H91.75c-.72,0-.62,0-.62-.61q0-3.95,0-7.87Z"/><path class="cls-1" d="M114.41,31.24V28.47c0-.44,0-.44.43-.44.72,0,.72,0,.72.73,0,.42,0,.85,0,1.27,0,.18.08.24.24.11a2,2,0,0,1,2.7.23,2.58,2.58,0,0,1-.31,3.82,1.89,1.89,0,0,1-2.37,0c-.14-.09-.21-.15-.28.05a.29.29,0,0,1-.33.19h-.36c-.45,0-.46,0-.46-.44V31.24Zm2.35,2.27a1.35,1.35,0,0,0,0-2.7,1.25,1.25,0,0,0-1.25,1.35A1.27,1.27,0,0,0,116.76,33.51Z"/><path class="cls-1" d="M101.08,31.25V28.42c0-.4,0-.42.42-.42.76,0,.76,0,.76.77v1c0,.1,0,.21.08.27s.21,0,.3-.08a1.76,1.76,0,0,1,1.43-.24,1.49,1.49,0,0,1,1.13,1.45c0,1,0,2,0,3,0,.22-.09.34-.33.31a2.94,2.94,0,0,0-.42,0c-.39,0-.43-.05-.43-.43,0-.68,0-1.37,0-2.05a1.47,1.47,0,0,0-.26-1,.68.68,0,0,0-.92-.12,1.2,1.2,0,0,0-.58,1c0,.73,0,1.45,0,2.17,0,.39,0,.41-.42.4a2.94,2.94,0,0,0-.42,0c-.28,0-.35-.1-.35-.34C101.08,33.2,101.08,32.23,101.08,31.25Z"/><path class="cls-1" d="M138.61,31.26c0,.95,0,1.89,0,2.83,0,.28-.11.39-.38.38h-.45c-.16,0-.31,0-.33-.23s-.19-.14-.28-.07a1.86,1.86,0,0,1-1.92.28,2.09,2.09,0,0,1-1.2-1.13,2.66,2.66,0,0,1,.1-2.48,2,2,0,0,1,2.94-.7c.09.07.21.2.31.14s.06-.21.06-.33c0-.54,0-1.09,0-1.63,0-.21.05-.3.29-.29,1,0,.85-.08.85.85Zm-1.12.94a1.14,1.14,0,0,0-.18-.74,1.26,1.26,0,0,0-1.74-.52,1.42,1.42,0,0,0-.59,1.52,1.12,1.12,0,0,0,.75,1A1.21,1.21,0,0,0,137.2,33,1.18,1.18,0,0,0,137.49,32.2Z"/><path class="cls-1" d="M127.58,32.16c0,.64,0,1.28,0,1.93,0,.27-.11.38-.37.38h-.46c-.16,0-.28,0-.32-.22s-.19-.14-.31-.06a2,2,0,0,1-2.71-.29,2.45,2.45,0,0,1-.63-1.8,2.3,2.3,0,0,1,1.31-2.18,1.56,1.56,0,0,1,1.13-.16,2,2,0,0,1,.91.4c.1.09.29.11.31-.12s.11-.21.26-.2.32,0,.48,0,.4.12.4.39v1.93Zm-1.13-.07c.07-.24-.08-.46-.2-.69a1.24,1.24,0,0,0-2.1-.09,1.68,1.68,0,0,0-.18,1.28,1.26,1.26,0,0,0,1.44.94A1.37,1.37,0,0,0,126.45,32.09Z"/><path class="cls-2" d="M172.87,31.4V30.14c0-.36.06-.4.4-.37a3.39,3.39,0,0,0,.45,0c.24,0,.4.06.39.33a20,20,0,0,1-.11,3.09,2,2,0,0,1-1.45,1.45,2.39,2.39,0,0,1-1.7-.27,1.56,1.56,0,0,1-.79-1.24,11.41,11.41,0,0,1-.15-2.19c0-.29,0-.58.05-.87s.1-.35.35-.3a1.06,1.06,0,0,0,.5,0c.26,0,.38,0,.38.32,0,.75,0,1.5,0,2.26a1.4,1.4,0,0,0,.06.5c.1.28.21.54.54.58a.87.87,0,0,0,.94-.32.7.7,0,0,0,.12-.36V31.4Z"/><path class="cls-1" d="M109.1,32.47h-1.54c-.28,0-.33.07-.22.33a1.51,1.51,0,0,0,2.22.47.3.3,0,0,1,.31,0l.52.23c.24.08.15.28,0,.41a1.87,1.87,0,0,1-.74.5,2.66,2.66,0,0,1-2.86-.47,2,2,0,0,1-.6-1.1,2.85,2.85,0,0,1,0-1.3A2.17,2.17,0,0,1,107.4,30a2.45,2.45,0,0,1,3.22.85,2.65,2.65,0,0,1,.37,1.27c0,.24-.11.35-.35.35H109.1Zm-.6-.9h0c.33,0,.65,0,1,0s.31-.15.17-.33a1.36,1.36,0,0,0-2.18.05c-.12.19-.07.28.14.28Z"/><path class="cls-1" d="M153.12,32.22a2.33,2.33,0,0,1-2.44,2.33,2.4,2.4,0,0,1-2.36-2.68,2.43,2.43,0,0,1,2.59-2.14A2.38,2.38,0,0,1,153.12,32.22ZM152,32.16a1.25,1.25,0,0,0-1.24-1.32,1.3,1.3,0,0,0-1.27,1.35,1.22,1.22,0,0,0,1.31,1.29A1.2,1.2,0,0,0,152,32.16Z"/><path class="cls-2" d="M160.39,36.24c-.8,0-.75,0-.45-.64.18-.4.38-.78.54-1.19s-.07-.74-.21-1.09c-.25-.63-.51-1.25-.77-1.87-.18-.45-.35-.9-.55-1.34-.09-.2,0-.27.16-.3a4,4,0,0,1,.69,0,.38.38,0,0,1,.37.29c.18.47.38.93.57,1.4.13.31.27.62.39.93s.17.17.24,0c.16-.31.28-.63.45-.93.28-.47.33-1,.62-1.51a.42.42,0,0,1,.37-.2h.42c.44,0,.51.12.3.53l-.33.7a21,21,0,0,0-1,2.22c-.29.88-.78,1.66-1.08,2.53C161,36.14,160.74,36.34,160.39,36.24Z"/><path class="cls-2" d="M166.57,34.6a2.39,2.39,0,0,1-2.38-2.47,2.42,2.42,0,0,1,2.43-2.36A2.33,2.33,0,0,1,169,32.16,2.4,2.4,0,0,1,166.57,34.6Zm0-1.11c.95,0,1.25-.63,1.3-1.34a1.25,1.25,0,0,0-1.2-1.32,1.23,1.23,0,0,0-1.3,1.31A1.19,1.19,0,0,0,166.55,33.49Z"/><path class="cls-1" d="M128.76,32.13c0-.65,0-1.3,0-2,0-.23.06-.36.32-.33a4.51,4.51,0,0,0,.52,0c.14,0,.28,0,.3.19s.19.18.3.08a1.6,1.6,0,0,1,1.1-.39,1.43,1.43,0,0,1,1.54,1.41c.09,1,0,2,0,3.08a.21.21,0,0,1-.24.24h0c-1.1,0-.87.16-.89-.81,0-.65,0-1.3,0-2a.92.92,0,0,0-.09-.43c-.14-.29-.32-.52-.67-.51a1,1,0,0,0-.86.56,1.62,1.62,0,0,0-.18.94c0,.64,0,1.27,0,1.9,0,.22-.06.3-.29.31-.86,0-.86,0-.86-.85V32.13Z"/><path class="cls-1" d="M94.16,0a.33.33,0,0,1,0,.33A10.14,10.14,0,0,1,92.76,3.4a7.15,7.15,0,0,1-2.18,1.88c-.38.22-.57.21-.86-.09a10,10,0,0,0-1.54-1.3.1.1,0,0,1-.05,0c-.06-.1-.26-.15-.18-.3s.23-.07.37-.06a4.27,4.27,0,0,0,1.5-.26,6.58,6.58,0,0,0,1.41-.56,10.19,10.19,0,0,0,1.3-.82,4.92,4.92,0,0,0,1-.9A3.9,3.9,0,0,0,94.16,0Z"/><path class="cls-1" d="M145.91,32.61V31.1c0-.15,0-.29-.21-.3s-.17-.1-.18-.22,0-.36,0-.55,0-.19.14-.19.26-.17.27-.34,0-.4,0-.6c0-.9.83-1.08,1.47-.93.24.05.42.11.41.42s0,.45-.44.48c-.24,0-.37.24-.36.62s.09.37.36.36.41,0,.41.42v.24c0,.22-.08.3-.3.3-.41,0-.41,0-.42.42,0,.93,0,1.87,0,2.8,0,.37-.06.43-.43.43-.8,0-.75.09-.75-.77V32.61Z"/><path class="cls-1" d="M98.63,32.64c0-.48,0-1,0-1.44,0-.24-.07-.4-.34-.39s-.29-.1-.28-.29v-.31c0-.24,0-.41.33-.38s.29-.11.29-.3c0-.35,0-.7,0-1.05s.08-.32.32-.32c.82,0,.82,0,.82.78v.33c0,.49,0,.49.49.57.11,0,.19.06.2.18s0,.39,0,.58-.11.17-.23.2-.31-.06-.39.09a1,1,0,0,0-.1.58c.07.87,0,1.74,0,2.62,0,.24-.09.38-.37.37-.8,0-.75.16-.75-.76Z"/><path class="cls-1" d="M141,34.56a2,2,0,0,1-1.31-.46.31.31,0,0,1-.05-.51c.05-.07.12-.13.18-.2.18-.25.34-.28.6-.06s.71.4,1,.17a.37.37,0,0,0,.07-.56c-.25-.32-.64-.4-1-.6a1.62,1.62,0,0,1-.94-1.28,1.27,1.27,0,0,1,.89-1.21,1.93,1.93,0,0,1,1.79.33.33.33,0,0,1,.06.54c-.31.38-.4.39-.8.16a1.09,1.09,0,0,0-.34-.13c-.19,0-.4,0-.48.2a.38.38,0,0,0,.27.5,4.06,4.06,0,0,1,.69.35,1.85,1.85,0,0,1,.75.61,1.35,1.35,0,0,1-.71,2A1.74,1.74,0,0,1,141,34.56Z"/><path class="cls-1" d="M153.89,32.16c0-.66,0-1.32,0-2,0-.24.08-.35.33-.33s.56-.1.64.31c0,.1.15.08.24,0a.94.94,0,0,1,.9-.35c.19,0,.29.09.24.28a5.4,5.4,0,0,1-.18.57c-.05.12-.19.1-.3.09a.46.46,0,0,0-.53.36,6.23,6.23,0,0,0-.21,2.23c0,.28,0,.55,0,.82s-.09.33-.33.33c-.95,0-.79.15-.8-.79,0-.25,0-.5,0-.75s0-.51,0-.76Z"/><path class="cls-1" d="M121,30.34a1,1,0,0,1,1.11-.55c.2,0,.32.1.2.34a1.83,1.83,0,0,0-.1.28c-.07.19-.14.37-.42.31a.47.47,0,0,0-.51.33,1.91,1.91,0,0,0-.2.82c0,.75,0,1.5,0,2.26,0,.23-.05.33-.32.33-.83,0-.83,0-.83-.85V30.23c0-.37,0-.38.39-.38h0C120.79,29.84,120.79,29.84,121,30.34Z"/><path class="cls-3" d="M177.45,7.51a5.11,5.11,0,0,1,0-1,2.09,2.09,0,0,1,1.29-1.71,2.21,2.21,0,0,1,2.94,1,2.12,2.12,0,0,1,.1,1.9,1.45,1.45,0,0,0-.06.3.54.54,0,0,0-.33.43h0a.21.21,0,0,0-.16.06A2.26,2.26,0,0,1,179,9a2,2,0,0,1-1.41-1.28A.25.25,0,0,0,177.45,7.51Zm3.56.8a2,2,0,0,0,.55-1.6A1.79,1.79,0,0,0,180.23,5a1.92,1.92,0,0,0-2.49,1.69A2.58,2.58,0,0,0,178,7.85c0,.11,0,.15.12.14l0,.11c0,.11.09.13.17.16l.05.05c0,.07,0,.12.14.12l.1.06a.64.64,0,0,0,.69.31l.21,0c.15.22.31.21.46,0l.2,0c.31.09.47-.1.63-.31l.11-.05A.15.15,0,0,0,181,8.31Z"/><path class="cls-3" d="M177.45,7.51a.25.25,0,0,1,.17.19A2,2,0,0,0,179,9a2.26,2.26,0,0,0,2.17-.49.21.21,0,0,1,.16-.06,1.57,1.57,0,0,1-1,.69,2.17,2.17,0,0,1-2.31-.55A2.09,2.09,0,0,1,177.45,7.51Z"/><path class="cls-3" d="M181.36,8.42a.54.54,0,0,1,.33-.43A1,1,0,0,1,181.36,8.42Z"/><path class="cls-3" d="M178.57,8.49l.69.31A.64.64,0,0,1,178.57,8.49Z"/><path class="cls-3" d="M180.13,8.79a3.68,3.68,0,0,1,.63-.31C180.6,8.69,180.44,8.88,180.13,8.79Z"/><path class="cls-3" d="M179.47,8.82h.46C179.78,9,179.62,9,179.47,8.82Z"/><path class="cls-3" d="M178.11,8.1c.07,0,.19,0,.17.16C178.2,8.23,178.1,8.21,178.11,8.1Z"/><path class="cls-3" d="M178,7.85l.12.14C178,8,177.92,8,178,7.85Z"/><path class="cls-3" d="M178.33,8.31c.09,0,.13,0,.14.12S178.35,8.38,178.33,8.31Z"/><path class="cls-3" d="M180.87,8.43c0-.1,0-.13.14-.12A.15.15,0,0,1,180.87,8.43Z"/><path class="cls-3" d="M180.38,7.32c0-.15.12-.18.24-.14s.1.14.09.22a1.05,1.05,0,0,1-.47.69,1.27,1.27,0,0,1-1.21,0,1.49,1.49,0,0,1-.55-1.39,1.38,1.38,0,0,1,.57-1,1.27,1.27,0,0,1,1.29,0,.63.63,0,0,1,.37.65.74.74,0,0,1-.44-.08c-.06-.09-.08-.23-.23-.23a.45.45,0,0,0-.74,0l-.06,0a.12.12,0,0,0-.13.12,1.28,1.28,0,0,0,0,1.37.65.65,0,0,0,.66.3.57.57,0,0,0,.54-.39C180.37,7.47,180.39,7.4,180.38,7.32Z"/><path class="cls-3" d="M179.3,6A.45.45,0,0,1,180,6,3,3,0,0,0,179.3,6Z"/><path class="cls-3" d="M180.27,6.24a.74.74,0,0,0,.44.08C180.54,6.53,180.47,6.52,180.27,6.24Z"/><path class="cls-3" d="M180.38,7.32c0,.08,0,.15-.11.14A.13.13,0,0,1,180.38,7.32Z"/><path class="cls-3" d="M179.11,6.18a.12.12,0,0,1,.13-.12C179.24,6.15,179.18,6.17,179.11,6.18Z"/></g></g></svg>