<svg height="40" xmlns="http://www.w3.org/2000/svg" viewBox="0 0 187.89 39.75"><defs><style>.cls-1{fill:#273f90;}.cls-2{fill:#bdad54;}.cls-3{fill:#fdfdfe;}</style></defs><g id="Layer_2" data-name="Layer 2"><g id="Layer_1-2" data-name="Layer 1"><path class="cls-1" d="M90.2,7.93c.1,2.77-.11,5.54.13,8.31a1.49,1.49,0,0,0,1.47,1.49c.45.07.39.29.41.58s-.25.32-.48.31a31.16,31.16,0,0,0-4.1,0c-.23,0-.47.05-.41-.3,0-.2-.15-.51.25-.56,1.42-.2,1.59-.64,1.67-2.29,0-1.18,0-2.36,0-3.53V6.6c0-.94-.31-1.31-1.23-1.53A1.5,1.5,0,0,0,87.57,5c-.42,0-.35-.29-.35-.55s.24-.29.45-.27a31.55,31.55,0,0,0,3.89,0,.67.67,0,0,1,.79.52c1.22,3.05,2.48,6.09,3.72,9.13.05.13.05.29.26.37l2.94-7.94c.2-.53.41-1.07.58-1.61a.58.58,0,0,1,.68-.47,36.29,36.29,0,0,0,4,0c.22,0,.55-.17.57.31s-.11.45-.48.49c-1.06.11-1.46.58-1.47,1.66,0,3.05,0,6.1,0,9.15,0,1.35.35,1.82,1.58,2,.45.06.26.37.3.59s-.22.29-.43.29c-.91,0-1.83-.09-2.74-.09-1.18,0-2.36.05-3.53.09-.26,0-.5.05-.46-.34s0-.47.36-.55c1.27-.25,1.57-.61,1.58-1.89,0-2.6,0-5.19-.08-7.81-.36.91-.72,1.81-1.07,2.73Q97.32,14.4,95.93,18c-.14.38-.29.62-.79.62s-.63-.27-.78-.64q-1.92-4.89-3.87-9.77C90.44,8.14,90.49,7.94,90.2,7.93Z"/><path class="cls-1" d="M0,19.77c0-6.34,0-12.68,0-19C0,.16.12,0,.73,0q17,0,33.91,0c.62,0,.73.17.73.75q0,19.13,0,38.26c0,.57-.09.74-.72.74q-17,0-34,0c-.55,0-.67-.13-.67-.67C0,32.65,0,26.21,0,19.77Zm.76.1c0,6.15,0,12.3,0,18.45,0,.5.13.63.63.63q16.27,0,32.53,0c.56,0,.67-.16.67-.68q0-18.38,0-36.75c0-.56-.16-.66-.68-.66Q17.68.89,1.45.86C.87.86.76,1,.76,1.57.78,7.67.77,13.77.77,19.87Z"/><path class="cls-1" d="M126.29,10.92a7.43,7.43,0,0,1,3.36,1.1,3.41,3.41,0,0,1-.07,5.53,6.92,6.92,0,0,1-3.82,1.06c-2.41.06-4.81,0-7.21,0-.24,0-.49.06-.48-.34s0-.44.42-.47c1.08-.07,1.37-.36,1.55-1.42a6.11,6.11,0,0,0,.06-.86V7.26a5.78,5.78,0,0,0,0-.72c-.15-1.13-.43-1.45-1.58-1.58-.38,0-.41-.17-.42-.48s.23-.29.48-.29c2.35,0,4.71,0,7.07,0a6.27,6.27,0,0,1,2.91.72,2.93,2.93,0,0,1,.08,5.2A7.81,7.81,0,0,1,126.29,10.92Zm-3,2.93c0,.63,0,1.37.06,2.11a1.66,1.66,0,0,0,1.11,1.59,2,2,0,0,0,2.2-.69A3.88,3.88,0,0,0,127,13a2.53,2.53,0,0,0-2.66-1.43c-1,0-1,0-1,1Zm0-5.94v2.15c0,.25,0,.49.35.48,1.84,0,2.72-.47,2.88-2.16.19-1.89-.47-3.25-2.55-3.18-.49,0-.7.2-.68.69C123.36,6.56,123.34,7.23,123.34,7.91Z"/><path class="cls-1" d="M178.1,12.19a2.75,2.75,0,0,0-1.3,3,5.77,5.77,0,0,1,0,.72c0,1.53,0,1.58,1.52,1.89.37.08.36.28.37.56s-.22.3-.43.3c-2.09,0-4.19,0-6.28,0-.26,0-.46,0-.46-.36s.11-.41.45-.45c1.17-.12,1.51-.49,1.51-1.66q0-4.76,0-9.51c0-1.16-.37-1.56-1.5-1.7-.33,0-.46-.08-.46-.44s.28-.33.53-.33h6.07c.22,0,.46-.09.43.27,0,.21.08.42-.29.52-1.36.39-1.46.56-1.46,2V12A33.45,33.45,0,0,0,181,6.63c.54-.93.35-1.35-.68-1.56-.37-.07-.54-.21-.51-.61s.38-.25.57-.25c1.45,0,2.89,0,4.34,0,.2,0,.45-.1.45.26s0,.52-.29.56a4.06,4.06,0,0,0-2.65,1.93c-.64.81-1.26,1.64-1.91,2.44-.21.26-.27.43,0,.73,1.72,2.24,3.41,4.51,5.13,6.76a2.13,2.13,0,0,0,1.16.92c.33.08.26.36.26.59,0,.38-.29.25-.47.25q-3,0-5.91,0c-.22,0-.49.09-.48-.31s0-.51.4-.51a1.77,1.77,0,0,0,.56-.09c.4-.13.6-.38.42-.82a6.86,6.86,0,0,0-.89-1.47C179.67,14.35,178.88,13.26,178.1,12.19Z"/><path class="cls-1" d="M61.89,13.05a26.52,26.52,0,0,0-2.31,3c-.63,1-.41,1.51.79,1.73.39.08.44.27.43.6s-.31.27-.51.28H55.75c-.2,0-.45.08-.44-.28s0-.52.36-.58a3.22,3.22,0,0,0,1.89-1.22c1.16-1.35,2.27-2.73,3.42-4.08a.41.41,0,0,0,0-.61C59.58,9.92,58.18,8,56.77,6.05a2.33,2.33,0,0,0-1.32-1C55,5,55,4.72,55.05,4.4s.36-.24.57-.24q3.1.11,6.21,0c.23,0,.54-.14.57.32s-.16.45-.49.51c-1.21.23-1.4.61-.74,1.64s1.42,2,2.17,3.09a28.14,28.14,0,0,0,2.14-3.05c.49-1,.28-1.39-.78-1.64C64.37,5,64,5,64.13,4.43s.44-.24.66-.24c1.42,0,2.84.06,4.26,0,.18,0,.43-.11.44.2s.13.57-.26.64a4.21,4.21,0,0,0-2.46,1.87C65.92,8,65.1,9.1,64.25,10.2c-.21.26-.26.43,0,.72C65.74,13,67.26,15,68.79,17.1a1.54,1.54,0,0,0,1.14.68c.4,0,.44.24.43.57s-.32.28-.52.28H63.43c-.25,0-.49,0-.47-.34s0-.53.41-.54a2.69,2.69,0,0,0,.57-.06c.64-.17.85-.61.5-1.18C63.71,15.31,62.76,14.26,61.89,13.05Z"/><path class="cls-1" d="M155.7,7.42c0,2.75,0,5.31,0,7.87,0,1.11.39,2.09,1.69,2.2.38,0,.28.32.3.54s-.21.31-.42.31a36.26,36.26,0,0,0-4.17,0c-.26,0-.42,0-.39-.34s0-.44.31-.54c1.19-.31,1.43-.56,1.5-1.76.19-3.09.09-6.19.05-9.28A1.89,1.89,0,0,0,153,4.76c-.3-.08-.59-.14-.53-.58s.41-.26.62-.26c1.1,0,2.21,0,3.32,0a.94.94,0,0,1,.84.41c2.6,3.11,5.22,6.2,7.83,9.3.24-.1.13-.3.13-.44,0-1.87,0-3.75,0-5.62a4.91,4.91,0,0,0-.29-1.83,1.63,1.63,0,0,0-1.3-1c-.29-.06-.47-.11-.45-.48s.35-.3.57-.3c1.28,0,2.56,0,3.83,0,.2,0,.51-.18.56.23a.51.51,0,0,1-.41.63c-1,.32-1.28.64-1.34,1.74-.2,3.79,0,7.58-.1,11.37,0,.24.23.65-.19.72a1.09,1.09,0,0,1-1.17-.29c-1.81-2.18-3.65-4.33-5.48-6.49Z"/><path class="cls-1" d="M44.22,4.15c1.7,0,3.41,0,5.12,0,.46,0,.63.08.62.58a17.5,17.5,0,0,0,.12,2.8c0,.19.11.5-.24.47s-.65.22-.75-.29C48.65,5.48,46.9,5,45,5.27c-1.22.17-1.22.21-1.22,1.45s0,2.31,0,3.46c0,.4.08.55.51.52,1.66-.13,2.19-.7,2.35-2,.06-.41.26-.35.52-.38s.38.15.38.43c0,1.63,0,3.26,0,4.89,0,.21.07.48-.29.43s-.56.16-.62-.28c0-.14-.07-.27-.1-.41a2.08,2.08,0,0,0-2.4-1.68c-.23,0-.35.07-.34.33a33.74,33.74,0,0,0,.12,4,1.63,1.63,0,0,0,1.36,1.45c2.38.59,4.06-.32,4.7-2.62.1-.38.23-.51.61-.5s.3.39.3.62c0,1.08,0,2.16,0,3.24,0,.33-.06.41-.38.4-2.52-.06-5,0-7.58-.09-1.27-.05-2.54.06-3.82.08-.24,0-.54.11-.54-.34s.13-.41.46-.46c1.15-.16,1.53-.55,1.54-1.76q0-4.68,0-9.36C40.53,5.5,40.12,5.07,39,5c-.33,0-.45-.09-.45-.44s.3-.35.55-.35Z"/><path class="cls-1" d="M141.21,14.21h-1.88c-.24,0-.46,0-.57.29a6.87,6.87,0,0,0-.58,1.92c-.07.87.22,1.21,1.1,1.34l.29,0c.33,0,.34.24.35.5s-.19.33-.42.33h-4.39c-.19,0-.41,0-.38-.27s-.1-.46.22-.52c1.31-.23,1.8-1.24,2.23-2.3,1.48-3.67,3-7.33,4.41-11a.71.71,0,0,1,.78-.54.65.65,0,0,1,.72.5q2.08,5.43,4.21,10.85c.18.47.39.93.61,1.37a1.73,1.73,0,0,0,1.38,1c.37.05.47.22.46.57s-.34.31-.56.31c-2,0-4,0-6.05,0-.25,0-.55.11-.54-.35s.15-.48.51-.52c1.18-.14,1.35-.4,1-1.53-.54-2-.54-2-2.59-2Zm0-6.09c-.65,1.62-1.24,3.09-1.84,4.56-.18.42,0,.42.35.42.91,0,1.83,0,2.74,0,.51,0,.54-.13.37-.56C142.34,11.12,141.83,9.69,141.26,8.12Z"/><path class="cls-1" d="M78.24,4.15h3.18c.26,0,.52-.06.52.37s-.14.4-.46.44c-1.14.13-1.56.6-1.57,1.74q0,4.68,0,9.37c0,1.21.4,1.63,1.62,1.69.41,0,.39.21.4.49s-.12.4-.42.38c-2.14-.08-4.28-.12-6.42,0-.31,0-.44-.07-.41-.39s0-.43.34-.47c1.34-.15,1.62-.46,1.64-1.83s0-2.84,0-4.25c0-1.75,0-3.51-.07-5.26,0-1.06-.42-1.37-1.48-1.47-.33,0-.45-.09-.45-.45s.28-.35.54-.35Z"/><path class="cls-1" d="M187.88,23H38.59v-.11h149.3Z"/><path class="cls-1" d="M179.62,29l-.19-.07c-.24-.1-.7.19-.7-.21s.46-.21.72-.22.34-.13.41-.38a5.47,5.47,0,0,1,1.2-2.33,2,2,0,0,1,1.63-.77.73.73,0,0,1,.76.7.53.53,0,0,1-.32.58c-.4.15-.25-.25-.32-.4-.28-.56-.68-.63-1.1-.13a6.27,6.27,0,0,0-1.16,2.72h1c.17,0,.28,0,.27.24s-.12.18-.25.19h-.07c-1.08-.26-1.27.4-1.46,1.26-.3,1.35-.71,2.67-1.14,4a2,2,0,0,1-1.83,1.58.78.78,0,0,1-.8-.36c-.15-.25,0-.42.12-.58s.31-.07.48,0c.69.5,1,.46,1.19-.21C178.74,32.74,179.1,30.82,179.62,29Z"/><path class="cls-1" d="M123.48,29c-.5-.1-.71.43-1.24.45a2.53,2.53,0,0,1,1.42-1.17c.5-.14.69.06.53.54s-.27.74-.43,1.16c.33,0,.43-.29.58-.47a3.78,3.78,0,0,1,1.29-1.13c.29-.14.6-.25.88,0a.75.75,0,0,1,.16.85c-.26,1-.76,1.89-1.13,2.92.55,0,.73-.54,1.18-.64a2.08,2.08,0,0,1-1.6,1.37c-.43,0-.57-.14-.39-.56.37-.88.72-1.76,1-2.65.11-.29.47-.67.11-.89s-.56.24-.79.45a9,9,0,0,0-1.76,2.44c-.16.29-.32.58-.46.89s-.23.39-.48.3-.14-.37-.08-.55c.33-.94.68-1.88,1-2.82C123.39,29.37,123.43,29.22,123.48,29Z"/><path class="cls-1" d="M130.85,32.18c.56,0,.72-.56,1.19-.67a2,2,0,0,1-1.58,1.39c-.46,0-.6-.13-.4-.6.39-.89.75-1.8,1.1-2.71.1-.25.33-.6.06-.79s-.52.17-.71.35a11,11,0,0,0-2.15,3.1c-.07.12-.12.26-.18.39s-.27.35-.52.23-.08-.33,0-.48c.39-1.1.79-2.19,1.19-3.32-.51-.2-.7.41-1.1.38a1.88,1.88,0,0,1,1.5-1.17c.42,0,.37.3.3.57s-.19.44-.25.66-.24.37-.15.62c.38-.22.49-.65.81-.9s.57-.52.88-.73a.84.84,0,0,1,1-.11c.33.24.22.62.14.93A27,27,0,0,1,130.85,32.18Z"/><path class="cls-1" d="M160.07,32.2c.46-.05.66-.5,1.07-.68a1.93,1.93,0,0,1-1.69,1.39c-.52,0-.33-.39-.24-.63.35-.91.75-1.8,1.08-2.72.08-.23.37-.58,0-.78s-.45.18-.65.34a9.61,9.61,0,0,0-2.07,2.9c-.08.15-.14.31-.22.46s-.22.56-.56.4-.08-.4,0-.62c.33-.91.66-1.83,1-2.75,0-.14.09-.3.13-.46-.48-.15-.68.39-1.2.44a2.13,2.13,0,0,1,1.58-1.19c.34-.06.49.18.37.5s-.32.77-.5,1.21c.37,0,.49-.32.65-.52a3.76,3.76,0,0,1,1.18-1c.3-.16.62-.32.94-.05a.74.74,0,0,1,.16.92c-.28.74-.57,1.47-.85,2.2C160.18,31.74,160,31.93,160.07,32.2Z"/><path class="cls-1" d="M143.74,31.63a5.6,5.6,0,0,1-1.52,1.18c-.26.12-.53.19-.74,0a.62.62,0,0,1-.19-.65,5.68,5.68,0,0,1,2.35-3.4,1.11,1.11,0,0,1,1.21-.21c.31.18.31-.11.38-.24s.17-.36.42-.25.18.3.09.53c-.41,1.06-.8,2.13-1.19,3.2,0,.13-.22.25-.07.38s.31,0,.45-.08.42-.45.92-.54a3,3,0,0,1-1.55,1.34c-.52.17-.71-.06-.57-.61,0-.16.1-.32.15-.48a.22.22,0,0,0,.06-.29Zm-1.44.73a5.12,5.12,0,0,0,2.38-2.84.44.44,0,0,0-.21-.55.45.45,0,0,0-.53,0A4.07,4.07,0,0,0,142.3,32.36Z"/><path class="cls-1" d="M121,32.69h-2.89c1.15-.11,1.16-1.08,1.41-1.82.41-1.26.76-2.55,1.17-3.82.2-.61.37-1.17-.55-1.41h2.63c-1.24.23-1.19,1.33-1.48,2.17-.38,1.13-.7,2.27-1,3.41S119.9,32.25,121,32.69Z"/><path class="cls-1" d="M153.42,32.91a1.05,1.05,0,0,1-1.18-1.15,3.71,3.71,0,0,1,1.86-3.27,1.24,1.24,0,0,1,1.36,0A1.19,1.19,0,0,1,156,29.7a4.09,4.09,0,0,1-1.58,2.86A1.34,1.34,0,0,1,153.42,32.91Zm1.83-3.56c-.06-.23,0-.54-.35-.63a.67.67,0,0,0-.74.31,7,7,0,0,0-1.2,2.72.66.66,0,0,0,.27.75c.33.21.56,0,.74-.24A6.08,6.08,0,0,0,155.25,29.35Z"/><path class="cls-1" d="M136.46,29.79a3.82,3.82,0,0,1-1.72,2.87,1.34,1.34,0,0,1-1.55.07,1.3,1.3,0,0,1-.46-1.42,3.83,3.83,0,0,1,1.81-2.8C135.57,27.93,136.46,28.44,136.46,29.79Zm-.74-.44c0-.28,0-.55-.29-.63a.7.7,0,0,0-.77.28,6.07,6.07,0,0,0-1.17,2.72c-.06.31-.05.65.29.8s.6-.09.79-.33A6.45,6.45,0,0,0,135.72,29.35Z"/><path class="cls-1" d="M175.29,31.26a3.14,3.14,0,0,1-1.44,1.57.78.78,0,0,1-.83,0c-.25-.2-.1-.47,0-.73q.92-2.8,1.81-5.63c.1-.32.32-.65-.11-.94-.19-.13,0-.23.12-.28a2.75,2.75,0,0,1,1.24-.23c-.75,2.24-1.49,4.46-2.22,6.68-.06.2-.31.47-.07.62s.38-.19.56-.32S174.75,31.42,175.29,31.26Z"/><path class="cls-1" d="M138.48,29c-.49,0-.66.33-.91.53-.1.09-.19.27-.34.1s0-.22.1-.3a3.88,3.88,0,0,1,1.08-.93c.23-.1.44-.22.66,0a.61.61,0,0,1,.13.73c-.24.69-.53,1.37-.76,2.07-.11.36-.52.81,0,1.09s.72-.24,1-.51a3.16,3.16,0,0,0,1.11-2.82c0-.28-.07-.63.35-.64s.4.35.42.63a5,5,0,0,1-2.92,3.94c-.67.18-1,0-.9-.77a11.6,11.6,0,0,1,.87-2.63C138.38,29.34,138.42,29.21,138.48,29Z"/><path class="cls-1" d="M183.79,31.81a2,2,0,0,1-1.23,1.06,1,1,0,0,1-1.38-1.26,4.12,4.12,0,0,1,2.09-3.09c.47-.27,1-.48,1.38.14s-.06.95-.47,1.26a3.87,3.87,0,0,1-1.55.72.75.75,0,0,0-.61.82c0,.32,0,.66.3.82s.69-.05,1-.29C183.4,31.89,183.47,31.69,183.79,31.81Zm-1.46-1.47a2.49,2.49,0,0,0,1.59-1c.13-.16.21-.37.08-.52s-.4-.09-.57.05A3.85,3.85,0,0,0,182.33,30.34Z"/><path class="cls-1" d="M147.28,32.1a6.05,6.05,0,0,0,1.41-1,3.09,3.09,0,0,1-1.86,1.84c-.66.06-.48-.41-.39-.72.28-1,.61-1.9.92-2.85,0-.09,0-.18.09-.3l-.74,0a.75.75,0,0,1,0-.16,2,2,0,0,0,1.5-1.31c0-.13.2-.12.31-.08s.14.25.09.36c-.37.73,0,.85.62.78.13,0,.32,0,.31.17a.25.25,0,0,1-.35.25c-.95-.21-1.14.41-1.31,1.12A14.47,14.47,0,0,0,147.28,32.1Z"/><path class="cls-1" d="M165.77,29.17c-.34,0-.47.37-.79.4.05-.48,1.2-1.39,1.63-1.27s.24.41.14.64c-.37.95-.77,1.89-1.15,2.84a3.89,3.89,0,0,0-.12.39c.58,0,.8-.62,1.48-.75A3.35,3.35,0,0,1,165,32.89c-.41.09-.59-.1-.4-.54.36-.83.7-1.67,1-2.51C165.73,29.64,165.94,29.44,165.77,29.17Z"/><path class="cls-1" d="M150.7,29.13c-.47,0-.62.43-1,.44a2.27,2.27,0,0,1,1.58-1.28c.47.05.34.35.23.63-.43,1.06-.86,2.11-1.3,3.21.59.09.76-.57,1.24-.69a2.33,2.33,0,0,1-1.87,1.47c-.43-.09-.26-.35-.16-.6Z"/><path class="cls-1" d="M176.89,29l-.95.61a2.24,2.24,0,0,1,1.6-1.34c.43.06.31.36.21.6-.38.95-.77,1.89-1.15,2.83a.47.47,0,0,0-.06.44c.49,0,.74-.53,1.18-.74a2.36,2.36,0,0,1-1.88,1.48c-.43-.07-.32-.31-.21-.58.38-.89.76-1.79,1.12-2.69C176.82,29.46,177,29.31,176.89,29Z"/><path class="cls-1" d="M167.74,32.91a.63.63,0,0,1-.71-.4.45.45,0,0,1,.13-.52c.17-.19.3,0,.43.07.28.24.58.5.93.17s.18-.66,0-1-.29-.5-.41-.76a1.53,1.53,0,0,1,1.07-2.17.64.64,0,0,1,.8.44.4.4,0,0,1-.09.46c-.19.16-.29,0-.42-.09s-.47-.4-.76-.16-.19.56,0,.85a9.55,9.55,0,0,1,.48,1A1.54,1.54,0,0,1,167.74,32.91Z"/><path class="cls-1" d="M167.23,26.52c-.11.29-.14.64-.57.62s-.45-.15-.41-.45.18-.6.56-.62S167.21,26.27,167.23,26.52Z"/><path class="cls-1" d="M151.94,26.57c0,.36-.19.58-.58.57s-.32-.23-.31-.46.16-.6.55-.61S152,26.31,151.94,26.57Z"/><path class="cls-1" d="M178.24,26.52c-.11.27-.14.6-.55.62s-.46-.12-.43-.41a.62.62,0,0,1,.53-.66C178.06,26,178.22,26.23,178.24,26.52Z"/><path class="cls-2" d="M.77,19.87c0-6.1,0-12.2,0-18.3,0-.54.11-.71.69-.71q16.23,0,32.46,0c.52,0,.68.1.68.66q0,18.38,0,36.75c0,.52-.11.68-.67.68q-16.26,0-32.53,0c-.5,0-.63-.13-.63-.63C.78,32.17.77,26,.77,19.87ZM34,19.93c0-6,0-11.91,0-17.87,0-.54-.1-.73-.7-.73q-15.69,0-31.37,0c-.55,0-.68.13-.68.68q0,17.79,0,35.59c0,.62.13.79.78.79q15.6,0,31.22,0c.59,0,.76-.12.75-.74C34,31.74,34,25.84,34,19.93Z"/><path class="cls-3" d="M143.74,31.63l.2-.13a.22.22,0,0,1-.06.29Z"/><path class="cls-1" d="M34,19.93c0,5.91,0,11.81,0,17.72,0,.62-.16.74-.75.74q-15.61,0-31.22,0c-.65,0-.78-.17-.78-.79q0-17.79,0-35.59c0-.55.13-.68.68-.68q15.67,0,31.37,0c.6,0,.7.19.7.73C34,8,34,14,34,19.93Zm-5.51,5.36a29.2,29.2,0,0,0,3.19-2.16A4.39,4.39,0,0,0,32,16.48c-.27-.25-.82-.53-.79-.73.06-.38.58-.48,1-.6.1,0,.18-.1.16-.2a.2.2,0,0,0-.27-.16c-.25.09-.48.23-.73.31-.42.13-.84.42-1.3.25a10.87,10.87,0,0,0-5.54-.48c-4.22.66-7.88,2.26-10.29,6a.75.75,0,0,1-.63.39,28,28,0,0,1-5.26,0c-.53,0-.74-.34-.73-.86q0-3.39,0-6.78c0-.43.15-.51.54-.5,1.56,0,3.13.05,4.7.07s2.31.6,2.57,2.24c0,.29,0,.53.43.5s.4-.25.4-.55c0-1.9,0-3.8,0-5.69,0-.16.16-.5-.27-.41-.23,0-.49-.12-.56.38-.23,1.56-.86,2.18-2.22,2.21-1.71.05-3.42,0-5.13,0-.29,0-.44,0-.44-.39,0-2.06,0-4.13,0-6.2a.63.63,0,0,1,.72-.7c1.88,0,3.76,0,5.64.06,2.08.08,2.65.56,3.15,2.54.09.39.27.35.53.37s.35-.21.35-.46c0-1,0-2.11,0-3.16,0-.42-.14-.54-.54-.54H2.3c-.25,0-.49,0-.49.34s.23.31.44.32c1.46.14,2.2.32,2.21,2.48q0,6.45,0,12.91c0,1.68-.54,2.34-2,2.42-.21,0-.6-.1-.59.33s.42.29.66.29c3.1,0,6.21,0,9.32,0,.48,0,1.12-.17,1.41.07s-.05.9-.1,1.37a2.91,2.91,0,0,0,2.55,3.33,5.67,5.67,0,0,0,5.27-3A10.29,10.29,0,0,0,22,19.66a2.58,2.58,0,0,0-.41-1.87A9.08,9.08,0,0,1,21,20.57a13.85,13.85,0,0,1-1.25,2.64,8,8,0,0,1-3.51,3.19A1.87,1.87,0,0,1,13.53,25a5.12,5.12,0,0,1,0-1.87c.08-.46.26-.67.8-.64,1,.05,2.07,0,3.11,0,.42,0,.7,0,.82-.51.36-1.36.76-2.72,1.14-4.07.07-.25,0-.32-.26-.34a.67.67,0,0,0-.76.46,5.13,5.13,0,0,1-1.55,2.05,3.77,3.77,0,0,1-2.47.95,18.74,18.74,0,0,1,2-2.28,15.3,15.3,0,0,1,11.41-3.65,3.09,3.09,0,0,1,1.2.23c.22.11.49.24.53.45s-.27.3-.44.41a15.8,15.8,0,0,0-5,5.34A79.87,79.87,0,0,0,20.16,30a18.73,18.73,0,0,1-2.77,5.08,3.91,3.91,0,0,1-5.74.51,1.13,1.13,0,0,1,.35-2c.37-.16.77-.26,1.14-.43A1.67,1.67,0,0,0,12.52,30a1.79,1.79,0,0,0-1.84,1.13A3.85,3.85,0,0,0,13,36.77a7.85,7.85,0,0,0,6.55-1.35,12.08,12.08,0,0,0,4.34-5.78c1.05-2.7,1.59-5.55,2.45-8.31a11.08,11.08,0,0,1,3-4.84c.58-.56,1-.45,1.31.29a5,5,0,0,1,.26,2.68,9.72,9.72,0,0,1-1.83,4.69,1.73,1.73,0,0,1-1.71.82,4.16,4.16,0,0,0-1.22,0,.49.49,0,0,0-.47.61c.07.34.33.35.61.36a2.76,2.76,0,0,0,1-.35.85.85,0,0,1,1.23.5,3.61,3.61,0,0,1,.33,1.61,13.13,13.13,0,0,1-3.24,8.1c-.34.39-.67.83-1.26.6a1.37,1.37,0,0,1-.85-1.38,5,5,0,0,1,2.26-4.18c.11-.08.38-.08.23-.33s-.27-.13-.44,0a5.26,5.26,0,0,0-2.33,5.14,1.4,1.4,0,0,0,1.21,1.16,4.08,4.08,0,0,0,2.65-.41,8.29,8.29,0,0,0,4.3-5.16,4.57,4.57,0,0,0-1.53-5C29.46,25.87,29,25.62,28.53,25.29Z"/><path class="cls-2" d="M28.53,25.29c.48.33.93.58,1.31.9a4.57,4.57,0,0,1,1.53,5,8.29,8.29,0,0,1-4.3,5.16,4.08,4.08,0,0,1-2.65.41,1.4,1.4,0,0,1-1.21-1.16,5.26,5.26,0,0,1,2.33-5.14c.17-.09.33-.14.44,0s-.12.25-.23.33a5,5,0,0,0-2.26,4.18,1.37,1.37,0,0,0,.85,1.38c.59.23.92-.21,1.26-.6a13.13,13.13,0,0,0,3.24-8.1,3.61,3.61,0,0,0-.33-1.61.85.85,0,0,0-1.23-.5,2.76,2.76,0,0,1-1,.35c-.28,0-.54,0-.61-.36a.49.49,0,0,1,.47-.61,4.16,4.16,0,0,1,1.22,0,1.73,1.73,0,0,0,1.71-.82,9.72,9.72,0,0,0,1.83-4.69,5,5,0,0,0-.26-2.68c-.31-.74-.73-.85-1.31-.29a11.08,11.08,0,0,0-3,4.84c-.86,2.76-1.4,5.61-2.45,8.31a12.08,12.08,0,0,1-4.34,5.78A7.85,7.85,0,0,1,13,36.77a3.85,3.85,0,0,1-2.34-5.63A1.79,1.79,0,0,1,12.52,30a1.67,1.67,0,0,1,.62,3.18c-.37.17-.77.27-1.14.43a1.13,1.13,0,0,0-.35,2,3.91,3.91,0,0,0,5.74-.51A18.73,18.73,0,0,0,20.16,30a79.87,79.87,0,0,1,3.9-8.46,15.8,15.8,0,0,1,5-5.34c.17-.11.48-.18.44-.41s-.31-.34-.53-.45a3.09,3.09,0,0,0-1.2-.23A15.3,15.3,0,0,0,16.4,18.78a18.74,18.74,0,0,0-2,2.28,3.77,3.77,0,0,0,2.47-.95,5.13,5.13,0,0,0,1.55-2.05.67.67,0,0,1,.76-.46c.26,0,.33.09.26.34-.38,1.35-.78,2.71-1.14,4.07-.12.47-.4.52-.82.51-1,0-2.07,0-3.11,0-.54,0-.72.18-.8.64a5.12,5.12,0,0,0,0,1.87,1.87,1.87,0,0,0,2.69,1.4,8,8,0,0,0,3.51-3.19A13.85,13.85,0,0,0,21,20.57a9.08,9.08,0,0,0,.59-2.78A2.58,2.58,0,0,1,22,19.66a10.29,10.29,0,0,1-1.05,4.64,5.67,5.67,0,0,1-5.27,3,2.91,2.91,0,0,1-2.55-3.33c.05-.47.46-1.07.1-1.37s-.93-.06-1.41-.07c-3.11,0-6.22,0-9.32,0-.24,0-.64.22-.66-.29s.38-.32.59-.33c1.51-.08,2.05-.74,2.05-2.42q0-6.46,0-12.91c0-2.16-.75-2.34-2.21-2.48-.21,0-.44,0-.44-.32s.24-.34.49-.34H17.41c.4,0,.55.12.54.54C17.94,5,18,6,18,7.09c0,.25.05.5-.35.46s-.44,0-.53-.37C16.61,5.2,16,4.72,14,4.64c-1.88-.08-3.76,0-5.64-.06a.63.63,0,0,0-.72.7c0,2.07,0,4.14,0,6.2,0,.34.15.39.44.39,1.71,0,3.42,0,5.13,0,1.36,0,2-.65,2.22-2.21.07-.5.33-.33.56-.38.43-.09.27.25.27.41,0,1.89,0,3.79,0,5.69,0,.3,0,.52-.4.55s-.39-.21-.43-.5c-.26-1.64-.93-2.22-2.57-2.24s-3.14,0-4.7-.07c-.39,0-.54.07-.54.5q0,3.39,0,6.78c0,.52.2.81.73.86a28,28,0,0,0,5.26,0,.75.75,0,0,0,.63-.39c2.41-3.74,6.07-5.34,10.29-6a10.87,10.87,0,0,1,5.54.48c.46.17.88-.12,1.3-.25.25-.08.48-.22.73-.31a.2.2,0,0,1,.27.16c0,.1-.06.17-.16.2-.39.12-.91.22-1,.6,0,.2.52.48.79.73a4.39,4.39,0,0,1-.28,6.65A29.2,29.2,0,0,1,28.53,25.29Z"/></g></g></svg>