<svg height="40" xmlns="http://www.w3.org/2000/svg" viewBox="0 0 182.55 38.34"><defs><style>.cls-1{fill:#fab91a;}.cls-2{fill:#100a04;}.cls-3{fill:#f7f6f6;}</style></defs><g id="Layer_2" data-name="Layer 2"><g id="Layer_1-2" data-name="Layer 1"><path class="cls-1" d="M.16,0H141.44V38.18l-.7,0H.94c-.62,0-.8-.12-.8-.77Q.19,18.73.16,0Zm52.6,22.78a2,2,0,0,1-.08-.36c-.47-3.78-1-7.56-1.39-11.34,0-.44-.23-.5-.6-.5-1.73,0-3.46,0-5.2,0-.45,0-.56.15-.56.58,0,2.42,0,4.84,0,7.27,0,3.2,0,6.4,0,9.6,0,.44.12.6.57.58a15.43,15.43,0,0,1,2.15,0c.6.05.73-.17.73-.74,0-4,0-8,0-11.94,0-.2-.09-.44.18-.69.28,1.72.56,3.35.82,5,.41,2.63.83,5.27,1.22,7.91,0,.36.16.49.55.48q1.48,0,3,0c.4,0,.5-.16.56-.5Q55.83,21.46,57,14.81c0-.18,0-.4.21-.58,0,1.3,0,2.54,0,3.78,0,3.32-.05,6.65-.11,10,0,.52.16.65.64.63.87,0,1.74,0,2.6,0,.35,0,.47-.08.47-.45q0-8.57,0-17.13c0-.32-.08-.45-.42-.44h-5.2c-.35,0-.46.11-.51.46q-.69,4.88-1.42,9.74A4.15,4.15,0,0,1,52.76,22.79Zm24.12-7.37c.32.08.32.27.36.42.15.7.28,1.4.43,2.1.71,3.31,1.44,6.62,2.13,9.93.12.57.34.78,1,.75,1.35-.05,2.7,0,4.06,0,.51,0,.63-.16.63-.64q0-8.48,0-16.94c0-.38-.15-.47-.49-.46-.74,0-1.48,0-2.22,0-.52,0-.71.12-.7.7,0,2.93,0,5.86,0,8.79v3c-.36-1.24-.62-2.49-.86-3.74-.53-2.75-1.08-5.49-1.72-8.21-.07-.29-.09-.57-.53-.57-1.67,0-3.33,0-5,0-.31,0-.45.06-.45.42q0,8.56,0,17.13c0,.36.09.49.46.47.74,0,1.48,0,2.22,0,.55,0,.71-.11.71-.69,0-3.92,0-7.84,0-11.76ZM105,18.85a11.83,11.83,0,0,0,1.07-.54,3.1,3.1,0,0,0,1.76-2.85,5.33,5.33,0,0,1,0-1.13c.26-1.58-1.59-3.47-3.07-3.63-2.44-.27-4.89-.14-7.34-.19-.39,0-.37.24-.37.51,0,5.7,0,11.41,0,17.12,0,.42.17.48.53.47,1,0,2,0,3,0,.56,0,.76-.12.74-.72,0-2.3,0-4.59,0-6.89,0-.47.13-.62.6-.63,1.27,0,1.76.43,1.77,1.72,0,1.81,0,3.62,0,5.43,0,.93.17,1.07,1.07,1.08h3c.15,0,.34.08.47-.14a2.09,2.09,0,0,1-.38-1.46c0-1.61,0-3.21,0-4.81,0-2-.73-3-2.63-3.25A1,1,0,0,1,105,18.85Zm15.5.63v2.46c0,.84,0,1.69,0,2.53a4.5,4.5,0,0,0,3.64,4.47,9.59,9.59,0,0,0,2.78.07c2.68-.3,3.81-1.33,4.29-4a22.91,22.91,0,0,0,.06-3.21c0-.34-.24-.28-.44-.28h-2.92c-1,0-1,0-1,1a14.84,14.84,0,0,1-.14,2.83c-.13.61-.6.73-1.11.74s-.7-.35-.75-.78a11.77,11.77,0,0,1-.12-1.32c0-3,0-5.94,0-8.91a4.81,4.81,0,0,1,.12-1.26c.11-.4.34-.71.77-.71a1,1,0,0,1,1.07.63,2.56,2.56,0,0,1,.14.87c0,.69,0,1.39,0,2.08,0,.33.11.45.44.45,1.16,0,2.33,0,3.49,0,.31,0,.41-.11.4-.41a29.18,29.18,0,0,0-.09-3,3.84,3.84,0,0,0-2.91-3.28,10.82,10.82,0,0,0-3.72-.14c-2.67.36-4,2-4,4.68ZM70.75,28.6a10.15,10.15,0,0,1,1.46,0c.67.09.66-.24.59-.73q-.57-4.29-1.12-8.58c-.36-2.73-.73-5.46-1.08-8.19,0-.37-.18-.5-.56-.49H65.1c-.38,0-.48.13-.54.49-.23,1.56-.53,3.11-.79,4.67-.68,4.07-1.34,8.14-2,12.2-.1.53,0,.65.54.63.87,0,1.73,0,2.6,0,.32,0,.44-.1.47-.42.08-.73.2-1.46.29-2.19.23-1.87.23-1.86,2.13-1.81.39,0,.5.14.52.51.06.93.16,1.85.25,2.77.1,1.13.1,1.14,1.21,1.13Zm47,0c.5,0,1,0,1.52,0s.65-.18.58-.69q-1.14-8.41-2.23-16.83c0-.4-.19-.48-.54-.47-1.59,0-3.17,0-4.76,0-.55,0-.7.18-.78.69q-1,6.07-2,12.13c-.26,1.55-.51,3.1-.79,4.65-.09.45.09.53.49.52a21.34,21.34,0,0,1,2.4,0c.63.06.73-.24.79-.73q.18-1.53.42-3.06c0-.25,0-.63.43-.63h1.65c.22,0,.31.05.34.32.09,1.19.24,2.37.34,3.56,0,.38.14.57.57.54S117.21,28.61,117.74,28.61ZM15.55,19.49q0,6.36,0,12.71c0,.47.08.66.62.66q12.68,0,25.36,0c.51,0,.63-.16.63-.64q0-12.64,0-25.3c0-.53-.16-.65-.68-.65q-12.61,0-25.24,0c-.55,0-.7.14-.7.7C15.56,11.14,15.54,15.32,15.55,19.49ZM93.41,21c0-2.34,0-4.68,0-7,0-.49.13-.63.61-.59s1.18,0,1.77,0,.57-.15.55-.58a17.4,17.4,0,0,1,0-1.77c0-.33,0-.49-.44-.49H86.56c-.3,0-.41.1-.4.41,0,.67,0,1.34,0,2,0,.36.15.41.45.4.63,0,1.27,0,1.9,0,.48,0,.66.09.65.61,0,1.41,0,2.83,0,4.24,0,3.24,0,6.49,0,9.73,0,.51.15.65.64.63,1,0,2-.05,2.92,0,.56,0,.75-.11.74-.71C93.39,25.61,93.41,23.31,93.41,21Z"/><path class="cls-2" d="M141.45,38.18V0H182c.43,0,.52.08.52.52q0,18.84,0,37.69H142.27C142,38.21,141.72,38.19,141.45,38.18Zm5.25-19.85h0c0,1.9,0,3.8,0,5.69a3.67,3.67,0,0,0,4,3.94,1.67,1.67,0,0,0,1.28-.5c.89-.84,1.8-1.66,2.73-2.45a2.76,2.76,0,0,0,1-2.15c0-.85,0-1.69,0-2.53,0-.4-.17-.45-.49-.44-.85,0-1.69,0-2.54,0-.46,0-.56.16-.55.59,0,1,0,2.06,0,3.09,0,.75-.31,1.16-.86,1.17s-.9-.38-.9-1.13c0-3.54,0-7.08,0-10.62,0-.73.32-1.1.85-1.11s.89.39.9,1.13c0,1.07,0,2.15,0,3.22,0,.4.12.51.5.5.87,0,1.73,0,2.6,0,.33,0,.49,0,.48-.44,0-1.22,0-2.44,0-3.67A3.65,3.65,0,0,0,153,8.9a6.55,6.55,0,0,0-3.2-.11,3.63,3.63,0,0,0-3.11,3.92C146.69,14.59,146.7,16.46,146.7,18.33Zm26.23,2c0-2.36,0-4.73,0-7.09,0-.43.1-.6.56-.57s1,0,1.52,0c.33,0,.44-.09.43-.43,0-.95,0-1.9,0-2.84,0-.29-.06-.42-.38-.42h-8.18c-.27,0-.37.1-.36.37,0,.51,0,1,0,1.52s-.25,1.35.11,1.69,1.13.13,1.71.09.66.16.66.67c0,3.77,0,7.54,0,11.32,0,.24-.05.51.17.71.87.8,1.73,1.61,2.6,2.4a1.09,1.09,0,0,0,1,.12c.32-.08.15-.44.15-.67Q172.94,23.78,172.93,20.34Zm-5.42,3.51c-.21-1-.39-1.82-.56-2.63q-1.24-5.84-2.47-11.66c-.08-.39-.22-.55-.65-.54-1.19,0-2.37.06-3.55,0-.68,0-.93.16-1.06.84-.84,4.35-1.74,8.69-2.63,13,0,.08-.09.15,0,.22a.24.24,0,0,0,.29,0,2.28,2.28,0,0,0,.33-.29q2.18-1.93,4.34-3.88c.27-.25.42-.29.71,0,1,1,2.06,1.94,3.09,2.9Zm3,4.06-.82-.76q-3.68-3.42-7.34-6.85c-.33-.31-.52-.35-.87,0-1.74,1.6-3.51,3.16-5.26,4.74L153,27.91Z"/><path class="cls-3" d="M141.45,38.18c.27,0,.54,0,.82,0h40.26s.07.13-.06.13-.34,0-.51,0H0Q0,19.45,0,.58C0,.4-.11.15.16,0q0,18.72,0,37.44c0,.65.18.77.8.77H140.75Z"/><path class="cls-2" d="M52.76,22.79a4.15,4.15,0,0,0,.49-2q.73-4.86,1.42-9.74c0-.35.16-.46.51-.46h5.2c.34,0,.42.12.42.44q0,8.57,0,17.13c0,.37-.12.46-.47.45-.86,0-1.73,0-2.6,0-.48,0-.65-.11-.64-.63.06-3.33.08-6.66.11-10,0-1.24,0-2.48,0-3.78-.22.18-.18.4-.21.58q-1.17,6.66-2.32,13.31c-.06.34-.16.51-.56.5q-1.48,0-3,0c-.39,0-.5-.12-.55-.48-.39-2.64-.81-5.28-1.22-7.91-.26-1.63-.54-3.26-.82-5-.27.25-.18.49-.18.69,0,4,0,8,0,11.94,0,.57-.13.79-.73.74a15.43,15.43,0,0,0-2.15,0c-.45,0-.57-.14-.57-.58,0-3.2,0-6.4,0-9.6,0-2.43,0-4.85,0-7.27,0-.43.11-.59.56-.58,1.74,0,3.47,0,5.2,0,.37,0,.55.06.6.5.44,3.78.92,7.56,1.39,11.34A2,2,0,0,0,52.76,22.79Z"/><path class="cls-2" d="M76.88,15.42v.75c0,3.92,0,7.84,0,11.76,0,.58-.16.72-.71.69-.74-.05-1.48,0-2.22,0-.37,0-.46-.11-.46-.47q0-8.57,0-17.13c0-.36.14-.42.45-.42,1.67,0,3.33,0,5,0,.44,0,.46.28.53.57.64,2.72,1.19,5.46,1.72,8.21.24,1.25.5,2.5.86,3.74v-3c0-2.93,0-5.86,0-8.79,0-.58.18-.72.7-.7.74,0,1.48,0,2.22,0,.34,0,.49.08.49.46q0,8.48,0,16.94c0,.48-.12.65-.63.64-1.36,0-2.71-.05-4.06,0-.62,0-.84-.18-1-.75-.69-3.31-1.42-6.62-2.13-9.93-.15-.7-.28-1.4-.43-2.1C77.2,15.69,77.2,15.5,76.88,15.42Z"/><path class="cls-2" d="M105,18.85a1,1,0,0,0,.22.09c1.9.27,2.58,1.29,2.63,3.25,0,1.6,0,3.2,0,4.81a2.09,2.09,0,0,0,.38,1.46c-.13.22-.32.14-.47.14h-3c-.9,0-1.06-.15-1.07-1.08,0-1.81,0-3.62,0-5.43,0-1.29-.5-1.75-1.77-1.72-.47,0-.61.16-.6.63,0,2.3,0,4.59,0,6.89,0,.6-.18.74-.74.72-1-.05-2,0-3,0-.36,0-.53-.05-.53-.47,0-5.71,0-11.42,0-17.12,0-.27,0-.51.37-.51,2.45.05,4.9-.08,7.34.19,1.48.16,3.33,2.05,3.07,3.63a5.33,5.33,0,0,0,0,1.13,3.1,3.1,0,0,1-1.76,2.85A11.83,11.83,0,0,1,105,18.85Zm-3.58-3.38h0v1.89c0,.17,0,.32.2.4a1.41,1.41,0,0,0,1.9-1.33c0-.56,0-1.13,0-1.7,0-1.18-.48-1.61-1.68-1.58-.32,0-.44.1-.43.43C101.44,14.21,101.43,14.84,101.43,15.47Z"/><path class="cls-2" d="M120.51,19.48V15c0-2.71,1.36-4.32,4-4.68a10.82,10.82,0,0,1,3.72.14,3.84,3.84,0,0,1,2.91,3.28,29.18,29.18,0,0,1,.09,3c0,.3-.09.41-.4.41-1.16,0-2.33,0-3.49,0-.33,0-.44-.12-.44-.45,0-.69,0-1.39,0-2.08a2.56,2.56,0,0,0-.14-.87,1,1,0,0,0-1.07-.63c-.43,0-.66.31-.77.71a4.81,4.81,0,0,0-.12,1.26c0,3,0,5.94,0,8.91a11.77,11.77,0,0,0,.12,1.32c0,.43.26.78.75.78s1-.13,1.11-.74a14.84,14.84,0,0,0,.14-2.83c0-.95,0-1,1-1h2.92c.2,0,.45-.06.44.28a22.91,22.91,0,0,1-.06,3.21c-.48,2.66-1.61,3.69-4.29,4a9.59,9.59,0,0,1-2.78-.07,4.5,4.5,0,0,1-3.64-4.47c0-.84,0-1.69,0-2.53Z"/><path class="cls-2" d="M70.75,28.6h-1c-1.11,0-1.11,0-1.21-1.13-.09-.92-.19-1.84-.25-2.77,0-.37-.13-.5-.52-.51-1.9-.05-1.9-.06-2.13,1.81-.09.73-.21,1.46-.29,2.19,0,.32-.15.43-.47.42-.87,0-1.73,0-2.6,0-.5,0-.64-.1-.54-.63.7-4.06,1.36-8.13,2-12.2.26-1.56.56-3.11.79-4.67.06-.36.16-.5.54-.49H70c.38,0,.52.12.56.49.35,2.73.72,5.46,1.08,8.19s.74,5.72,1.12,8.58c.07.49.08.82-.59.73A10.15,10.15,0,0,0,70.75,28.6Zm-3.6-14c-.28,2.13-.54,4.23-.81,6.33,0,.12-.09.3,0,.34a2.51,2.51,0,0,0,1.36,0c.28-.07.13-.44.11-.67-.15-1.8-.32-3.6-.48-5.39A.92.92,0,0,0,67.15,14.6Z"/><path class="cls-2" d="M117.74,28.61c-.53,0-1.06,0-1.59,0s-.53-.16-.57-.54c-.1-1.19-.25-2.37-.34-3.56,0-.27-.12-.32-.34-.32h-1.65c-.45,0-.39.38-.43.63q-.24,1.53-.42,3.06c-.06.49-.16.79-.79.73a21.34,21.34,0,0,0-2.4,0c-.4,0-.58-.07-.49-.52.28-1.55.53-3.1.79-4.65q1-6.06,2-12.13c.08-.51.23-.71.78-.69,1.59,0,3.17,0,4.76,0,.35,0,.49.07.54.47q1.1,8.42,2.23,16.83c.07.51,0,.74-.58.69S118.24,28.61,117.74,28.61Zm-3.37-13.87c-.26.06-.29.27-.31.49l-.63,5.07c-.13,1-.13,1,.92,1,.44,0,.58-.1.54-.57C114.7,18.76,114.54,16.75,114.37,14.74Z"/><path class="cls-2" d="M15.54,19.49c0-4.17,0-8.35,0-12.52,0-.56.15-.7.7-.7q12.63,0,25.24,0c.52,0,.68.12.68.65q0,12.64,0,25.3c0,.48-.12.64-.63.64q-12.68,0-25.36,0c-.54,0-.63-.19-.62-.66Q15.56,25.84,15.54,19.49Zm25.71.13c0-3.92,0-7.84,0-11.76,0-.57-.16-.69-.71-.69q-11.73,0-23.46,0c-.61,0-.71.2-.71.74q0,11.7,0,23.4c0,.56.15.69.7.69q11.73,0,23.46,0c.62,0,.71-.22.71-.76C41.24,27.37,41.25,23.49,41.25,19.62Z"/><path class="cls-2" d="M93.41,21c0,2.3,0,4.6,0,6.9,0,.6-.18.73-.74.71-1-.05-2,0-2.92,0-.49,0-.64-.12-.64-.63,0-3.24,0-6.49,0-9.73,0-1.41,0-2.83,0-4.24,0-.52-.17-.64-.65-.61-.63,0-1.27,0-1.9,0-.3,0-.47,0-.45-.4,0-.68,0-1.35,0-2,0-.31.1-.41.4-.41h9.32c.39,0,.46.16.44.49a17.4,17.4,0,0,0,0,1.77c0,.43-.09.61-.55.58s-1.19,0-1.77,0-.61.1-.61.59C93.43,16.33,93.41,18.67,93.41,21Z"/><path class="cls-3" d="M146.7,18.33c0-1.87,0-3.74,0-5.62a3.63,3.63,0,0,1,3.11-3.92,6.55,6.55,0,0,1,3.2.11,3.65,3.65,0,0,1,2.66,3.71c0,1.23,0,2.45,0,3.67,0,.4-.15.44-.48.44-.87,0-1.73,0-2.6,0-.38,0-.51-.1-.5-.5,0-1.07,0-2.15,0-3.22,0-.74-.33-1.13-.9-1.13s-.85.38-.85,1.11c0,3.54,0,7.08,0,10.62,0,.75.35,1.15.9,1.13s.86-.42.86-1.17c0-1,0-2.06,0-3.09,0-.43.09-.61.55-.59.85,0,1.69,0,2.54,0,.32,0,.5,0,.49.44,0,.84,0,1.68,0,2.53a2.76,2.76,0,0,1-1,2.15c-.93.79-1.84,1.61-2.73,2.45a1.67,1.67,0,0,1-1.28.5,3.67,3.67,0,0,1-4-3.94c0-1.89,0-3.79,0-5.69Z"/><path class="cls-3" d="M172.93,20.34q0,3.43,0,6.89c0,.23.17.59-.15.67a1.09,1.09,0,0,1-1-.12c-.87-.79-1.73-1.6-2.6-2.4-.22-.2-.16-.47-.17-.71,0-3.78,0-7.55,0-11.32,0-.51-.11-.71-.66-.67s-1.35.26-1.71-.09-.09-1.11-.11-1.69,0-1,0-1.52c0-.27.09-.37.36-.37h8.18c.32,0,.39.13.38.42,0,.94,0,1.89,0,2.84,0,.34-.1.44-.43.43-.51,0-1,0-1.52,0s-.56.14-.56.57C172.94,15.61,172.93,18,172.93,20.34Z"/><path class="cls-3" d="M167.51,23.85l-2.17-2c-1-1-2.08-1.92-3.09-2.9-.29-.28-.44-.24-.71,0q-2.16,2-4.34,3.88a2.28,2.28,0,0,1-.33.29.24.24,0,0,1-.29,0c-.08-.07,0-.14,0-.22.89-4.35,1.79-8.69,2.63-13,.13-.68.38-.88,1.06-.84,1.18.06,2.36,0,3.55,0,.43,0,.57.15.65.54q1.23,5.83,2.47,11.66C167.12,22,167.3,22.85,167.51,23.85ZM162,12.69h-.15c-.22,1.26-.44,2.51-.65,3.76s-.22,1.25,1.06,1.29c.48,0,.63-.1.54-.59C162.48,15.66,162.23,14.17,162,12.69Z"/><path class="cls-1" d="M170.5,27.91H153L156.21,25c1.75-1.58,3.52-3.14,5.26-4.74.35-.33.54-.29.87,0q3.66,3.43,7.34,6.85Z"/><path class="cls-1" d="M101.43,15.47c0-.63,0-1.26,0-1.89,0-.33.11-.42.43-.43,1.2,0,1.67.4,1.68,1.58,0,.57,0,1.14,0,1.7a1.41,1.41,0,0,1-1.9,1.33c-.22-.08-.2-.23-.2-.4V15.47Z"/><path class="cls-1" d="M67.15,14.6a.92.92,0,0,1,.23.62c.16,1.79.33,3.59.48,5.39,0,.23.17.6-.11.67a2.51,2.51,0,0,1-1.36,0c-.14,0-.06-.22,0-.34C66.61,18.83,66.87,16.73,67.15,14.6Z"/><path class="cls-1" d="M114.37,14.74c.17,2,.33,4,.52,6,0,.47-.1.57-.54.57-1,0-1,0-.92-1l.63-5.07C114.08,15,114.11,14.8,114.37,14.74Z"/><path class="cls-1" d="M41.25,19.62c0,3.87,0,7.75,0,11.63,0,.54-.09.76-.71.76q-11.73,0-23.46,0c-.55,0-.7-.13-.7-.69q0-11.7,0-23.4c0-.54.1-.75.71-.74q11.73,0,23.46,0c.55,0,.71.12.71.69C41.24,11.78,41.25,15.7,41.25,19.62Zm-3.24-3h0c0-.86,0-1.72,0-2.59a1.86,1.86,0,0,0-.41-1.22Q36.27,11.13,35,9.37c-.33-.43-.71-.64-1.19-.32s-.36.74-.06,1.15c.7,1,1.38,2,2.09,3a1.8,1.8,0,0,1,.38,1.16c0,1.18,0,2.36,0,3.54,0,.29.06.65-.37.66s-.39-.34-.39-.63c0-1.29,0-2.57,0-3.86,0-.52-.21-.78-.75-.79s-.75.28-.75.79a12.89,12.89,0,0,0,0,1.76,3.93,3.93,0,0,1-1.48,3.83,2.34,2.34,0,0,0-.81,1.86c0,1.26,0,2.53,0,3.79,0,.42.19.49.54.48.87,0,1.73,0,2.6,0,.61,0,.91-.09.8-.77a4.09,4.09,0,0,1,1.27-3.77A3.64,3.64,0,0,0,38,18,8.42,8.42,0,0,1,38,16.66Zm-15.89-.6V18c0,.27,0,.6-.35.62s-.42-.33-.42-.63c0-1.2,0-2.4,0-3.6a1.76,1.76,0,0,1,.36-1.11c.72-1,1.42-2,2.14-3.05.27-.39.41-.77,0-1.1a.76.76,0,0,0-1.16.19L19.83,13a1.49,1.49,0,0,0-.28.94c0,1.6,0,3.21,0,4.81a2.35,2.35,0,0,0,.62,1.83c1.25,1.34,2.21,2.8,1.8,4.77-.06.31.07.45.42.44,1,0,2,0,3,0,.37,0,.47-.15.46-.49,0-.59,0-1.18,0-1.77,0-3.45.19-2.73-2-5.2a1.06,1.06,0,0,1-.28-.79c0-1.14,0-2.27,0-3.41,0-.56-.34-1-.75-1a.82.82,0,0,0-.74.92C22.13,14.76,22.12,15.41,22.12,16.06Zm8.26-3.52c0,1.59,0,3.09,0,4.58,0,.7.48.47.83.5s.6,0,.59-.46c0-2.09,0-4.18,0-6.26,0-.14.06-.38-.11-.38a17.2,17.2,0,0,0-1.9,0c-.19,0-.16.27-.18.43-.15.89-.27,1.79-.44,2.68a2.63,2.63,0,0,1-.28,1.21,12.28,12.28,0,0,1-.55-2.72c-.26-1.66-.23-1.65-1.9-1.65-.45,0-.56.12-.56.56,0,2,0,4,0,6,0,.49.16.58.61.6s.73-.13.71-.7c-.05-1.12,0-2.24,0-3.39.27,0,.26.19.28.3.2,1.06.45,2.12.56,3.19.09.83.64.51,1.06.58s.59-.2.64-.61C29.92,15.55,30.15,14.09,30.38,12.54ZM18.9,29.05l.13,0c.08.28.16.56.22.84a.38.38,0,0,0,.43.35c.27,0,.36-.11.43-.35a3.62,3.62,0,0,1,.41-1.24c0,.4,0,.75,0,1.11s0,.48.39.48.34-.29.34-.52c0-.53-.05-1.06,0-1.58s-.17-.79-.77-.73a.49.49,0,0,0-.51.42,2.78,2.78,0,0,1-.34,1c-.1-.4-.18-.74-.27-1.07-.16-.57-.63-.28-1-.31s-.29.27-.3.49c0,.6,0,1.21,0,1.82,0,.27,0,.49.37.49s.43-.22.42-.52S18.9,29.28,18.9,29.05Zm20.72,1.19c-.14-.27-.22-.48-.34-.68s-.39-.54,0-.94a.71.71,0,0,0-.52-1.13c-.52-.06-1,0-1.58,0-.3,0-.33.18-.33.42v1.83c0,.3-.05.57.43.58s.55-.16.52-.56c0-.16-.1-.38.17-.5.27.24.34.61.57.88S39.19,30.2,39.62,30.24Zm-14.1-1.4c.33.48.58.8.79,1.16s.55.27.85.23.17-.34.18-.53c0-.59,0-1.18,0-1.77,0-.33-.08-.5-.46-.49s-.41.19-.39.48,0,.49,0,.73a3,3,0,0,1-.79-.91c-.2-.35-.52-.33-.83-.28s-.22.36-.22.57c0,.57,0,1.14,0,1.71,0,.36.06.53.48.53s.4-.26.39-.54Zm8.18-.18h0V29c0,.87.32,1.22,1.28,1.26s1.37-.37,1.4-1.17c0-.4,0-.8,0-1.2s0-.5-.44-.5-.52.15-.49.52,0,.71,0,1.07-.07.57-.43.56-.42-.29-.41-.59,0-.67,0-1-.1-.52-.5-.52-.44.2-.42.51S33.7,28.43,33.7,28.66Zm-1.81,1.63a1.29,1.29,0,0,0,1.43-1.45,1.27,1.27,0,0,0-1.44-1.42,1.27,1.27,0,0,0-1.43,1.43A1.29,1.29,0,0,0,31.89,30.29Zm-2.31-1.81c.1-.29.64,0,.47-.48s-.76-.6-1.27-.58-.9.14-1,.69a.7.7,0,0,0,.52.86,6.14,6.14,0,0,1,.73.22c.15.06.34.16.2.37a.29.29,0,0,1-.44.08c-.12-.08-.18-.23-.3-.31a.63.63,0,0,0-.71,0c-.24.17,0,.4.07.55.4.52,1,.44,1.51.37a.88.88,0,0,0,.8-.7C30.31,29,30,28.72,29.58,28.48Zm-6.65-1.05c-.34-.09-.54.14-.67.53-.19.58-.43,1.14-.62,1.72-.06.16-.33.4-.06.53a.66.66,0,0,0,.77-.07.73.73,0,0,1,1.2,0,.53.53,0,0,0,.59.1c.27-.09.17-.38.11-.54-.22-.69-.5-1.36-.74-2C23.42,27.39,23.22,27.47,22.93,27.43Z"/><path class="cls-2" d="M162,12.69c.26,1.48.51,3,.8,4.45.09.49-.06.6-.54.59-1.28,0-1.28,0-1.06-1.29s.43-2.5.65-3.76Z"/><path class="cls-2" d="M38,16.66A8.42,8.42,0,0,0,38,18a3.64,3.64,0,0,1-1.18,3.28A4.09,4.09,0,0,0,35.57,25c.11.68-.19.81-.8.77-.87,0-1.73,0-2.6,0-.35,0-.54-.06-.54-.48,0-1.26,0-2.53,0-3.79a2.34,2.34,0,0,1,.81-1.86,3.93,3.93,0,0,0,1.48-3.83,12.89,12.89,0,0,1,0-1.76c0-.51.21-.8.75-.79s.75.27.75.79c0,1.29,0,2.57,0,3.86,0,.29-.06.65.39.63s.37-.37.37-.66c0-1.18,0-2.36,0-3.54a1.8,1.8,0,0,0-.38-1.16c-.71-1-1.39-2-2.09-3-.3-.41-.42-.82.06-1.15s.86-.11,1.19.32q1.3,1.76,2.64,3.48A1.86,1.86,0,0,1,38,14.07c0,.87,0,1.73,0,2.59Z"/><path class="cls-2" d="M22.12,16.06c0-.65,0-1.3,0-2a.82.82,0,0,1,.74-.92c.41-.06.74.4.75,1,0,1.14,0,2.27,0,3.41a1.06,1.06,0,0,0,.28.79c2.18,2.47,2,1.75,2,5.2,0,.59,0,1.18,0,1.77,0,.34-.09.5-.46.49-1,0-2,0-3,0-.35,0-.48-.13-.42-.44.41-2-.55-3.43-1.8-4.77a2.35,2.35,0,0,1-.62-1.83c0-1.6,0-3.21,0-4.81a1.49,1.49,0,0,1,.28-.94l2.82-3.73a.76.76,0,0,1,1.16-.19c.44.33.3.71,0,1.1-.72,1-1.42,2-2.14,3.05a1.76,1.76,0,0,0-.36,1.11c0,1.2,0,2.4,0,3.6,0,.3,0,.65.42.63s.35-.35.35-.62Z"/><path class="cls-2" d="M30.38,12.54c-.23,1.55-.46,3-.67,4.47-.05.41-.14.7-.64.61s-1,.25-1.06-.58c-.11-1.07-.36-2.13-.56-3.19,0-.11,0-.25-.28-.3,0,1.15,0,2.27,0,3.39,0,.57-.15.72-.71.7s-.62-.11-.61-.6c0-2,0-4,0-6,0-.44.11-.56.56-.56,1.67,0,1.64,0,1.9,1.65a12.28,12.28,0,0,0,.55,2.72,2.63,2.63,0,0,0,.28-1.21c.17-.89.29-1.79.44-2.68,0-.16,0-.42.18-.43a17.2,17.2,0,0,1,1.9,0c.17,0,.11.24.11.38,0,2.08,0,4.17,0,6.26,0,.5-.27.49-.59.46s-.84.2-.83-.5C30.4,15.63,30.38,14.13,30.38,12.54Z"/><path class="cls-2" d="M18.9,29.05c0,.23,0,.46,0,.69s0,.52-.42.52-.38-.22-.37-.49c0-.61,0-1.22,0-1.82,0-.22-.07-.54.3-.49s.8-.26,1,.31c.09.33.17.67.27,1.07a2.78,2.78,0,0,0,.34-1,.49.49,0,0,1,.51-.42c.6-.06.84.1.77.73s0,1.05,0,1.58c0,.23.08.51-.34.52s-.4-.2-.39-.48,0-.71,0-1.11a3.62,3.62,0,0,0-.41,1.24c-.07.24-.16.35-.43.35a.38.38,0,0,1-.43-.35c-.06-.28-.14-.56-.22-.84Z"/><path class="cls-2" d="M39.62,30.24c-.43,0-.81.18-1.09-.15s-.3-.64-.57-.88c-.27.12-.18.34-.17.5,0,.4-.08.56-.52.56s-.43-.28-.43-.58V27.86c0-.24,0-.42.33-.42.53,0,1.06,0,1.58,0a.71.71,0,0,1,.52,1.13c-.38.4-.17.63,0,.94S39.48,30,39.62,30.24Zm-1.46-1.68c.09,0,.28,0,.28-.25s-.19-.23-.35-.24-.32.05-.3.28S37.91,28.6,38.16,28.56Z"/><path class="cls-2" d="M25.52,28.84v.89c0,.28.05.54-.39.54s-.5-.17-.48-.53c0-.57,0-1.14,0-1.71,0-.21-.12-.51.22-.57s.63-.07.83.28a3,3,0,0,0,.79.91c0-.24,0-.49,0-.73s0-.48.39-.48.47.16.46.49c0,.59,0,1.18,0,1.77,0,.19.12.48-.18.53s-.63.13-.85-.23S25.85,29.32,25.52,28.84Z"/><path class="cls-2" d="M33.7,28.66c0-.23,0-.46,0-.69s0-.52.42-.51.52.16.5.52,0,.68,0,1,0,.58.41.59.44-.25.43-.56,0-.72,0-1.07.08-.53.49-.52.45.18.44.5,0,.8,0,1.2c0,.8-.51,1.2-1.4,1.17S33.67,29.91,33.7,29v-.38Z"/><path class="cls-2" d="M31.89,30.29a1.29,1.29,0,0,1-1.44-1.44,1.27,1.27,0,0,1,1.43-1.43,1.27,1.27,0,0,1,1.44,1.42A1.29,1.29,0,0,1,31.89,30.29Zm.54-1.45c0-.4-.11-.76-.59-.73s-.49.38-.5.73.08.75.55.74S32.4,29.18,32.43,28.84Z"/><path class="cls-2" d="M29.58,28.48c.41.24.73.54.59,1.06a.88.88,0,0,1-.8.7c-.54.07-1.11.15-1.51-.37-.11-.15-.31-.38-.07-.55a.63.63,0,0,1,.71,0c.12.08.18.23.3.31a.29.29,0,0,0,.44-.08c.14-.21,0-.31-.2-.37a6.14,6.14,0,0,0-.73-.22.7.7,0,0,1-.52-.86c.09-.55.52-.68,1-.69s1,0,1.27.58S29.68,28.19,29.58,28.48Z"/><path class="cls-2" d="M22.93,27.43c.29,0,.49,0,.58.22.24.68.52,1.35.74,2,.06.16.16.45-.11.54a.53.53,0,0,1-.59-.1.73.73,0,0,0-1.2,0,.66.66,0,0,1-.77.07c-.27-.13,0-.37.06-.53.19-.58.43-1.14.62-1.72C22.39,27.57,22.59,27.34,22.93,27.43Zm0,1c0,.3-.29.48-.06.72a.24.24,0,0,0,.23,0C23.22,28.86,23,28.68,22.91,28.4Z"/><path class="cls-1" d="M38.16,28.56c-.25,0-.35,0-.37-.21s.1-.3.3-.28.36,0,.35.24S38.25,28.55,38.16,28.56Z"/><path class="cls-1" d="M32.43,28.84c0,.34,0,.74-.54.74s-.55-.36-.55-.74.06-.71.5-.73S32.4,28.44,32.43,28.84Z"/><path class="cls-1" d="M22.91,28.4c.13.28.31.46.17.7a.24.24,0,0,1-.23,0C22.62,28.88,22.87,28.7,22.91,28.4Z"/></g></g></svg>