<svg height="40" xmlns="http://www.w3.org/2000/svg" viewBox="0 0 87.98 38.81"><defs><style>.cls-1{fill:#211c50;}.cls-2{fill:#98772e;}</style></defs><g id="Layer_2" data-name="Layer 2"><g id="Layer_1-2" data-name="Layer 1"><path class="cls-1" d="M65.44,13v.26a.17.17,0,0,0,0,.1v.06h0c-.42.11-.86.19-1.29.28a.75.75,0,0,0-.59.72c0,1.37,0,2.74,0,4.11a.2.2,0,0,1-.11.21c-.16.06-.32.14-.49.19-.45.15-.91.29-1.37.41s-.75.18-1.13.25-.9.15-1.35.18a9,9,0,0,1-1.87,0,9.12,9.12,0,0,1-1-.21,6,6,0,0,1-1.51-.62,6.62,6.62,0,0,1-1.92-1.73,9.72,9.72,0,0,1-.65-1.06,5.77,5.77,0,0,1-.41-1c-.08-.23-.14-.48-.21-.73a6.59,6.59,0,0,1-.22-1.16,12.23,12.23,0,0,1,0-2.42,3.6,3.6,0,0,1,.08-.56c.1-.32.15-.64.25-1a7,7,0,0,1,.49-1.25A8,8,0,0,1,53,6.7a6.94,6.94,0,0,1,1.68-1.47A6.19,6.19,0,0,1,56,4.59a7.27,7.27,0,0,1,1.38-.32,12.51,12.51,0,0,1,2.29,0c.49,0,1,.12,1.46.19a6.71,6.71,0,0,1,.89.19c.33.09.67.19,1,.3s.35.09.38.45V5.5c0,.92,0,1.83,0,2.75a.25.25,0,0,1,0,.12c0,.07-.09.07-.14.07s-.31.06-.41-.06a.72.72,0,0,1-.11-.25,3.41,3.41,0,0,0-.19-.62c-.13-.29-.2-.6-.31-.9A.83.83,0,0,0,62,6.19a5.2,5.2,0,0,0-1.51-.7,8.77,8.77,0,0,0-1.6-.34,6.44,6.44,0,0,0-1.64-.05,4.05,4.05,0,0,0-1.4.46,4.58,4.58,0,0,0-.82.63,3.65,3.65,0,0,0-.63.79,5.41,5.41,0,0,0-.56,1.19,6.45,6.45,0,0,0-.41,1.68c-.06.53-.11,1.06-.12,1.59a15.12,15.12,0,0,0,.16,2.33,8.21,8.21,0,0,0,.21,1.1,7.35,7.35,0,0,0,.85,2,5.42,5.42,0,0,0,1.22,1.35,3.47,3.47,0,0,0,1.18.6,3.54,3.54,0,0,0,.86.17,6.66,6.66,0,0,0,1.18,0c.42-.08.83-.18,1.24-.29s.77-.28,1.16-.42.36-.19.36-.52V14.79a2.28,2.28,0,0,0-.05-.58.7.7,0,0,0-.51-.5l-1.34-.27c-.05,0-.13,0-.14-.06a.59.59,0,0,1,0-.37c0-.09.13,0,.2,0h5.56S65.44,13,65.44,13Z"/><path class="cls-1" d="M86.58,18.58a.4.4,0,0,0,.2.16,1.57,1.57,0,0,0,.51.19c.15.05.31.07.46.12s.17.17.16.31-.14.11-.23.11H83.25c-.09,0-.2,0-.23-.11a.23.23,0,0,1,.18-.31l.22-.05.78-.19c.09,0,.2,0,.24-.14a1.19,1.19,0,0,0,.2-.58c0-1.83,0-3.66,0-5.49a.71.71,0,0,0,0-.25,4.71,4.71,0,0,1-.11-.91,1.73,1.73,0,0,0-.35-.87A1.63,1.63,0,0,0,83,9.9a3.41,3.41,0,0,0-1.35,0,5.12,5.12,0,0,0-1.07.34,3.1,3.1,0,0,0-.82.63.41.41,0,0,0-.13.31q0,3.48,0,7a.7.7,0,0,0,.59.71,3.07,3.07,0,0,0,.5.13,1.35,1.35,0,0,1,.33.09c.15.05.14.18.13.3s-.12.12-.21.12H76.39a.24.24,0,0,1-.18,0V19.1c.33-.11.68-.17,1-.25s.68-.33.68-.77q0-3.55,0-7.09a.76.76,0,0,0-.59-.84c-.32-.13-.64-.24-1-.35-.08,0-.14-.06-.14-.17s.08-.13.16-.14c.27-.05.54-.13.82-.18s.69-.14,1-.21l1.19-.26c.17,0,.19,0,.19.15v1.27s0,.1,0,.13,0,.13.12,0a5.51,5.51,0,0,1,1-1,3.3,3.3,0,0,1,1-.54,4.06,4.06,0,0,1,1.15-.18,3.44,3.44,0,0,1,2,.5,2.94,2.94,0,0,1,1.11,1.35,4.09,4.09,0,0,1,.29,1.13,5.79,5.79,0,0,1,0,.93v5.15a3.38,3.38,0,0,0,0,.45c0,.11,0,.26.15.32h0S86.53,18.58,86.58,18.58Z"/><path class="cls-2" d="M11,2.36c.08,0,.11,0,.14.08A6,6,0,0,1,12,4.17a5.09,5.09,0,0,1,.16,2,6,6,0,0,1-.1.84,5.5,5.5,0,0,1-.23.76,5.57,5.57,0,0,1-.42,1.09,6.56,6.56,0,0,1-.68,1,5.38,5.38,0,0,1-1.28,1.24A6.69,6.69,0,0,0,8,12.51a15,15,0,0,0-1.26,1.81c-.22.36-.44.72-.64,1.1s-.36.72-.51,1.1a6.78,6.78,0,0,0-.3.9c-.08.33-.18.65-.23,1S5,19.12,5,19.48a3.12,3.12,0,0,0,.11.86,2,2,0,0,0,.18.52c0,.09.13.11.2,0l.51-.7a9.2,9.2,0,0,0,.71-1.31,12.28,12.28,0,0,0,.6-1.45c.07-.22.17-.43.25-.65s.2-.62.31-.93l.28-.69c.23-.56.5-1.11.78-1.65.17-.34.38-.66.56-1a10,10,0,0,1,.63-1c.12-.19.28-.35.41-.53s.4-.48.59-.72a3.64,3.64,0,0,1,.5-.54,21.75,21.75,0,0,1,2-1.7C14.27,7.51,15,7,15.66,6.47c.42-.3.85-.58,1.24-.91a7,7,0,0,0,.9-.9,6.91,6.91,0,0,0,.85-1.16,9.75,9.75,0,0,0,.74-1.61c.19-.55.37-1.1.51-1.65l0-.06C20,.12,20,0,20.1,0s.18.12.23.23.21.48.3.73.3.74.41,1.13c.06.2.15.4.21.61s.16.55.23.83.06.44.13.66a4.1,4.1,0,0,1,.06.49,12,12,0,0,1,0,2.32,4.61,4.61,0,0,1-.12.83c-.05.22-.08.45-.14.67a10.15,10.15,0,0,1-.5,1.4c-.18.42-.4.83-.62,1.23s-.53.88-.82,1.3-.49.62-.73.93a13,13,0,0,1-1.16,1.29c-.3.32-.63.61-1,.9s-.71.63-1.07.93-.87.69-1.31,1c-.21.15-.22.21,0,.38s.41.4.61.6l.89.9,1.34,1.33c.32.31.61.65.94,1s.69.71,1.07,1c.16.15.25.37.42.52s.24.24.36.36a.28.28,0,0,0,.44,0c.29-.28.61-.54.87-.84s.35-.39.53-.57l.4-.39.79-.73c.35-.32.66-.68,1-1s.88-.84,1.34-1.24c.3-.27.58-.56.89-.83L26.2,18a1.11,1.11,0,0,1,1-.33c.48,0,1,0,1.44,0a1,1,0,0,1,.38.05.22.22,0,0,1,.11.35,2.88,2.88,0,0,1-.26.35,1.35,1.35,0,0,0-.28.86c0,.54,0,1.09,0,1.64q0,7,0,14a12.16,12.16,0,0,0,0,1.35.57.57,0,0,0,.41.52.59.59,0,0,1,.34.75c-.06.12-.19.12-.31.13h-3.7a.78.78,0,0,1-.22,0c-.13,0-.25,0-.29-.2a.48.48,0,0,1,.14-.52c.07-.06.15-.11.21-.17a.59.59,0,0,0,.18-.41c0-1.57,0-3.13,0-4.69s0-3,0-4.48c-.05-2,0-4.06,0-6.1,0-.07,0-.17-.06-.21s-.16,0-.22.1l-1.13,1c-.34.29-.64.62-1,.92s-.56.56-.86.82-.8.74-1.21,1.1c-.24.21-.45.43-.68.64a3.81,3.81,0,0,1-.32.24c-.13.09-.35-.05-.49-.18-.37-.36-.76-.69-1.15-1-.23-.2-.43-.43-.66-.63s-.57-.54-.88-.78-.38-.4-.6-.56-.49-.44-.73-.66a11.79,11.79,0,0,1-.9-.83c-.14-.15-.31-.27-.46-.41s-.49-.46-.75-.68-.44-.42-.69-.6a.25.25,0,0,0-.36,0,7,7,0,0,0-.71.84,13.12,13.12,0,0,0-1.08,1.66,11.11,11.11,0,0,0-.56,1.27c-.12.32-.22.64-.32,1s-.14.7-.21,1.05,0,.4-.06.6a6.92,6.92,0,0,0-.05,1.76,4.9,4.9,0,0,0,.12,1.08c.05.21.06.42.12.63s.18.7.3,1a11.68,11.68,0,0,0,.49,1.15,6,6,0,0,0,.57.94c.14.18.25.39.38.57s.18.25.28.37.44.55.69.79.45.48.69.7.62.59.95.86.6.49.91.72.62.46.95.66.65.4,1,.61.51.27.76.4.34.22.52.31a.19.19,0,0,1,.12.21.18.18,0,0,1-.17.13c-.36,0-.7.12-1.06.14a11.23,11.23,0,0,1-1.16,0,6.13,6.13,0,0,1-.84-.14,8.82,8.82,0,0,1-1.15-.3,2,2,0,0,1-.56-.21,1.81,1.81,0,0,0-.35-.13,13.9,13.9,0,0,1-1.61-.76c-.26-.14-.54-.27-.8-.44l-1-.64-.95-.68c-.29-.19-.53-.43-.8-.64s-.39-.3-.56-.46c-.39-.37-.79-.72-1.17-1.1-.19-.19-.38-.39-.58-.57s-.55-.58-.83-.87-.59-.74-.92-1.07a3.27,3.27,0,0,1-.35-.48c-.15-.21-.31-.41-.45-.63s-.38-.58-.55-.88-.36-.65-.55-1c-.06-.11-.09-.24-.15-.36a12.78,12.78,0,0,1-.7-1.81c-.1-.31-.17-.63-.28-.94a5.68,5.68,0,0,1-.15-.76c-.08-.4-.1-.8-.18-1.2a1.34,1.34,0,0,1,0-.2c0-.49-.08-1-.07-1.46q0-1,.12-2c0-.42.12-.84.2-1.25a11.56,11.56,0,0,1,.54-1.73c.12-.3.24-.59.37-.87s.39-.8.6-1.18.54-.89.83-1.32c.16-.23.31-.46.48-.69s.36-.48.55-.71.55-.68.84-1,.55-.64.85-.93S5.76,9,6,8.77L6.84,8A9.18,9.18,0,0,0,7.92,6.87,8.68,8.68,0,0,0,8.56,6a6.47,6.47,0,0,0,.56-1.33,6.53,6.53,0,0,0,.23-1.91c0-.26,0-.52,0-.77a1.68,1.68,0,0,1-.06-.45c0-.15.1-.19.26-.18a1.38,1.38,0,0,1,.52.24,3.13,3.13,0,0,1,.8.54c.08.07.15.14.12.26s-.05,0-.06,0a3.47,3.47,0,0,0-.37-.3,2.75,2.75,0,0,0-1-.57c-.05,0-.1-.05-.16,0a.14.14,0,0,0,0,.16.78.78,0,0,1,0,.3V3.24a4.39,4.39,0,0,1-.17,1.35,8.18,8.18,0,0,1-.36,1A6.05,6.05,0,0,1,8,7a11.79,11.79,0,0,1-.93.94c-.63.6-1.25,1.2-1.84,1.83s-.92,1-1.35,1.56a22.59,22.59,0,0,0-1.67,2.34,18.7,18.7,0,0,0-1,1.82A11.54,11.54,0,0,0,.5,17.64a9.2,9.2,0,0,0-.26,1.45,14.85,14.85,0,0,0-.11,1.76c0,.39,0,.78,0,1.17s.06.86.14,1.28c0,.25.07.51.12.75s.11.44.15.65.19.72.3,1.07a14.43,14.43,0,0,0,.6,1.54A15.88,15.88,0,0,0,2.6,29.37a12.09,12.09,0,0,0,.79,1.09c.34.43.69.87,1.07,1.28.22.23.43.48.66.7.4.41.82.81,1.23,1.2s.88.79,1.33,1.17.77.6,1.16.88,1,.65,1.46.94c.34.19.66.39,1,.56s.79.39,1.21.56c.24.09.48.17.72.28a6.49,6.49,0,0,0,1.23.38c.24.06.48.08.72.13a6.73,6.73,0,0,0,1.09.12,8.17,8.17,0,0,0,1.48-.16l0,0c-.05-.15-.22-.1-.31-.18a1.52,1.52,0,0,0-.38-.24,8.2,8.2,0,0,1-.87-.5l-.62-.4c-.29-.18-.58-.37-.86-.57-.43-.32-.85-.64-1.25-1s-.85-.75-1.24-1.16-.62-.68-.91-1a9.81,9.81,0,0,1-.72-1A9.26,9.26,0,0,1,9.88,31c-.19-.42-.32-.84-.47-1.27s-.16-.7-.25-1A4.23,4.23,0,0,1,9,27.77c0-.62,0-1.23,0-1.85a9.29,9.29,0,0,1,.23-1.48c.06-.3.18-.59.22-.89a1.38,1.38,0,0,1,.08-.27l.42-1a9.63,9.63,0,0,1,.83-1.51,7,7,0,0,1,.51-.7,6.49,6.49,0,0,1,.76-.89.32.32,0,0,1,.47,0l.27.21s.08,0,.12,0a2,2,0,0,0,.3.36c.55.44,1.07.92,1.58,1.39l1.5,1.36c.22.2.43.41.65.6s.67.59,1,.89l.7.61.86.8a.25.25,0,0,0,.37,0c.24-.17.43-.4.65-.59s.63-.58.94-.86a3.74,3.74,0,0,0,.29-.25,7.17,7.17,0,0,1,.68-.67l1.38-1.28c.38-.35.79-.69,1.16-1.06a.27.27,0,0,1,.31-.06c.1,0,.1.14.1.23,0,2.07,0,4.14.06,6.21,0,.94,0,1.88,0,2.82,0,2.09,0,4.17,0,6.26a.79.79,0,0,1-.4.8c-.15.08-.13.22-.12.35s.13.09.2.11a.5.5,0,0,0,.21,0h3.68c.07,0,.16,0,.19-.08s-.06-.49-.26-.51a.57.57,0,0,1-.43-.35,1.08,1.08,0,0,1-.08-.56V25.63q0-3.19,0-6.38A1.78,1.78,0,0,1,29,18s.08,0,0-.1a.08.08,0,0,0-.1-.05,1.5,1.5,0,0,1-.3,0c-.6,0-1.2-.06-1.8,0a.51.51,0,0,0-.26.09,4.18,4.18,0,0,0-.5.43c-.2.17-.41.34-.6.53s-.65.64-1,.95-.57.57-.89.83-.53.52-.81.76-.44.46-.69.65-.33.32-.5.48l-.64.6c-.22.22-.45.43-.68.64a.38.38,0,0,1-.44,0l-.9-.91c-.51-.51-1-1-1.53-1.53s-.74-.72-1.1-1.08L15.21,19.1l-.44-.45c-.25-.25-.5-.49-.74-.75a.25.25,0,0,1,0-.4,6.44,6.44,0,0,1,.7-.57l.8-.6c.42-.33.81-.7,1.2-1.06a18.84,18.84,0,0,0,1.8-1.88c.34-.42.68-.84,1-1.28a6.05,6.05,0,0,0,.4-.63c.15-.25.32-.49.45-.75.22-.42.41-.85.59-1.28s.2-.66.34-1a.91.91,0,0,0,.07-.25,1.89,1.89,0,0,1,.09-.52,6.14,6.14,0,0,0,.15-1.13,14.12,14.12,0,0,0-.06-1.95.07.07,0,0,0,0-.05c-.11-.39-.13-.79-.24-1.18s-.13-.56-.22-.83-.22-.6-.33-.91S20.36.76,20.21.3c0,0,0-.11-.09-.1a.11.11,0,0,0-.1.11,1,1,0,0,1-.11.44c-.15.4-.25.82-.4,1.23a11.7,11.7,0,0,1-.67,1.49,7.39,7.39,0,0,1-1,1.45,9.79,9.79,0,0,1-1.42,1.23c-.53.39-1.07.76-1.58,1.16s-.79.57-1.16.89-.55.4-.8.62a8.8,8.8,0,0,0-.73.64c-.2.22-.43.4-.64.61s-.42.48-.63.72-.4.5-.59.76-.25.38-.38.57-.29.42-.42.64a12.34,12.34,0,0,0-.74,1.39c-.23.51-.48,1-.67,1.54-.11.3-.24.6-.33.9s-.23.6-.32.9-.24.58-.34.87a5.82,5.82,0,0,1-.34.77c-.15.31-.33.61-.51.91a4.86,4.86,0,0,1-.74,1c-.11.11-.21.09-.29-.05a2.56,2.56,0,0,1-.31-1.21,1.35,1.35,0,0,0,0-.35,2.57,2.57,0,0,1,0-1,5.55,5.55,0,0,1,.22-1c.13-.41.26-.83.41-1.23A8.66,8.66,0,0,1,6,15.21a17.33,17.33,0,0,1,1-1.65,14.66,14.66,0,0,1,.87-1.2c.12-.15.27-.28.4-.42a3.63,3.63,0,0,1,.34-.34c.37-.32.77-.6,1.15-.9a6,6,0,0,0,1-1A4.49,4.49,0,0,0,11.21,9a5.26,5.26,0,0,0,.44-1,6.37,6.37,0,0,0,.26-1c0-.2.06-.4.1-.59a5,5,0,0,0,0-1.77,4.31,4.31,0,0,0-.11-.49c-.05-.14-.09-.28-.14-.43a4.23,4.23,0,0,0-.27-.57c-.09-.18-.22-.33-.32-.5S11,2.51,11,2.36Z"/><path class="cls-1" d="M69.3,32.45h-.7c0-.05,0-.07,0-.11s0-.19.08-.2a3.48,3.48,0,0,1,.44-.1c.39,0,.55-.2.55-.59V29.38c0-.85,0-1.7,0-2.55a.53.53,0,0,0-.37-.55l-.6-.23s-.08,0-.08-.06,0-.07.08-.08l.14,0,.57-.13,1.15-.24c.21,0,.22,0,.22.2s0,.46,0,.69c0,0,0,.09.06.1s.07,0,.1,0a3.66,3.66,0,0,1,.59-.59,1.84,1.84,0,0,1,.81-.41,3,3,0,0,1,1.59.07,1.75,1.75,0,0,1,1,.82,2.78,2.78,0,0,1,.34,1.39q0,1.86,0,3.72a.52.52,0,0,0,.2.48,1.72,1.72,0,0,0,.59.2c.11,0,.21,0,.21.17s-.13.11-.21.11H73.19c-.09,0-.16,0-.17-.1s0-.18.15-.18.36-.1.55-.11a.46.46,0,0,0,.24-.15.64.64,0,0,0,.13-.48c0-.94,0-1.88,0-2.82A5.72,5.72,0,0,0,74,27a1.4,1.4,0,0,0-.24-.49,1.48,1.48,0,0,0-1.31-.47,2.31,2.31,0,0,0-1,.24.94.94,0,0,0-.49.37.36.36,0,0,0-.13.36v2.58c0,.62,0,1.25,0,1.87,0,.28.08.36.33.46s.37.09.55.16a.17.17,0,0,1,.11.2c0,.09,0,.14-.15.14H69.3Z"/><path class="cls-1" d="M48.18,31.64c0-.09,0-.18,0-.27,0-1.53,0-3.06,0-4.59a.48.48,0,0,0-.34-.49l-.61-.23s-.09,0-.08-.1.06-.07.11-.08a1.2,1.2,0,0,0,.2,0,8.52,8.52,0,0,1,1-.23c.23-.06.47-.1.7-.15s.18,0,.18.13,0,.47,0,.71c0,.06,0,.13.06.16s.11,0,.14-.09a2.8,2.8,0,0,1,.6-.59,2.34,2.34,0,0,1,1.28-.43,2.7,2.7,0,0,1,1.09.16,1.65,1.65,0,0,1,.8.57,2.37,2.37,0,0,1,.48,1.43c0,1.27,0,2.53,0,3.8a.63.63,0,0,0,.32.66,2.21,2.21,0,0,0,.52.14c.09,0,.18.05.17.17s-.11.11-.18.11H51.7c-.06,0-.11,0-.12-.08s0-.12.06-.15a.74.74,0,0,1,.14,0c.17,0,.32-.09.5-.11a.54.54,0,0,0,.24-.14.58.58,0,0,0,.15-.48c0-1,0-2.08,0-3.13a3.34,3.34,0,0,0-.23-1.46,1.15,1.15,0,0,0-.79-.67,2.44,2.44,0,0,0-1.88.32.7.7,0,0,0-.4.67c0,1.45,0,2.89,0,4.34,0,.37.13.51.49.57a2.38,2.38,0,0,1,.38.11.13.13,0,0,1,.1.16c0,.1-.08.09-.15.09H47.27c-.07,0-.13,0-.14-.1s0-.16.12-.16.35-.1.53-.11A.42.42,0,0,0,48.18,31.64Z"/><path class="cls-1" d="M32.3,24.88V22.69a.25.25,0,0,1,.17,0h7.81c.22,0,.25,0,.25.26v1.68c0,.33,0,.33-.33.32h0a1.08,1.08,0,0,0-.1-.35c-.14-.39-.24-.79-.4-1.18-.09-.21-.17-.29-.41-.29h-2c-.27,0-.27,0-.27.28v8a1.06,1.06,0,0,0,0,.25.32.32,0,0,0,.23.28,9.37,9.37,0,0,0,.92.19c.12,0,.22.05.21.18s-.13.1-.21.1H34.56c-.07,0-.14,0-.15-.11s0-.16.11-.16.42-.1.63-.11a1.09,1.09,0,0,0,.46-.15c.19-.12.18-.31.18-.5V23.25c0-.11,0-.17-.17-.17-.71,0-1.42,0-2.12,0a.33.33,0,0,0-.33.24,2.16,2.16,0,0,0-.15.45c0,.13-.13.23-.1.38v.05s-.08,0-.08.09a1.66,1.66,0,0,1-.11.38C32.66,24.93,32.56,25,32.3,24.88Z"/><path class="cls-1" d="M35.4,6.06c-.07.07,0,.13,0,.19q0,5.85,0,11.72a.59.59,0,0,0,.49.62c.36.1.71.2,1.08.27a.44.44,0,0,1,.31.62.17.17,0,0,1-.17.13H32.58a.13.13,0,0,1-.09,0c-.15-.12-.1-.29-.11-.44a.21.21,0,0,1,.14-.22,4.29,4.29,0,0,1,.64-.17,6.57,6.57,0,0,0,.76-.21.56.56,0,0,0,.35-.54V6.12c0-.54-.17-.72-.7-.82-.34-.07-.68-.1-1-.2a.19.19,0,0,1-.17-.17c0-.12,0-.24,0-.37a.15.15,0,0,1,.14-.13h4.09c.37,0,.36,0,.47.36s.21.59.32.89L37.86,7c.11.3.23.59.33.89s.18.55.29.81a8.46,8.46,0,0,1,.31.84c.14.45.33.89.48,1.34s.26.72.39,1.07l.3.85.39,1.07c.17.45.32.91.48,1.37a5.93,5.93,0,0,0,.33.92l0,.06a5.15,5.15,0,0,0,.21-.52c.14-.38.28-.76.41-1.14a5.49,5.49,0,0,1,.24-.68c.13-.26.18-.55.3-.81a4.78,4.78,0,0,0,.27-.75c.09-.29.22-.57.32-.87s.32-.85.46-1.28.31-.81.44-1.23.3-.86.46-1.28.25-.71.39-1,.19-.56.29-.84.29-.76.42-1.14a.24.24,0,0,1,.27-.17h4.09c.22,0,.25,0,.25.25s.05.36-.17.43l-.23.05-1,.21a.58.58,0,0,0-.54.63V17.93a.64.64,0,0,0,.39.69l.06,0a2.4,2.4,0,0,1,.58.12,4.67,4.67,0,0,1,.74.17.18.18,0,0,1,.15.2,1.92,1.92,0,0,0,0,.24c0,.17-.06.22-.23.23H44.35c-.19,0-.25-.06-.25-.25a.81.81,0,0,1,0-.22.18.18,0,0,1,.13-.2c.37-.11.76-.15,1.13-.25a1.12,1.12,0,0,0,.4-.14A.68.68,0,0,0,46,18c0-.67,0-1.34,0-2V6.3a.38.38,0,0,0,0-.23.84.84,0,0,0-.2.4c-.16.45-.3.9-.46,1.35s-.27.69-.4,1-.12.42-.21.62-.13.39-.22.58-.19.54-.29.81-.21.57-.31.86-.13.36-.2.55l-.31.85c-.1.29-.19.58-.3.86s-.15.43-.25.64-.11.37-.19.55-.13.4-.2.59-.16.39-.22.58-.21.56-.32.84c-.17.44-.38.86-.57,1.3-.12.27-.24.55-.38.81l0,0c-.12.28-.2.32-.49.27a.27.27,0,0,1-.2-.17c-.1-.26-.19-.51-.28-.78s-.21-.56-.3-.84-.2-.55-.3-.82-.19-.58-.31-.86-.2-.59-.31-.88c-.22-.58-.42-1.16-.65-1.74-.11-.31-.22-.63-.32-.95s-.24-.64-.36-1l-.33-.89c-.13-.37-.28-.74-.4-1.11s-.33-.89-.48-1.35C36.1,8,36,7.73,35.9,7.47s-.19-.53-.28-.8A5.65,5.65,0,0,0,35.4,6.06Zm10.7-.48V5.9q0,6,0,12c0,.06,0,.12,0,.19a.48.48,0,0,1-.09.3.88.88,0,0,1-.62.37L44.32,19c-.08,0-.12,0-.13.13a.86.86,0,0,1,0,.16c0,.15,0,.21.21.21,1.74,0,3.48,0,5.23,0,.29,0,.29,0,.29-.31,0,0,0,0,0,0s0-.13-.12-.14c-.31-.06-.62-.12-.92-.2a3.34,3.34,0,0,1-.43-.1A.74.74,0,0,1,48,18V6.12a2.26,2.26,0,0,1,0-.26.68.68,0,0,1,.55-.63c.4-.07.8-.18,1.2-.26.18,0,.13-.16.14-.27s-.07-.17-.18-.17H45.65c-.1,0-.13,0-.16.13-.08.26-.18.52-.28.77s-.21.59-.32.88-.12.38-.2.56-.19.56-.31.82-.14.42-.22.62-.2.59-.31.88-.13.37-.2.56-.17.38-.23.58-.23.59-.31.9-.27.61-.35.94a4.79,4.79,0,0,1-.24.73l-.3.79q-.18.45-.33.9l-.29.81c-.09.27-.18.54-.29.8,0,.07-.05.18-.11.18s-.1-.11-.13-.18l-.54-1.57c-.15-.44-.31-.87-.46-1.31s-.27-.73-.4-1.1-.19-.55-.29-.82-.27-.74-.41-1.11l-.21-.56c-.09-.27-.19-.53-.28-.8s-.13-.42-.21-.62C38.12,8,38,7.57,37.86,7.2s-.18-.56-.29-.82-.22-.59-.33-.88S37.05,5,37,4.71a.23.23,0,0,0-.27-.18h-4c-.13,0-.19,0-.18.17a.81.81,0,0,1,0,.16.09.09,0,0,0,.08.11,8.46,8.46,0,0,0,1.09.23.83.83,0,0,1,.73.83c0,3.89,0,7.78,0,11.66,0,.12,0,.24,0,.36a.76.76,0,0,1-.5.63c-.11,0-.23.05-.35.09a9,9,0,0,1-.89.24c-.16,0-.18.08-.16.35s.11.11.19.11h4.27c.07,0,.14,0,.19-.06A.28.28,0,0,0,37,19a4.42,4.42,0,0,1-.52-.14,2.59,2.59,0,0,0-.48-.12.78.78,0,0,1-.71-.77v-12c0-.07,0-.15,0-.22s0-.06,0-.07.05,0,.07.05a6.14,6.14,0,0,1,.33.88c.11.28.2.57.31.86s.16.37.21.56.21.58.31.88.2.54.3.82.19.57.3.86.27.73.41,1.09c.07.21.15.42.22.62s.19.55.29.82.2.55.29.82.21.56.31.84.21.57.31.85.21.57.31.86.13.38.2.56.16.38.22.58.2.57.31.86l.3.88c0,.08.07.14.16.14s.27.06.35-.08.24-.5.35-.76.28-.62.41-.93a8.7,8.7,0,0,0,.39-.88,4.69,4.69,0,0,1,.2-.6c.13-.26.19-.53.3-.78s.15-.44.23-.66l.4-1.08c.12-.36.24-.72.37-1.07s.27-.73.41-1.1.35-1.07.58-1.58c.11-.24.18-.49.27-.73.17-.5.34-1,.53-1.47s.42-1.18.62-1.77A.74.74,0,0,1,46.1,5.58Z"/><path class="cls-1" d="M57.56,30.82l-.61.89a.15.15,0,0,0-.11.2A.13.13,0,0,0,57,32h2.67c.07,0,.14,0,.16-.09h.06a.46.46,0,0,0,.37-.3c.12-.39.25-.77.37-1.16,0-.13.15-.12.25-.11s.12.08.12.17v1.71c0,.12,0,.18-.18.17H55.47c-.08,0-.13,0-.11-.15a1.09,1.09,0,0,1,.17-.36c.52-.78,1-1.55,1.58-2.33.26-.39.54-.77.79-1.17s.56-.83.84-1.25.44-.62.65-.94c.1-.15.07-.2-.1-.2-.76,0-1.52,0-2.28,0-.39,0-.58.13-.67.42s-.22.65-.34,1c0,.13-.15.11-.25.11s-.1-.1-.1-.16c0-.55,0-1.09,0-1.64,0-.12.05-.17.17-.17h4.91c.26,0,.31.07.16.29l-1,1.53-1,1.47a0,0,0,0,0,0,0s-.07,0-.1.08c-.3.46-.62.92-.92,1.39A1.9,1.9,0,0,0,57.56,30.82Z"/><path class="cls-1" d="M65.43,13H59.87c-.07,0-.17,0-.2,0a.59.59,0,0,0,0,.37s.09,0,.14.06l1.34.27a.7.7,0,0,1,.51.5,2.28,2.28,0,0,1,.05.58v2.92c0,.33-.06.4-.36.52s-.76.3-1.16.42-.82.21-1.24.29a6.66,6.66,0,0,1-1.18,0,3.54,3.54,0,0,1-.86-.17,3.47,3.47,0,0,1-1.18-.6,5.42,5.42,0,0,1-1.22-1.35,7.35,7.35,0,0,1-.85-2,8.21,8.21,0,0,1-.21-1.1,15.12,15.12,0,0,1-.16-2.33c0-.53.06-1.06.12-1.59a6.45,6.45,0,0,1,.41-1.68A5.41,5.41,0,0,1,54.38,7,3.65,3.65,0,0,1,55,6.19a4.58,4.58,0,0,1,.82-.63,4.05,4.05,0,0,1,1.4-.46,6.44,6.44,0,0,1,1.64.05,8.77,8.77,0,0,1,1.6.34,5.2,5.2,0,0,1,1.51.7.83.83,0,0,1,.28.42c.11.3.18.61.31.9a3.41,3.41,0,0,1,.19.62.72.72,0,0,0,.11.25c.1.12.27,0,.41.06s.12,0,.14-.07a.25.25,0,0,0,0-.12c0-.92,0-1.83,0-2.75V5.39c0-.36,0-.34-.38-.45s-.67-.21-1-.3a6.71,6.71,0,0,0-.89-.19c-.48-.07-1-.15-1.46-.19a12.51,12.51,0,0,0-2.29,0A7.27,7.27,0,0,0,56,4.59a6.19,6.19,0,0,0-1.38.64A6.94,6.94,0,0,0,53,6.7a8,8,0,0,0-.91,1.4,7,7,0,0,0-.49,1.25c-.1.31-.15.63-.25,1a3.6,3.6,0,0,0-.08.56,12.23,12.23,0,0,0,0,2.42,6.59,6.59,0,0,0,.22,1.16c.07.25.13.5.21.73a5.77,5.77,0,0,0,.41,1,9.72,9.72,0,0,0,.65,1.06,6.62,6.62,0,0,0,1.92,1.73,6,6,0,0,0,1.51.62,9.12,9.12,0,0,0,1,.21,9,9,0,0,0,1.87,0c.45,0,.9-.11,1.35-.18s.76-.15,1.13-.25.92-.26,1.37-.41c.17-.05.33-.13.49-.19a.2.2,0,0,0,.11-.21c0-1.37,0-2.74,0-4.11a.75.75,0,0,1,.59-.72c.43-.09.87-.17,1.29-.28h0c.07.09,0,.11-.06.12l-.92.19c-.15,0-.31.06-.46.11a.57.57,0,0,0-.39.57c0,1.37,0,2.74,0,4.11,0,.29,0,.3-.3.41s-.62.23-.94.33c-.47.14-.94.24-1.42.36s-1.09.18-1.63.27c-.17,0-.34,0-.51,0a7.34,7.34,0,0,1-1.69,0,6.6,6.6,0,0,1-1.8-.5,6.78,6.78,0,0,1-1.47-.87,6.43,6.43,0,0,1-1.48-1.64,6.33,6.33,0,0,1-.61-1.15,8.14,8.14,0,0,1-.31-.87c-.08-.28-.13-.56-.23-.83a1.89,1.89,0,0,1-.06-.47,13.74,13.74,0,0,1-.11-1.92c0-.35.08-.7.11-1.05a4,4,0,0,1,.16-.84,10.87,10.87,0,0,1,.36-1.1,4.17,4.17,0,0,1,.37-.73,9.94,9.94,0,0,1,.66-1.07A8.28,8.28,0,0,1,53.46,6a6.84,6.84,0,0,1,1.21-.91c.26-.15.52-.31.8-.44a2.75,2.75,0,0,1,.57-.2,3.21,3.21,0,0,0,.33-.12,5.27,5.27,0,0,0,.57-.14.24.24,0,0,1,.12,0,11.2,11.2,0,0,1,1.3-.08c.38,0,.76,0,1.14,0a7.5,7.5,0,0,1,1.15.13l.09,0a3.94,3.94,0,0,1,.82.15l.56.11a2.29,2.29,0,0,1,.37.12,3.68,3.68,0,0,1,.71.23c.26.15.28.12.28.44,0,1,0,2,0,3,0,.25,0,.26-.26.26h-.06c-.37,0-.37-.06-.48-.41l-.21-.63c-.06-.22-.16-.44-.21-.66a1.06,1.06,0,0,0-.48-.69,7.58,7.58,0,0,0-.86-.42,8.72,8.72,0,0,0-1.52-.4,9.13,9.13,0,0,0-1.8-.16,4.19,4.19,0,0,0-1.2.24,3.29,3.29,0,0,0-1.08.61,3.77,3.77,0,0,0-.84,1,5.61,5.61,0,0,0-.65,1.43,9.91,9.91,0,0,0-.36,1.72,19,19,0,0,0-.07,2.13,2.64,2.64,0,0,0,0,.69c.09.29.06.6.13.89s.15.65.22,1a3.71,3.71,0,0,0,.29.87,2.65,2.65,0,0,1,.11.3,6.33,6.33,0,0,0,.73,1.23,4,4,0,0,0,.94.9,3.46,3.46,0,0,0,.81.42,4.13,4.13,0,0,0,1.59.27,4.54,4.54,0,0,0,1-.11,11.83,11.83,0,0,0,1.64-.48c.18-.07.34-.17.53-.23a.18.18,0,0,0,.13-.21V14.37a.62.62,0,0,0-.51-.57c-.27,0-.52-.1-.78-.14l-.53-.11a.21.21,0,0,1-.2-.22c0-.4-.05-.48.44-.48h5.28S65.46,12.8,65.43,13Z"/><path class="cls-1" d="M77.86,31.64c0-.2,0-.41,0-.62,0-1.42,0-2.83,0-4.24a.49.49,0,0,0-.38-.52l-.58-.21s-.07,0-.07-.07a.11.11,0,0,1,.08-.09,3.71,3.71,0,0,0,.48-.1c.46-.11.93-.19,1.39-.29.23-.05.23-.05.23.17v6a.09.09,0,0,0,.09.11l0,.07c0,.08,0,.13.12.11h0c0,.14.12.1.19.12s.34.08.5.12a.13.13,0,0,1,.1.15c0,.07-.07.06-.12.07a3.57,3.57,0,0,1-.8,0h-1.5a6.26,6.26,0,0,1-.75,0c-.06,0-.13,0-.14-.08s0-.11.11-.13a.86.86,0,0,1,.23-.06c.06,0,.13,0,.16-.08h.09c.22,0,.36,0,.41-.19h0C77.86,31.8,77.88,31.73,77.86,31.64Z"/><path class="cls-1" d="M71.6,13.7H68.36c-.2,0-.21,0-.19.21s0,.64.08.95a9.7,9.7,0,0,0,.23,1.07,7.64,7.64,0,0,0,.29.8,2.8,2.8,0,0,0,.36.56,2.87,2.87,0,0,0,1.37,1,4.38,4.38,0,0,0,.63.12,3.54,3.54,0,0,0,.79,0,5.87,5.87,0,0,0,1.17-.21,4.41,4.41,0,0,0,1.09-.48,4.54,4.54,0,0,0,.72-.52c.06-.06.12-.1.2-.06s.07.12.07.19a2.41,2.41,0,0,0,0,.38.54.54,0,0,1-.21.49,6.55,6.55,0,0,1-1.73,1.11,6.85,6.85,0,0,1-1.28.42,5,5,0,0,1-1.39.07,5.67,5.67,0,0,1-1.15-.21A5,5,0,0,1,68.09,19a3,3,0,0,1-.46-.42,4.76,4.76,0,0,1-1.06-1.66,7.28,7.28,0,0,1-.35-1.43,8.71,8.71,0,0,1,0-2,5,5,0,0,1,.2-1,7.86,7.86,0,0,1,.4-1.09,5.84,5.84,0,0,1,.41-.68,5.25,5.25,0,0,1,.89-1A4.48,4.48,0,0,1,69.21,9a4.17,4.17,0,0,1,1.7-.38,4.92,4.92,0,0,1,1.33.12,4.05,4.05,0,0,1,1,.46,3.86,3.86,0,0,1,1.22,1.16,4.52,4.52,0,0,1,.45.94,5.55,5.55,0,0,1,.24,2.18.25.25,0,0,1-.28.26Zm0-.14h3.21c.25,0,.29,0,.3-.3a5.33,5.33,0,0,0-.16-1.73,4,4,0,0,0-.69-1.36A3.65,3.65,0,0,0,72.9,9.1a3.7,3.7,0,0,0-1.57-.41,4.63,4.63,0,0,0-1.73.25A4.7,4.7,0,0,0,68,9.87,4.93,4.93,0,0,0,67,11.24a4,4,0,0,0-.37.88c-.08.24-.14.5-.2.75a5.91,5.91,0,0,0-.13.94,8.22,8.22,0,0,0,0,1.4,10.08,10.08,0,0,0,.26,1.33,5,5,0,0,0,.4.95,3.86,3.86,0,0,0,1,1.22,4.45,4.45,0,0,0,2.27,1,6.78,6.78,0,0,0,.91,0,4.6,4.6,0,0,0,1.42-.24,6.74,6.74,0,0,0,2.22-1.2.67.67,0,0,0,.32-.7.75.75,0,0,1,0-.15c0-.05,0-.11,0-.13s-.08,0-.12.05a5.47,5.47,0,0,1-1.47.88,3.85,3.85,0,0,1-1.14.3,4.55,4.55,0,0,1-1.76-.13,3,3,0,0,1-1.78-1.5,5.87,5.87,0,0,1-.51-1.44,4.62,4.62,0,0,1-.13-1,1,1,0,0,0,0-.24.94.94,0,0,1,0-.55c0-.15.1-.16.22-.16Z"/><path class="cls-1" d="M48.18,31.64a.42.42,0,0,1-.4.39c-.18,0-.35.1-.53.11s-.12.08-.12.16.07.1.14.1H50.2c.07,0,.14,0,.15-.09a.13.13,0,0,0-.1-.16,2.38,2.38,0,0,0-.38-.11c-.36-.06-.49-.2-.49-.57,0-1.45,0-2.89,0-4.34a.7.7,0,0,1,.4-.67,2.44,2.44,0,0,1,1.88-.32,1.15,1.15,0,0,1,.79.67,3.34,3.34,0,0,1,.23,1.46c0,1.05,0,2.09,0,3.13a.58.58,0,0,1-.15.48.54.54,0,0,1-.24.14c-.18,0-.33.1-.5.11a.74.74,0,0,0-.14,0c-.07,0-.06.1-.06.15s.06.08.12.08h2.9c.07,0,.18,0,.18-.11s-.08-.15-.17-.17a2.21,2.21,0,0,1-.52-.14.63.63,0,0,1-.32-.66c0-1.27,0-2.53,0-3.8a2.37,2.37,0,0,0-.48-1.43,1.65,1.65,0,0,0-.8-.57,2.7,2.7,0,0,0-1.09-.16,2.34,2.34,0,0,0-1.28.43,2.8,2.8,0,0,0-.6.59c0,.05-.06.11-.14.09s-.06-.1-.06-.16c0-.24,0-.47,0-.71s0-.17-.18-.13-.47.09-.7.15a8.52,8.52,0,0,0-1,.23,1.2,1.2,0,0,1-.2,0s-.1,0-.11.08,0,.09.08.1l.61.23a.48.48,0,0,1,.34.49c-.11-.11-.12-.29-.29-.35l-.47-.17-.28-.11A.23.23,0,0,1,47,26a.16.16,0,0,1,.16-.16c.2,0,.39-.1.58-.14s.63-.13.94-.17c.16,0,.31-.11.48-.14s.21,0,.22.19v.72s0,0,0,0c.17-.13.31-.3.46-.44a2.07,2.07,0,0,1,.94-.51,3.17,3.17,0,0,1,1.5,0,1.83,1.83,0,0,1,1.31,1.15,3.34,3.34,0,0,1,.22,1.13c.05,1.26,0,2.52,0,3.78,0,.35.1.45.46.53.15,0,.29.08.43.12s.09.23.08.36-.09.11-.18.11h-3a.2.2,0,0,1-.22-.2.25.25,0,0,1,.17-.29c.23-.1.47-.08.69-.18a.29.29,0,0,0,.2-.24,6.6,6.6,0,0,0,0-.77c0-.62,0-1.24,0-1.86s0-1,0-1.52a1.23,1.23,0,0,0-.66-1.13,1.06,1.06,0,0,0-.47-.12,3,3,0,0,0-1,.07,1.77,1.77,0,0,0-.87.52.43.43,0,0,0-.1.29v4.28a.88.88,0,0,0,.06.33.26.26,0,0,0,.15.14l.63.19c.15,0,.19.12.17.32s-.13.12-.22.12H47.27c-.1,0-.22,0-.24-.12s0-.3.2-.31.37-.1.56-.12.19-.11.27-.19S48.12,31.65,48.18,31.64Z"/><path class="cls-1" d="M71,26.68a.94.94,0,0,1,.49-.37,2.31,2.31,0,0,1,1-.24,1.48,1.48,0,0,1,1.31.47A1.4,1.4,0,0,1,74,27a5.72,5.72,0,0,1,.12,1.54c0,.94,0,1.88,0,2.82a.64.64,0,0,1-.13.48.46.46,0,0,1-.24.15c-.19,0-.36.1-.55.11s-.16.07-.15.18.08.1.17.1H76c.08,0,.2,0,.21-.11s-.1-.14-.21-.17a1.72,1.72,0,0,1-.59-.2.52.52,0,0,1-.2-.48q0-1.86,0-3.72a2.78,2.78,0,0,0-.34-1.39,1.75,1.75,0,0,0-1-.82,3,3,0,0,0-1.59-.07,1.84,1.84,0,0,0-.81.41,3.66,3.66,0,0,0-.59.59s-.06.06-.1,0-.06-.06-.06-.1c0-.23,0-.46,0-.69s0-.23-.22-.2l-1.15.24-.57.13-.14,0s-.08,0-.08.08,0,.05.08.06l.6.23a.53.53,0,0,1,.37.55c0,.85,0,1.7,0,2.55v2.07c0,.39-.16.56-.55.59a3.48,3.48,0,0,0-.44.1c-.1,0-.1.12-.08.2s0,.06,0,.11-.14,0-.13-.11,0-.25.16-.3.48-.09.7-.18a.29.29,0,0,0,.21-.29V26.8a.36.36,0,0,0-.2-.36,5,5,0,0,0-.61-.22.42.42,0,0,1-.21-.13.19.19,0,0,1,.13-.31c.4-.11.8-.18,1.21-.26l.69-.16c.27-.06.29,0,.29.22v.73a4.4,4.4,0,0,0,.49-.46,2.44,2.44,0,0,1,1-.52,2.85,2.85,0,0,1,1.16,0,1.9,1.9,0,0,1,1.42.89,2.41,2.41,0,0,1,.26.59,6.22,6.22,0,0,1,.17,1.82v2.79c0,.39.12.53.51.56a1.07,1.07,0,0,1,.37.12c.15.06.09.22.08.35s-.1.12-.2.12h-2.9c-.27,0-.33-.07-.3-.33a.16.16,0,0,1,.11-.15c.14,0,.25-.1.4-.11a2.79,2.79,0,0,0,.39-.1c.11,0,.16-.14.16-.26v-.43c0-1.16,0-2.32,0-3.48a1.58,1.58,0,0,0-.35-1.06,1,1,0,0,0-.6-.34,2.24,2.24,0,0,0-.63-.05,3.65,3.65,0,0,0-.66.12,1.53,1.53,0,0,0-.68.32S71,26.67,71,26.68Z"/><path class="cls-1" d="M86.54,18.52c-.14-.06-.13-.21-.15-.32a3.38,3.38,0,0,1,0-.45V12.6a5.79,5.79,0,0,0,0-.93,4.09,4.09,0,0,0-.29-1.13,2.94,2.94,0,0,0-1.11-1.35,3.44,3.44,0,0,0-2-.5,4.06,4.06,0,0,0-1.15.18,3.3,3.3,0,0,0-1,.54,5.51,5.51,0,0,0-1,1c-.08.1-.09,0-.12,0s0-.09,0-.13V9c0-.18,0-.19-.19-.15l-1.19.26c-.34.07-.68.16-1,.21s-.55.13-.82.18c-.08,0-.16,0-.16.14s.06.14.14.17c.32.11.64.22,1,.35a.76.76,0,0,1,.59.84q0,3.54,0,7.09c0,.44-.2.67-.68.77s-.69.14-1,.25c0-.12,0-.15.12-.17l.84-.19c.2,0,.45-.06.56-.31a.48.48,0,0,0,.05-.23V13.44c0-.85,0-1.7,0-2.55a.7.7,0,0,0-.45-.62l-1-.37c-.16-.05-.18-.18-.17-.32s.09-.16.2-.2c.34-.1.68-.15,1-.23l1-.21a8.89,8.89,0,0,0,1-.24c.22-.09.31,0,.31.23V10.1c0,.05,0,.11,0,.13s.09,0,.12-.07l.35-.4A3.22,3.22,0,0,1,81,9.13a3.31,3.31,0,0,1,.85-.4,3.06,3.06,0,0,1,.6-.13,7.84,7.84,0,0,1,1.37,0,3.23,3.23,0,0,1,1.3.53,3,3,0,0,1,1.15,1.58,5.7,5.7,0,0,1,.25,1.79V18A1.23,1.23,0,0,0,86.54,18.52Z"/><path class="cls-1" d="M76.21,19.42a.24.24,0,0,0,.18,0H81c.09,0,.2,0,.21-.12s0-.25-.13-.3a1.35,1.35,0,0,0-.33-.09,3.07,3.07,0,0,1-.5-.13.7.7,0,0,1-.59-.71q0-3.48,0-7a.41.41,0,0,1,.13-.31,3.1,3.1,0,0,1,.82-.63,5.12,5.12,0,0,1,1.07-.34A3.41,3.41,0,0,1,83,9.9a1.63,1.63,0,0,1,1.11.67,1.73,1.73,0,0,1,.35.87,4.71,4.71,0,0,0,.11.91.71.71,0,0,1,0,.25c0,1.83,0,3.66,0,5.49a1.19,1.19,0,0,1-.2.58c0,.09-.15.12-.24.14l-.78.19-.22.05a.23.23,0,0,0-.18.31c0,.14.14.11.23.11h4.43c.09,0,.21,0,.23-.11s0-.27-.16-.31-.31-.07-.46-.12a1.57,1.57,0,0,1-.51-.19,1.16,1.16,0,0,1,.49.1c.2,0,.39.11.58.16a.13.13,0,0,1,.11.11.19.19,0,0,1,0,.08c0,.35,0,.37-.35.37H83.23c-.27,0-.27,0-.26-.27v-.16a.15.15,0,0,1,.12-.16,12,12,0,0,0,1.18-.31.26.26,0,0,0,.19-.2,2,2,0,0,0,.07-.48c0-1.74,0-3.47,0-5.2a7.52,7.52,0,0,0-.11-1.5,1.53,1.53,0,0,0-.63-.94A2.15,2.15,0,0,0,82.53,10a3.69,3.69,0,0,0-1.74.31,3.19,3.19,0,0,0-1,.71.32.32,0,0,0-.06.25v3.84c0,1,0,2,0,3,0,.54.29.67.7.77a2.64,2.64,0,0,1,.73.2.4.4,0,0,1,.13.47c0,.12-.16.1-.25.13a.56.56,0,0,1-.13,0H76.61a.82.82,0,0,0-.22,0C76.23,19.63,76.2,19.6,76.21,19.42Z"/><path class="cls-1" d="M65.76,31.68a3.91,3.91,0,0,1-.65.57,3.82,3.82,0,0,1-.72.31,2.52,2.52,0,0,1-.85.11,1.77,1.77,0,0,1-1.3-.53,2,2,0,0,1-.54-1.06,1.89,1.89,0,0,1,.57-1.76,2.91,2.91,0,0,1,1.12-.7,4.48,4.48,0,0,1,2.25-.23c.14,0,.18,0,.18-.18a11.07,11.07,0,0,0,0-1.41c0-.29-.12-.57-.45-.66a2,2,0,0,0-.74-.05,2.88,2.88,0,0,0-1.11.42,7.5,7.5,0,0,0-.81.58c-.19.14-.3.11-.35-.12s-.13-.57-.17-.85a.29.29,0,0,1,.18-.32,5.62,5.62,0,0,1,1.38-.47,5.73,5.73,0,0,1,1.37,0,1.68,1.68,0,0,1,.6.16,2,2,0,0,1,.86.56,2.12,2.12,0,0,1,.51.9,3.64,3.64,0,0,1,.06.87c0,1.17,0,2.35,0,3.53,0,.27.1.38.38.38a1.24,1.24,0,0,0,.63-.08.2.2,0,0,1,.27.07.49.49,0,0,1-.09.44,2.53,2.53,0,0,1-1.36.54,1.07,1.07,0,0,1-.84-.25.94.94,0,0,1-.28-.54A.3.3,0,0,0,65.76,31.68ZM67,29.32h0V27.44a2,2,0,0,0-.08-.55,2,2,0,0,0-.88-1.13,3,3,0,0,0-1.39-.4,4.4,4.4,0,0,0-1.25.14,5,5,0,0,0-1.07.42c-.09,0-.13.11-.11.2.06.26.11.52.17.77s.09.16.21.09a4.17,4.17,0,0,0,.37-.26A3.44,3.44,0,0,1,64.45,26a1.56,1.56,0,0,1,1,.07.83.83,0,0,1,.44.81c0,.47,0,.95,0,1.43,0,.18,0,.19-.21.18a6.32,6.32,0,0,0-1.89.13,4.08,4.08,0,0,0-1.11.49,1.93,1.93,0,0,0-.76,2.43,1.7,1.7,0,0,0,1.12.95,2.61,2.61,0,0,0,1.44-.06,2.18,2.18,0,0,0,1.17-.81c0-.06.11-.16.19-.12s0,.13.05.21a.81.81,0,0,0,.84.84,2.23,2.23,0,0,0,1.44-.47.26.26,0,0,0,.13-.27s0-.08-.08-.07-.29,0-.42.08a.59.59,0,0,1-.82-.54C67,30.62,67,30,67,29.32Z"/><path class="cls-1" d="M84.7,31.67a1.33,1.33,0,0,0-.25.3,1.13,1.13,0,0,1-.38.3,2.47,2.47,0,0,1-1.27.37c-.1,0-.2.07-.31,0a2.09,2.09,0,0,1-1.19-.46,1.94,1.94,0,0,1-.61-2A2,2,0,0,1,81.63,29a4.25,4.25,0,0,1,1.06-.49,6.19,6.19,0,0,1,.86-.15,4,4,0,0,1,.92,0c.25,0,.25,0,.25-.22V27a2.26,2.26,0,0,0-.1-.53c-.11-.34-.37-.42-.69-.43a2.77,2.77,0,0,0-1.71.59l-.57.42c-.19.14-.36.07-.39-.16s-.09-.56-.15-.83a.2.2,0,0,1,.11-.24,3.64,3.64,0,0,1,.69-.33c.29-.12.61-.15.9-.24h.07a5.33,5.33,0,0,1,1.38.06,2.73,2.73,0,0,1,.82.36,2,2,0,0,1,.63.66A1.69,1.69,0,0,1,86,27,25,25,0,0,1,86,30.21a4,4,0,0,1-.05.91.46.46,0,0,0,.5.58,1.64,1.64,0,0,0,.58-.09.15.15,0,0,1,.2,0,.36.36,0,0,1,0,.36.88.88,0,0,1-.46.37,4.33,4.33,0,0,1-.85.31.32.32,0,0,1-.17,0,1.26,1.26,0,0,1-.9-.38,1,1,0,0,1-.17-.48S84.71,31.74,84.7,31.67Zm1.2-2.38h0c0-.66,0-1.32,0-2a1.68,1.68,0,0,0-.31-.94,2.35,2.35,0,0,0-1.92-1,4.26,4.26,0,0,0-1.28.13,5.87,5.87,0,0,0-1,.39.23.23,0,0,0-.14.24c0,.22.11.42.11.63a.3.3,0,0,0,.12.28c.06,0,.16-.06.23-.12a6.41,6.41,0,0,1,1-.68A2.29,2.29,0,0,1,84.11,26a.54.54,0,0,1,.38.16,1.27,1.27,0,0,1,.32.9v1.08c0,.4.06.38-.37.35a4.48,4.48,0,0,0-2.26.35,2.54,2.54,0,0,0-1.15.9,2.1,2.1,0,0,0-.29.84,1.89,1.89,0,0,0,.16.94,1.62,1.62,0,0,0,1.36,1A2.65,2.65,0,0,0,84,32.18a1.11,1.11,0,0,0,.45-.38,1.31,1.31,0,0,1,.2-.28c.06-.06.12,0,.15,0s0,.12,0,.18a.76.76,0,0,0,.68.78,2.05,2.05,0,0,0,1.5-.39.48.48,0,0,0,.21-.19c0-.1,0-.24-.08-.22s-.28,0-.41.08a.56.56,0,0,1-.81-.55Z"/><path class="cls-1" d="M45.67,29.3v2c0,.29.09.38.39.38a1.53,1.53,0,0,0,.67-.08c.15-.06.22,0,.24.17a.43.43,0,0,1-.23.43,2.64,2.64,0,0,1-.91.4,1.36,1.36,0,0,1-1.14-.17,1.05,1.05,0,0,1-.31-.61s0-.12-.05-.14-.08,0-.11.08a2.33,2.33,0,0,1-1.13.75,2.61,2.61,0,0,1-1.68,0,1.77,1.77,0,0,1-.79-.62,1.87,1.87,0,0,1-.38-1.2,2,2,0,0,1,.89-1.66,3.23,3.23,0,0,1,.92-.48,4.49,4.49,0,0,1,2.13-.18c.15,0,.2-.06.2-.18a13,13,0,0,0,0-1.4c-.05-.29-.14-.59-.47-.67a1.72,1.72,0,0,0-.75,0,2.77,2.77,0,0,0-1,.4c-.3.18-.59.39-.88.6s-.25.1-.32-.09a5.52,5.52,0,0,1-.19-1c0-.12.1-.18.18-.21.25-.08.5-.2.74-.3a3.9,3.9,0,0,1,1.72-.23,2.51,2.51,0,0,1,1.88.86,1.92,1.92,0,0,1,.36.73,7.1,7.1,0,0,1,.09,1.72c0,.24,0,.48,0,.72Zm-.11,0h0V27.34a1.74,1.74,0,0,0-.31-1,2.44,2.44,0,0,0-2-1,3.88,3.88,0,0,0-1.31.14,4,4,0,0,0-1.08.41c-.09,0-.13.1-.11.19L41,27c0,.1.08.09.16,0,.33-.22.63-.48,1-.68A2.54,2.54,0,0,1,43.65,26a.73.73,0,0,1,.62.31,1.32,1.32,0,0,1,.2.73c0,.39,0,.79,0,1.18s0,.29-.28.28a5.58,5.58,0,0,0-1.63.07,3.67,3.67,0,0,0-1.44.64,1.89,1.89,0,0,0-.71,1,1.93,1.93,0,0,0,0,1.21,1.62,1.62,0,0,0,.6.81,2,2,0,0,0,1.42.32A2.63,2.63,0,0,0,43.79,32a4.25,4.25,0,0,0,.48-.47s.1-.11.15-.09,0,.11,0,.17a1,1,0,0,0,.13.5.79.79,0,0,0,.75.4,2.08,2.08,0,0,0,1.28-.39c.09-.06.2-.1.24-.21s.07-.19-.06-.2a1,1,0,0,0-.38.05.58.58,0,0,1-.86-.53Z"/><path class="cls-1" d="M58.88,28.83l1-1.47,1-1.53c.15-.22.1-.29-.16-.29H55.82c-.12,0-.17,0-.17.17,0,.55,0,1.09,0,1.64,0,.06,0,.16.1.16s.2,0,.25-.11c.12-.32.24-.64.34-1S56.62,26,57,26c.76,0,1.52,0,2.28,0,.17,0,.2.05.1.2-.21.32-.44.62-.65.94s-.57.82-.84,1.25-.53.78-.79,1.17c-.53.78-1.06,1.55-1.58,2.33a1.09,1.09,0,0,0-.17.36c0,.1,0,.14.11.15h5.35c.13,0,.18,0,.18-.17V30.53c0-.09,0-.17-.12-.17s-.21,0-.25.11c-.12.39-.25.77-.37,1.16a.46.46,0,0,1-.37.3s0-.05,0-.06c.26-.14.28-.4.35-.65s.13-.41.2-.61a.61.61,0,0,0,.05-.12c.06-.26.17-.32.43-.27a.1.1,0,0,1,.09.09.72.72,0,0,1,0,.25V32.2s0,.1,0,.16-.09.18-.23.18H55.52c-.12,0-.23,0-.27-.14a.32.32,0,0,1,0-.32c.21-.29.39-.59.59-.89s.55-.81.83-1.22.49-.74.73-1.12c.08-.12.18-.23.27-.35s.24-.38.36-.56c.4-.56.76-1.14,1.16-1.7,0,0,.07,0,.05-.09s-.07,0-.11,0c-.75,0-1.51,0-2.26,0a.5.5,0,0,0-.49.36c-.1.33-.23.65-.35,1,0,.15-.17.18-.37.16s-.15-.13-.15-.24V25.66c0-.2,0-.22.24-.22h5c.22,0,.28.07.24.3a.31.31,0,0,1-.07.14c-.22.32-.45.65-.66,1s-.64.9-.93,1.36c-.1.17-.21.33-.32.49A.25.25,0,0,1,58.88,28.83Z"/><path class="cls-1" d="M32.92,24.15c0-.15.08-.25.1-.38a2.16,2.16,0,0,1,.15-.45.33.33,0,0,1,.33-.24c.7,0,1.41,0,2.12,0,.13,0,.17.06.17.17v8.13c0,.19,0,.38-.18.5a1.09,1.09,0,0,1-.46.15c-.21,0-.41.1-.63.11s-.11.08-.11.16.08.11.15.11h3.66c.08,0,.2,0,.21-.1s-.09-.16-.21-.18a9.37,9.37,0,0,1-.92-.19.32.32,0,0,1-.23-.28,1.06,1.06,0,0,1,0-.25v-8c0-.27,0-.27.27-.28h2c.24,0,.32.08.41.29.16.39.26.79.4,1.18a1.08,1.08,0,0,1,.1.35s-.06,0-.08,0c-.15-.32-.23-.65-.36-1,0-.15-.09-.31-.14-.47a.33.33,0,0,0-.34-.23h-2c-.11,0-.15,0-.15.15v8c0,.33.11.42.43.49s.55.09.82.17.17.12.15.34-.11.11-.19.11H34.56c-.13,0-.2,0-.21-.17s0-.25.19-.27a5.4,5.4,0,0,0,.89-.18.46.46,0,0,0,.31-.46V23.47c0-.27,0-.29-.29-.29H33.58a.35.35,0,0,0-.4.31c0,.21-.15.38-.18.59A.07.07,0,0,1,32.92,24.15Z"/><path class="cls-1" d="M45,35.41c0-.14.17-.14.27-.15a3.62,3.62,0,0,1,.57,0,.23.23,0,0,1,.25.25v.08c0,.11,0,.22-.11.27s-.21,0-.27-.13a.43.43,0,0,0-.52-.11s-.13.06-.11.14a.19.19,0,0,0,.13.17,4.11,4.11,0,0,1,.57.25.44.44,0,0,1,.11.71,1.08,1.08,0,0,1-1.18.28.46.46,0,0,1-.26-.13s-.08,0-.11,0a.66.66,0,0,1-.49.16.34.34,0,0,1-.34-.35,4.68,4.68,0,0,1,.18-.92c0-.12.06-.26-.1-.31s-.47,0-.51.19c-.09.32-.17.64-.25,1,0,.06,0,.12,0,.19s0,.17-.17.17-.31,0-.24-.32.15-.68.23-1a.17.17,0,0,0-.1-.22.15.15,0,0,1-.09-.19c0-.08.09-.1.16-.1a1.07,1.07,0,0,0,.3-.06.16.16,0,0,1,.18.06c0,.08.09.09.18,0a.6.6,0,0,1,.77,0,.44.44,0,0,1,.11.4c0,.3-.11.61-.19.91,0,0,0,0,0,.06s.26,0,.38.06.1,0,.1-.1a.18.18,0,0,1,.14-.19.21.21,0,0,1,.21.15c.09.23.52.26.69.09a.2.2,0,0,0-.06-.27,4.53,4.53,0,0,1-.57-.23.43.43,0,0,1-.21-.47.52.52,0,0,1,.27-.4.12.12,0,0,1,.08,0c0,.07-.06.08-.1.11a.4.4,0,0,0,.06.69c.17.09.35.13.52.21a.27.27,0,0,1,0,.46.55.55,0,0,1-.79-.14s-.08-.11-.14-.08,0,.13-.06.21a.17.17,0,0,0,.08.16,1.67,1.67,0,0,0,.7.06.9.9,0,0,0,.42-.19.45.45,0,0,0,.14-.5.52.52,0,0,0-.25-.21L45.16,36a.25.25,0,0,1-.13-.36.47.47,0,0,1,.73,0c0,.06.08.16.18.12s.05-.14.06-.22,0-.09-.09-.11a1.17,1.17,0,0,0-.37-.08C45.35,35.31,45.19,35.44,45,35.41Zm-1.67,0a.2.2,0,0,0,.18.06c.2,0,.26.12.32.28s0,.16-.06.25a3,3,0,0,1-.16.72.24.24,0,0,0,.21.33.79.79,0,0,0,.3,0c-.25-.16-.29-.24-.23-.48s.11-.48.17-.71a.4.4,0,0,0-.14-.43A.72.72,0,0,0,43.33,35.44Zm-.75,0,0,0c.2.11.17.28.16.45s-.07.13-.08.21a3.9,3.9,0,0,1-.16.77c0,.15,0,.19.15.18s.13,0,.12-.14a1.64,1.64,0,0,1,.09-.62c.07-.23.1-.48.19-.71s0-.2-.13-.2S42.69,35.42,42.58,35.43ZM44.43,37h0Z"/><path class="cls-1" d="M34.65,34.78h.92c.11,0,.13,0,.12.15a2.74,2.74,0,0,1-.09.39c0,.09-.07.1-.15.09s-.09-.07-.09-.13,0-.24-.15-.26-.41,0-.46.19-.13.62-.2.93-.07.35-.11.53,0,.24.14.29.15,0,.12.12-.09.06-.15.06h-.74c-.05,0-.1,0-.12-.07a.1.1,0,0,1,.08-.11c.35,0,.3-.34.35-.56s.15-.75.26-1.12c.06-.19,0-.25-.19-.26s-.39,0-.45.28a.14.14,0,0,1-.22.1c-.05,0-.06-.06-.05-.1s0-.07.05-.11,0-.3.12-.38.27,0,.4,0Z"/><path class="cls-1" d="M66.66,34.68v0c0,.24,0,.25-.24.17s-.56.08-.5.41c0,.14.13.1.21.11s.18,0,.19.11,0,.12-.11.12H66c-.14,0-.21.05-.2.19a.4.4,0,0,0-.09.21,8.28,8.28,0,0,1-.26,1.2,1,1,0,0,1-.92.65c-.13,0-.11-.11-.1-.2s.07-.06.12-.05a1.15,1.15,0,0,0,.26,0,.27.27,0,0,0,.28-.15,2.77,2.77,0,0,0,.19-.62c.06-.36.16-.71.2-1.07,0-.16,0-.24-.16-.26s-.08,0-.08,0,.05,0,.08,0c.21,0,.27-.1.33-.27a.74.74,0,0,1,1-.56Z"/><path class="cls-1" d="M75.11,34.55h.26c.11,0,.15.09.12.2a2.41,2.41,0,0,0-.11.52c-.06.35-.18.68-.22,1,0,.13-.07.26-.08.39s0,.15.14.15.21,0,.23.1-.06.2-.19.25a1.2,1.2,0,0,1-.37,0s-.08,0-.09,0c-.16-.26-.33-.09-.49,0a.63.63,0,0,1-.85-.51,1.78,1.78,0,0,1,.1-.79,1,1,0,0,1,1.26-.59s.05,0,.08,0a.36.36,0,0,0,0-.41.49.49,0,0,1-.12-.13c-.06-.12,0-.2.11-.2ZM74.34,37l0,0c-.31-.07-.36-.14-.42-.45a1.09,1.09,0,0,1,.07-.56.64.64,0,0,1,.87-.42.13.13,0,0,1,.11.16,2.53,2.53,0,0,1-.12.56,1.73,1.73,0,0,1-.1.45.32.32,0,0,0,.25.42.59.59,0,0,0,.32-.08s.07,0,.06-.06,0,0-.08,0C75,37,75,36.9,75,36.69a3.48,3.48,0,0,1,.12-.56c.11-.44.19-.89.31-1.33,0-.11,0-.16-.13-.16H75s-.11,0-.12,0,0,.07.09.1a.22.22,0,0,1,.13.32.65.65,0,0,0,0,.13c0,.21-.1.21-.27.14a.65.65,0,0,0-.51,0,1.17,1.17,0,0,0-.63,1.45A.5.5,0,0,0,74.34,37Zm-.4-.66c0,.08,0,.15,0,.23s.12.24.3.25.35-.07.38-.22.11-.56.18-.84c0-.07,0-.11-.08-.14a.6.6,0,0,0-.69.25A1,1,0,0,0,73.94,36.35Z"/><path class="cls-1" d="M71.58,35.57a.25.25,0,0,1,0,.21c-.07.09-.17,0-.22,0s-.15-.15-.28-.11a.53.53,0,0,0-.35.3,3.27,3.27,0,0,0-.13.54,4.85,4.85,0,0,0-.08.55c0,.19-.18.1-.28.11s-.09-.08-.08-.15c.06-.34.13-.68.2-1,0-.17.08-.32-.13-.41a.12.12,0,0,1,0-.13s.06-.07.11-.08l.3,0c.1,0,.21,0,.19.14s0,.07.1,0a.74.74,0,0,0,.17-.12.39.39,0,0,1,.38-.1C71.56,35.31,71.6,35.42,71.58,35.57Z"/><path class="cls-1" d="M56.33,36.81v0s-.07,0-.1,0a.92.92,0,0,1-.82.24.57.57,0,0,1-.44-.36,1.22,1.22,0,0,1,0-.63,1,1,0,0,1,.64-.76.69.69,0,0,1,.87.32,1.08,1.08,0,0,1,0,.79C56.44,36.6,56.33,36.68,56.33,36.81Zm-.15-.41h0a.64.64,0,0,0,0-.72l-.06-.07c0-.14-.11-.1-.19-.1a.43.43,0,0,0-.46.22,1.27,1.27,0,0,0-.2.85c.06.31.21.46.51.39a.52.52,0,0,0,.34-.31s0,0,0,0l0-.07C56.22,36.54,56.17,36.46,56.18,36.4Z"/><path class="cls-1" d="M36.24,34.54h0c.3,0,.38.12.27.42a.33.33,0,0,0,0,.14c0,.25,0,.25.2.16a.69.69,0,0,1,.63.12.74.74,0,0,1,.06.68c0,.2-.1.39-.13.6s0,.18.14.17.21,0,.22.11,0,.19-.18.23a1.12,1.12,0,0,1-.31,0,.34.34,0,0,1-.34-.41q.08-.42.18-.84c.06-.25,0-.33-.25-.32s-.35.08-.42.37a4.42,4.42,0,0,1-.14.63,1.17,1.17,0,0,0,0,.38.16.16,0,0,1-.12.15.4.4,0,0,1-.35-.06.15.15,0,0,1,0-.2,1.47,1.47,0,0,0,.1-.4c.08-.47.22-.93.31-1.4,0-.1,0-.19-.07-.26a.19.19,0,0,1-.1-.24c0-.1.15-.07.23-.07h.13Zm0,.1h-.12s-.11,0-.13,0,.05.08.09.11a.19.19,0,0,1,.1.2,10.23,10.23,0,0,1-.23,1.1,9.08,9.08,0,0,1-.22.9s0,.07.05.09a.18.18,0,0,0,.28-.15,6.65,6.65,0,0,1,.19-1,2.62,2.62,0,0,0,.14-.63,5.09,5.09,0,0,1,.1-.51c0-.11,0-.17-.13-.16Zm.27.91h.08a.36.36,0,0,1,.42.07c.14.11.1.27.06.4a6.6,6.6,0,0,0-.17.77c0,.33.16.38.41.33a1.22,1.22,0,0,0,.17-.07s.06,0,.05,0,0,0-.07,0a.25.25,0,0,1-.24-.08.36.36,0,0,1,0-.35,6.91,6.91,0,0,0,.16-.79.36.36,0,0,0-.22-.39A.57.57,0,0,0,36.5,35.55Z"/><path class="cls-1" d="M46.43,36.68a4.28,4.28,0,0,1,.15-.83c0-.1,0-.17-.08-.23a.18.18,0,0,1-.08-.21c0-.09.09-.09.16-.1s.24-.07.38-.06.18.07.15.21-.08.44-.14.65a2,2,0,0,0-.08.55c0,.12,0,.16.17.17.36,0,.47-.11.53-.5s.13-.59.15-.89c0-.12.16-.2.3-.18s.17.11.15.23-.09.42-.13.63-.09.36-.12.54,0,.18.14.17h.08c.09,0,.17,0,.18.12a.18.18,0,0,1-.14.19l-.17,0a.35.35,0,0,1-.45-.11c-.06-.07-.1-.08-.19,0a.79.79,0,0,1-.45.18C46.59,37.23,46.43,37.07,46.43,36.68Zm.87.27c-.39,0-.56-.1-.49-.46s.13-.63.21-1c0-.12,0-.16-.12-.15l-.29,0s-.09,0-.1.05,0,.06.06.08.17.1.14.21-.07.33-.12.5a1.76,1.76,0,0,0-.07.56.27.27,0,0,0,.09.22A.55.55,0,0,0,47.3,37Zm.9.07-.05,0h-.06c-.19,0-.29-.11-.24-.28s.08-.37.12-.55a3.46,3.46,0,0,0,.13-.64c0-.08,0-.11-.1-.11s-.17,0-.16.08a1.63,1.63,0,0,1-.08.45c-.06.21-.07.43-.15.64a.43.43,0,0,0,0,.47c.14.14.3.08.46,0Z"/><path class="cls-1" d="M39,35.25a.59.59,0,0,1,.38.1.41.41,0,0,1,.17.43.47.47,0,0,1-.3.41,1.84,1.84,0,0,1-.77.13c-.13,0-.17,0-.11.17a.53.53,0,0,0,.8.27s0,0,.08,0,.15-.14.2,0a.22.22,0,0,1-.07.29,1.17,1.17,0,0,1-.63.22.71.71,0,0,1-.81-.78,1.17,1.17,0,0,1,.56-1A.85.85,0,0,1,39,35.25Zm-.34,1.84a1.31,1.31,0,0,0,.52-.11c.05,0,.13,0,.1-.1s-.09,0-.13,0a.75.75,0,0,1-.44.08c-.26,0-.36-.23-.44-.44a.27.27,0,0,1,.1-.32s0-.05,0-.08c-.14-.21,0-.33.13-.48s.1-.08.06-.13-.11,0-.15,0a1.17,1.17,0,0,0-.41.69A.64.64,0,0,0,38.63,37.09Zm-.11-1a.74.74,0,0,0,.49-.15.27.27,0,0,0,.1-.3c0-.12-.14-.14-.26-.13a.67.67,0,0,0-.45.47C38.39,36.08,38.45,36.1,38.52,36.09Zm.92-.37a.33.33,0,0,0-.25-.33s-.07,0-.1,0,0,.06,0,.08A.39.39,0,0,1,39,36s-.05,0,0,.06,0,0,.07,0A.4.4,0,0,0,39.44,35.72Zm-.81-.22s.08,0,.08,0,0,0,0,0-.08,0-.08,0S38.61,35.5,38.63,35.5Zm.66,1.31s0,0,0,0a0,0,0,0,0,0,0s0,0,0,0S39.32,36.81,39.29,36.81Z"/><path class="cls-1" d="M64.27,35.25a.62.62,0,0,1,.43.1.51.51,0,0,1-.17.86,2.59,2.59,0,0,1-.73.12c-.16,0-.18,0-.12.18.17.36.39.43.76.24l.14,0c.06,0,.12-.14.18,0a.23.23,0,0,1-.05.3.65.65,0,0,1-.22.11.94.94,0,0,1-1,0,.8.8,0,0,1-.3-.75,1.19,1.19,0,0,1,.6-1A.61.61,0,0,1,64.27,35.25Zm-.37.24a.42.42,0,0,0-.33.22,1.12,1.12,0,0,0-.22.92.6.6,0,0,0,.43.45,1.1,1.1,0,0,0,.81-.14s.14-.06.09-.14-.11,0-.16,0c-.22.11-.43.23-.67.07a.49.49,0,0,1-.2-.69s.08-.05,0-.1,0-.12,0-.19.17-.26.24-.4a.09.09,0,0,0,.09-.05.05.05,0,0,0,0,0C63.93,35.41,63.91,35.44,63.9,35.49Zm0,.6a1.16,1.16,0,0,0,.4-.09c.13-.07.22-.27.17-.36s-.23-.17-.4-.07a.84.84,0,0,0-.29.33C63.69,36,63.74,36.09,63.88,36.09Zm.64-.34a.27.27,0,0,1-.13.25s-.08,0,0,.1.07,0,.11,0a.47.47,0,0,0,.28-.2.34.34,0,0,0-.24-.53s-.08,0-.1,0,0,.07,0,.09S64.51,35.63,64.52,35.75Zm-.15-.37s0,0,0,0l0,0a0,0,0,0,0,0,0Z"/><path class="cls-1" d="M79.5,34.71a.43.43,0,0,1,0,.33.27.27,0,0,0,0,.12c0,.06,0,.15,0,.18s.11,0,.17-.06a.5.5,0,0,1,.77.47,3,3,0,0,1-.14.72,1.42,1.42,0,0,0,0,.2c0,.11,0,.16.14.16s.23,0,.22.14-.08.18-.26.16c0-.06.07-.07.12-.09s.07,0,0-.06a.07.07,0,0,0-.06,0c-.29,0-.34-.1-.26-.38a4,4,0,0,0,.16-.76.39.39,0,0,0-.24-.45.57.57,0,0,0-.61.19l.22,0c.26,0,.38.11.35.37a5,5,0,0,1-.11.53c-.06.24-.16.48,0,.71a.12.12,0,0,1-.19-.08.5.5,0,0,1,0-.34,2.22,2.22,0,0,0,.12-.58c0-.09.08-.15.07-.25s0-.23-.22-.24-.4.07-.46.39a5.84,5.84,0,0,0-.18,1c0,.11-.18.19-.34.15a.19.19,0,0,1-.16-.25c.1-.37.15-.74.25-1.11a4.61,4.61,0,0,1,.14-.62c.06-.14.09-.3-.09-.4a.15.15,0,0,1,0-.2c0-.07.08-.09.15-.09h.42c.07,0,.12,0,.09.1H79s-.1,0-.1,0a.07.07,0,0,0,.06.09c.13,0,.14.12.13.22a3.89,3.89,0,0,1-.09.47c-.1.31-.13.64-.21,1s-.06.34-.1.5-.08.09,0,.14a.27.27,0,0,0,.23,0C79,37.07,79,37,79,37a7.26,7.26,0,0,1,.22-1,4.27,4.27,0,0,0,.14-.64A1.19,1.19,0,0,1,79.5,34.71Z"/><path class="cls-1" d="M57.37,37.08v.05c-.11,0-.06.12-.07.19v0c-.11,0-.12.14-.18.21a1,1,0,0,1-.7.34c-.14,0-.14-.08-.14-.18s.09-.06.15-.06l.21,0c.21,0,.26,0,.34-.25a2.42,2.42,0,0,0,.1-.36,9.46,9.46,0,0,0,.23-1.18c0-.08.08-.15,0-.24s-.16,0-.23-.09a.08.08,0,0,0,0,0c.05,0,.11,0,.16,0a.22.22,0,0,0,.21-.15l.1-.24a.71.71,0,0,1,.81-.47c.07,0,.12,0,.13.11s0,.14-.13.12a1,1,0,0,0-.3-.07.51.51,0,0,0-.34.59.13.13,0,0,0,.1.07H58s.11,0,.11.07-.07.07-.12.07h-.2c-.06,0-.14,0-.15.07s-.14.33-.09.52v.15s-.07,0-.07,0C57.48,36.64,57.37,36.85,57.37,37.08Z"/><path class="cls-1" d="M67,35.41c0-.13.12-.13.18-.14a1.42,1.42,0,0,1,.58,0c.36.1.34.65.13.82a1.37,1.37,0,0,1-.74.25h0c-.08,0-.22-.07-.25.07a.36.36,0,0,0,.24.38.82.82,0,0,0,.66-.12c.13-.08.2,0,.21.11a.29.29,0,0,1-.12.25,1.12,1.12,0,0,1-1.22,0,.63.63,0,0,1-.23-.47,1.21,1.21,0,0,1,.47-1.14.12.12,0,0,1,.13,0c0,.06,0,.08-.07.11a1.07,1.07,0,0,0-.41,1.09.6.6,0,0,0,.6.51,1.32,1.32,0,0,0,.65-.18s.14-.06.1-.13-.12,0-.17,0a.8.8,0,0,1-.66.07c-.2-.06-.37-.47-.22-.64a.36.36,0,0,0,.07-.24h.3a.4.4,0,0,0,.35-.14.24.24,0,0,0,0-.25c0-.07-.12-.07-.19-.07a.4.4,0,0,0-.32.16s-.05.07-.1.05a.46.46,0,0,1,.63-.25s0,.06,0,.1a.54.54,0,0,1-.17.48l0,0s0,0,0,0a.42.42,0,0,0,.42-.27c.07-.19,0-.3-.16-.44a.49.49,0,0,0-.35-.08C67.31,35.32,67.19,35.43,67,35.41Z"/><path class="cls-1" d="M59.5,38h-.34c-.06,0-.11,0-.12-.08s0-.14,0-.15c.39-.14.31-.5.39-.78s.17-.74.25-1.11c0-.11,0-.22-.1-.28s-.11-.09-.09-.15a.17.17,0,0,1,.16-.14c.12,0,.25-.1.36-.05a1,1,0,0,0,.58,0,.62.62,0,0,1,.71.76,1.58,1.58,0,0,1-.21.73,1.1,1.1,0,0,1-.78.47.68.68,0,0,1-.32-.07c-.11,0-.16,0-.17.1s-.11.36.11.49,0,.13,0,.2-.08.06-.13.06Zm1.42-2.15-.05,0a.39.39,0,0,0-.59-.18s-.07,0-.11,0c-.06-.28-.06-.28-.34-.26h-.06s-.07,0-.09,0,0,.08,0,.09.11.15.1.24a5.61,5.61,0,0,1-.13.59l-.24,1c0,.14,0,.34-.25.37a.09.09,0,0,0-.06.08s.05,0,.09,0h.56s.1,0,.1,0a.09.09,0,0,0-.07-.09c-.14,0-.14-.14-.12-.24l.09-.37c0-.12.09-.16.21-.12a.59.59,0,0,0,.37.07,1,1,0,0,0,.6-.36,1.21,1.21,0,0,0,.22-1,.47.47,0,0,0-.64-.3s-.06,0-.06,0a.06.06,0,0,0,.06.05l.11,0A.36.36,0,0,1,60.92,35.85Z"/><path class="cls-1" d="M51.32,35.25a.76.76,0,0,1,.28,0,.43.43,0,0,1,.25.43.51.51,0,0,1-.28.49,1.51,1.51,0,0,1-.81.15c-.11,0-.12,0-.09.12a.46.46,0,0,0,.72.3.71.71,0,0,0,.15-.08c.06-.06.14-.09.18,0s.12.15.05.26a.58.58,0,0,1-.13.14,1.58,1.58,0,0,1-.73.18.75.75,0,0,1-.62-.4,1.2,1.2,0,0,1,.46-1.44A1,1,0,0,1,51.32,35.25ZM51,36.1c0,.07,0,.12.1.1a1.44,1.44,0,0,0,.4-.09.45.45,0,0,0,.3-.41.44.44,0,0,0-.32-.35.77.77,0,0,0-.63.09,1.12,1.12,0,0,0-.56,1.12.55.55,0,0,0,.29.44,1,1,0,0,0,.86,0c.06,0,.17,0,.13-.12s-.13,0-.18,0a.56.56,0,0,1-.56,0c-.18-.08-.21-.26-.27-.41a.24.24,0,0,1,.11-.29s0-.06,0-.1a.27.27,0,0,1,.14-.34s0,.07,0,.11-.07.23.12.23Zm.66.75a0,0,0,0,0,0,0l0,0s0,.05,0,.05S51.65,36.87,51.66,36.85Z"/><path class="cls-1" d="M83.52,35.32c.12,0,.16,0,.14.15l-.21.93a1.88,1.88,0,0,0,0,.33c0,.15,0,.19.19.17s.18-.06.21.05-.09.16-.19.16-.25.13-.4,0a.3.3,0,0,1-.18-.37c.07-.3.12-.61.19-.91a.21.21,0,0,0-.13-.28c-.07,0-.12-.07-.1-.14s.09-.08.15-.09Z"/><path class="cls-1" d="M57.56,36.21c-.05-.19.07-.34.09-.52s.09-.06.15-.07H58s.11,0,.12-.07-.07-.06-.11-.07h-.19a.13.13,0,0,1-.1-.07.51.51,0,0,1,.34-.59,1,1,0,0,1,.3.07c.11,0,.13,0,.13-.12s-.06-.1-.13-.11a.71.71,0,0,0-.81.47l-.1.24a.22.22,0,0,1-.21.15c-.05,0-.11,0-.16,0a.08.08,0,0,1,0,0c.07,0,.16,0,.23.09s0,.16,0,.24a9.46,9.46,0,0,1-.23,1.18,2.42,2.42,0,0,1-.1.36c-.08.2-.13.26-.34.25l-.21,0c-.06,0-.14-.08-.15.06s0,.18.14.18a1,1,0,0,0,.7-.34c.06-.07.07-.18.18-.21,0,.17-.11.26-.2.35a.78.78,0,0,1-.73.3.2.2,0,0,1-.17-.16c0-.12,0-.24.1-.32s.06,0,.09,0c.39.14.48,0,.57-.32s.15-.8.25-1.19c0-.19,0-.26-.15-.36a.15.15,0,0,1-.08-.18.14.14,0,0,1,.15-.13c.18,0,.23-.08.3-.23a.83.83,0,0,1,1-.58c.18,0,.11.2.12.31s-.09.13-.18.12l-.35,0c-.12,0-.18.08-.2.28s0,.15.15.14a.42.42,0,0,1,.15,0,.15.15,0,0,1,.1.18.12.12,0,0,1-.14.11H58c-.27,0-.29,0-.32.3C57.64,36.06,57.7,36.18,57.56,36.21Z"/><path class="cls-1" d="M40.2,24.91c.33,0,.33,0,.33-.32V22.91c0-.23,0-.26-.25-.26H32.47a.25.25,0,0,0-.17,0c0-.09,0-.13.11-.13h7.91c.27,0,.27,0,.27.27v1.94a.23.23,0,0,1-.36.22A.06.06,0,0,1,40.2,24.91Z"/><path class="cls-1" d="M41.75,34.71h.37c.07,0,.14,0,.15.09a.16.16,0,0,1-.11.21l-.18.06a.22.22,0,0,0-.1.15,3,3,0,0,1-.11.52c-.07.22-.07.45-.15.66a1.42,1.42,0,0,0,0,.36.11.11,0,0,0,.1.13c.1,0,.14.08.15.17s-.09.14-.16.14a7.15,7.15,0,0,1-.8,0c-.07,0-.12-.06-.14-.14a.15.15,0,0,1,.11-.16c.27,0,.26-.28.31-.46.1-.39.17-.79.27-1.19,0-.1.06-.22-.13-.23a.17.17,0,0,1-.12-.17.16.16,0,0,1,.16-.15Zm-.43.11c.2.23.23.35.18.55-.09.38-.17.77-.27,1.15,0,.18,0,.42-.3.46,0,0,0,0,0,.05s0,0,.06,0a5.82,5.82,0,0,0,.59,0s.07,0,.07,0,0,0-.06-.06a.2.2,0,0,1-.11-.22c.1-.44.21-.89.3-1.33a.68.68,0,0,1,.35-.6Z"/><path class="cls-1" d="M71.66,36.06a1,1,0,0,1,1.15-.81.53.53,0,0,1,.37.28.54.54,0,0,1-.14.55.68.68,0,0,1-.41.19,2.35,2.35,0,0,1-.54.06c-.1,0-.13,0-.11.13a.47.47,0,0,0,.59.38l.35-.13s.12-.1.17,0a.2.2,0,0,1,0,.27,1.28,1.28,0,0,1-.85.25.75.75,0,0,1-.63-.87c0-.1,0-.21.08-.29Zm1.1-.47s.07,0,.07,0a.38.38,0,0,1-.09.35s-.1,0-.06.11.1,0,.15,0a.43.43,0,0,0,.28-.43.45.45,0,0,0-.38-.34.9.9,0,0,0-.67.21,1.18,1.18,0,0,0-.41.76.67.67,0,0,0,.68.82,1.42,1.42,0,0,0,.46-.12c.07,0,.16,0,.22-.09s.07-.07,0-.13a.08.08,0,0,0-.12,0,1.92,1.92,0,0,1-.33.14.58.58,0,0,1-.51-.13.47.47,0,0,1-.13-.48c0-.1.17-.18,0-.3a.61.61,0,0,1,.69-.53s.1,0,.06.09a.52.52,0,0,0-.62.32c0,.05-.05.11,0,.11a.94.94,0,0,0,.44,0C72.76,35.9,72.74,35.74,72.76,35.59Z"/><path class="cls-1" d="M84.48,36.31v.09c0,.14,0,.31.13.38a.6.6,0,0,0,.54,0c.19-.1.3-.11.35,0s0,.23-.19.31a1.43,1.43,0,0,1-.53.17.78.78,0,0,1-.69-.62,1.27,1.27,0,0,1,.31-1,.86.86,0,0,1,1-.27.32.32,0,0,1,.2.36c0,.16-.11.2-.25.12l-.26-.14a.41.41,0,0,0-.58.39,2.61,2.61,0,0,0,0,.28Zm.26.78a1.06,1.06,0,0,0,.59-.18s.08,0,0-.09-.07,0-.1,0l-.25.12a.41.41,0,0,1-.59-.37c0-.22,0-.44,0-.66,0,0,0-.13,0-.15s-.09.05-.12.11a1.06,1.06,0,0,0-.11.76C84.24,36.85,84.49,37.13,84.74,37.09Zm-.07-1.64a.23.23,0,0,0,.17,0,.74.74,0,0,1,.45.13c.07.05.14.09.19,0a.16.16,0,0,0-.1-.21A.84.84,0,0,0,84.67,35.45Z"/><path class="cls-1" d="M79.1,31.74a.09.09,0,0,1-.09-.11v-6c0-.22,0-.22-.23-.17-.46.1-.93.18-1.39.29a3.71,3.71,0,0,1-.48.1.11.11,0,0,0-.08.09c0,.05,0,.06.07.07l.58.21a.49.49,0,0,1,.38.52c-.1-.38-.43-.45-.73-.55a2,2,0,0,0-.26-.1.18.18,0,0,1-.13-.16c0-.11.07-.1.13-.12a3.55,3.55,0,0,1,.78-.19c.17,0,.35-.09.52-.11a5.27,5.27,0,0,1,.69-.14c.23,0,.24,0,.24.22v6.11Z"/><path class="cls-1" d="M86.82,35.25a.59.59,0,0,1,.49.14.54.54,0,0,1,0,.72,1.6,1.6,0,0,1-.79.25c-.08,0-.2-.06-.23,0a.33.33,0,0,0,.1.31c.14.17.34.13.52.09a.93.93,0,0,0,.27-.12c.12-.07.21,0,.22.1a.25.25,0,0,1-.12.26,2.2,2.2,0,0,1-.71.19.78.78,0,0,1-.75-.75,1.63,1.63,0,0,1,.22-.74,1.44,1.44,0,0,1,.56-.48C86.62,35.22,86.73,35.25,86.82,35.25Zm-.32,1a1,1,0,0,0,.7-.19.38.38,0,0,0,0-.57.63.63,0,0,0-.66-.07,1.13,1.13,0,0,0-.69.84.72.72,0,0,0,.14.66.91.91,0,0,0,1.18,0s.11-.07,0-.14-.09,0-.14,0l-.08.05a.54.54,0,0,1-.88-.35c0-.19,0-.29.23-.29Z"/><path class="cls-1" d="M49.36,35.49c.1,0,.15-.08.22-.14a.42.42,0,0,1,.54,0c.12.12.05.27.05.41s-.08.07-.13.09-.11,0-.16,0a.34.34,0,0,0-.56.08.62.62,0,0,0-.08.24c0,.22-.09.44-.14.67,0,0,0,.11,0,.17s0,.18-.08.2a.45.45,0,0,1-.36,0c-.06,0,0-.12,0-.18.08-.36.15-.72.23-1.09a.21.21,0,0,0-.12-.25.14.14,0,0,1-.06-.18c0-.07.07-.1.14-.11a1,1,0,0,0,.33-.05c.09,0,.14,0,.21.08S49.34,35.43,49.36,35.49Zm-.26-.08H49c-.11,0-.14.07-.07.13a.33.33,0,0,1,.07.37c-.09.33-.11.68-.23,1,0,0,0,.13.07.14s.18,0,.19-.1a5.49,5.49,0,0,1,.27-1.2.5.5,0,0,0,0-.34C49.2,35.36,49.11,35.42,49.1,35.41Zm.78-.06a.22.22,0,0,0-.14,0s-.09,0-.09.07.05.06.09.07.11.1.17.14,0,.08.08.05.09,0,.1-.11S50,35.35,49.88,35.35Z"/><path class="cls-1" d="M77.25,35.94c0,.15,0,.29,0,.43a.4.4,0,0,0,.21.42.5.5,0,0,0,.5-.06.1.1,0,0,0,.05,0,.16.16,0,0,1,.26,0,.2.2,0,0,1,0,.28.91.91,0,0,1-.53.25.74.74,0,0,1-.78-.28.89.89,0,0,1-.12-.85,1.46,1.46,0,0,1,.3-.53,1,1,0,0,1,1.16-.23c.1.05.17.42.09.49a.15.15,0,0,1-.16,0L78,35.72a.4.4,0,0,0-.64.17.09.09,0,0,1-.08,0,.44.44,0,0,1,.59-.4c.11,0,.21.11.32.16s.09,0,.12,0a.21.21,0,0,0-.08-.27.8.8,0,0,0-.82.06,1.05,1.05,0,0,0-.52.77.8.8,0,0,0,.25.74A.83.83,0,0,0,78,37c.08,0,.19-.09.14-.18s-.14,0-.21,0a.64.64,0,0,1-.63,0A.8.8,0,0,1,77.25,35.94Z"/><path class="cls-1" d="M79.5,34.71a1.19,1.19,0,0,0-.15.58,4.27,4.27,0,0,1-.14.64A7.26,7.26,0,0,0,79,37s0,.11-.06.13a.27.27,0,0,1-.23,0c-.07-.05,0-.09,0-.14s.06-.33.1-.5.11-.64.21-1a3.89,3.89,0,0,0,.09-.47c0-.1,0-.19-.13-.22a.07.07,0,0,1-.06-.09c0-.06.06,0,.1,0h.47Z"/><path class="cls-1" d="M66.66,34.67a.74.74,0,0,0-1,.56c-.06.17-.12.3-.33.27,0,0-.07,0-.08,0s.05,0,.08,0,.18.1.16.26c0,.36-.14.71-.2,1.07a2.77,2.77,0,0,1-.19.62.27.27,0,0,1-.28.15,1.15,1.15,0,0,1-.26,0s-.11-.07-.12.05,0,.18.1.2a1,1,0,0,0,.92-.65,8.28,8.28,0,0,0,.26-1.2.4.4,0,0,1,.09-.21.86.86,0,0,1,0,.39,2.43,2.43,0,0,0-.1.55,2,2,0,0,1-.28.78.89.89,0,0,1-.84.43.18.18,0,0,1-.19-.14.34.34,0,0,1,.1-.33s0,0,.08,0c.32.13.49.05.57-.3s.09-.42.14-.62.08-.5.15-.74,0-.15-.1-.18-.18-.06-.16-.16a.2.2,0,0,1,.22-.19c.12,0,.19,0,.22-.18a.88.88,0,0,1,1-.63C66.64,34.56,66.69,34.59,66.66,34.67Z"/><path class="cls-1" d="M69.9,35.57c0,.09,0,.22-.07.26a.27.27,0,0,1-.32-.08.25.25,0,0,0-.35,0,1.2,1.2,0,0,0-.31.82,3.29,3.29,0,0,0,0,.44c0,.13-.11.21-.25.2s-.23-.09-.23-.22a2.36,2.36,0,0,1,.11-.6c.06-.19.06-.4.13-.59s0-.12-.07-.17-.16-.08-.13-.18a.25.25,0,0,1,.21-.18,2.56,2.56,0,0,1,.39,0,.13.13,0,0,1,.1,0c.06.16.15.08.23,0a.4.4,0,0,1,.24-.07C69.82,35.24,69.9,35.26,69.9,35.57Zm-.82.09c-.11,0-.08-.09-.09-.14s0-.19-.2-.16a.86.86,0,0,1-.23,0s-.1,0-.11,0,0,.07.08.09a.32.32,0,0,1,.11.39c-.08.32-.16.65-.22,1s0,.23.21.18.11-.1.11-.18a3.38,3.38,0,0,1,.1-.71,1,1,0,0,1,.24-.54h0c.2-.08.4-.17.56.08a.07.07,0,0,0,.1,0,.44.44,0,0,0,0-.3c0-.07-.07-.08-.13-.09C69.38,35.3,69.23,35.48,69.08,35.66Z"/><path class="cls-1" d="M62.24,36a.2.2,0,0,1,0,.17,4.81,4.81,0,0,0-.12.76c0,.08,0,.18-.12.2a.42.42,0,0,1-.33,0c-.06,0,0-.1,0-.15a3.74,3.74,0,0,1,.13-.65c0-.19.08-.37.12-.55s0-.11-.08-.15-.18-.1-.15-.2a.26.26,0,0,1,.23-.17l.33,0s.09,0,.11,0,.22.1.33,0a.47.47,0,0,1,.4,0,.16.16,0,0,1,.14.17,1.21,1.21,0,0,1,0,.19c0,.07,0,.17-.06.21a.31.31,0,0,1-.28,0c-.23-.16-.38-.12-.53.13a.12.12,0,0,1-.08.06.14.14,0,0,1,0-.15c.15-.13.06-.3,0-.42s-.18,0-.28,0h-.14s-.09,0-.09,0a.09.09,0,0,0,.06.1c.1,0,.17.11.14.22s-.08.39-.12.59-.09.41-.13.62a.09.09,0,0,0,.06.12.18.18,0,0,0,.25-.19,5.32,5.32,0,0,1,.14-.78A.13.13,0,0,1,62.24,36Zm.2-.4a.36.36,0,0,1,.53.08c0,.06.11,0,.13,0,.08-.25,0-.38-.29-.33A.58.58,0,0,0,62.44,35.64Z"/><path class="cls-1" d="M52.68,36.11a.08.08,0,0,1,0,.11,4.13,4.13,0,0,0-.13.77c0,.08,0,.17-.11.19a.37.37,0,0,1-.35,0c-.06-.05,0-.14,0-.21l.24-1.08c0-.08,0-.15-.08-.18a.19.19,0,0,1-.12-.2c0-.08.07-.14.17-.17a2,2,0,0,1,.42,0,.13.13,0,0,1,.13.09c0,.11.11.08.17,0a.52.52,0,0,1,.41-.12.25.25,0,0,1,.24.25v.18c0,.07,0,.14-.09.16a.25.25,0,0,1-.26,0,.32.32,0,0,0-.53.1c0,.05,0,.12-.11.15a.19.19,0,0,1,0-.17c.14-.12.07-.27.08-.41s-.05-.13-.15-.12l-.27.06s-.11,0-.12,0,0,.09.08.12a.21.21,0,0,1,.13.23,4.52,4.52,0,0,1-.11.53c-.07.21-.08.42-.14.63s0,.17.14.16.19,0,.18-.17a4.92,4.92,0,0,1,.11-.77A.05.05,0,0,1,52.68,36.11Zm.22-.46c.2-.13.37-.13.51.08a.08.08,0,0,0,.12,0,.36.36,0,0,0,0-.27c0-.08-.06-.1-.13-.11C53.17,35.29,53,35.45,52.9,35.65Z"/><path class="cls-1" d="M80,37.13c-.2-.23-.1-.47,0-.71a5,5,0,0,0,.11-.53c0-.26-.09-.37-.35-.37l-.22,0a.57.57,0,0,1,.61-.19.39.39,0,0,1,.24.45,4,4,0,0,1-.16.76c-.08.28,0,.38.26.38a.07.07,0,0,1,.06,0c0,.05,0,.05,0,.06s-.11,0-.12.09h-.16a.31.31,0,0,0-.19,0Z"/><path class="cls-1" d="M82.57,36.06a1.15,1.15,0,0,1-.55,1,.84.84,0,0,1-1.16-.24,1,1,0,0,1-.06-.8,1.49,1.49,0,0,1,.32-.56.87.87,0,0,1,.61-.26.73.73,0,0,1,.78.43C82.58,35.8,82.54,35.93,82.57,36.06Zm-.09.08a.76.76,0,0,0-.31-.72.84.84,0,0,0-.9.08,1.31,1.31,0,0,0-.41.7.93.93,0,0,0,.17.74.86.86,0,0,0,1.27-.22A1.12,1.12,0,0,0,82.48,36.14Z"/><path class="cls-1" d="M52.68,36.11a.05.05,0,0,0-.06.06,4.92,4.92,0,0,0-.11.77c0,.12-.06.17-.18.17s-.17,0-.14-.16.07-.42.14-.63a4.52,4.52,0,0,0,.11-.53.21.21,0,0,0-.13-.23s-.11-.05-.08-.12.08,0,.12,0l.27-.06c.1,0,.16,0,.15.12s.06.29-.08.41a.19.19,0,0,0,0,.17Z"/><path class="cls-1" d="M56.33,36.81c0-.13.11-.21.14-.33a1.08,1.08,0,0,0,0-.79.69.69,0,0,0-.87-.32,1,1,0,0,0-.64.76,1.22,1.22,0,0,0,0,.63.57.57,0,0,0,.44.36.92.92,0,0,0,.82-.24s.05-.06.1,0a.2.2,0,0,1-.06.14.89.89,0,0,1-1.34-.09.72.72,0,0,1-.11-.33,1.23,1.23,0,0,1,.52-1.2.94.94,0,0,1,1,.06.69.69,0,0,1,.22.41,1.41,1.41,0,0,1-.16.92A.11.11,0,0,1,56.33,36.81Z"/><path class="cls-1" d="M78.39,23.72a.9.9,0,0,1-.91-.88,1,1,0,0,1,.87-.94.94.94,0,0,1,.94.92A.88.88,0,0,1,78.39,23.72Zm0-.08a.85.85,0,0,0,.86-.82.84.84,0,0,0-.86-.79.78.78,0,0,0-.81.79A.8.8,0,0,0,78.37,23.64Z"/><path class="cls-1" d="M62.24,36a.13.13,0,0,0-.06.09,5.32,5.32,0,0,0-.14.78.18.18,0,0,1-.25.19.09.09,0,0,1-.06-.12c0-.21.09-.42.13-.62S62,36,62,35.77s0-.18-.14-.22a.09.09,0,0,1-.06-.1s0,0,.09,0H62c.1,0,.24-.1.28,0s.13.29,0,.42a.14.14,0,0,0,0,.15Z"/><path class="cls-1" d="M77.26,32c0,.08-.1.07-.16.08a.86.86,0,0,0-.23.06c-.07,0-.12,0-.11.13s.08.08.14.08a6.26,6.26,0,0,0,.75,0h1.5a3.57,3.57,0,0,0,.8,0s.11,0,.12-.07a.13.13,0,0,0-.1-.15c-.16,0-.34-.07-.5-.12s-.19,0-.19-.12a3.06,3.06,0,0,1,.79.2c.11,0,.06.17.06.25s-.07.09-.13.09H76.91c-.11,0-.2,0-.2-.16s0-.22.17-.23S77.12,32,77.26,32Z"/><path class="cls-1" d="M59.83,31.93c0,.09-.09.09-.16.09H57a.13.13,0,0,1-.16-.11.15.15,0,0,1,.11-.2c0,.21,0,.22.2.22h2.68Z"/><path class="cls-1" d="M57.56,30.82a1.9,1.9,0,0,1,.3-.49c.3-.47.62-.93.92-1.39,0-.05.08,0,.1-.08s0,.1,0,.13c-.24.36-.46.73-.72,1.07a8.45,8.45,0,0,0-.5.72A.1.1,0,0,1,57.56,30.82Z"/><path class="cls-1" d="M83.6,34.54a.24.24,0,0,1,.27.26.27.27,0,0,1-.29.27.25.25,0,0,1-.27-.28C83.31,34.62,83.41,34.54,83.6,34.54Zm0,.09c-.11,0-.16.06-.16.17a.15.15,0,0,0,.17.17c.1,0,.2,0,.21-.17S83.69,34.63,83.56,34.63Z"/><path class="cls-1" d="M32.3,24.88c.26.09.36.05.42-.21a1.66,1.66,0,0,0,.11-.38c0-.05.05-.06.08-.09.05.18-.1.31-.12.47a.49.49,0,0,1,0,.16.29.29,0,0,1-.4.16A.09.09,0,0,1,32.3,24.88Z"/><path class="cls-1" d="M57.37,37.08c0-.23.11-.44.11-.67,0,0,0-.06.07,0s0,0,0,0l-.12.6C57.44,37.06,57.41,37.07,57.37,37.08Z"/><path class="cls-1" d="M77.76,31.83c-.05.16-.19.22-.41.19A.05.05,0,0,1,77.4,32,1.18,1.18,0,0,0,77.76,31.83Z"/><path class="cls-1" d="M57.29,37.32c0-.07,0-.16.07-.19S57.39,37.28,57.29,37.32Z"/><path class="cls-1" d="M79.26,31.92c-.09,0-.12,0-.12-.11S79.27,31.83,79.26,31.92Z"/><path class="cls-1" d="M77.86,31.64c0,.09,0,.16-.09.18S77.81,31.69,77.86,31.64Z"/><path class="cls-1" d="M65.45,13.36a.17.17,0,0,1,0-.1C65.52,13.3,65.52,13.33,65.45,13.36Z"/><path class="cls-1" d="M80,37.13a.31.31,0,0,1,.19,0A.13.13,0,0,1,80,37.13Z"/><polygon class="cls-1" points="71.66 36.06 71.66 36.06 71.65 36.05 71.66 36.06"/><path class="cls-1" d="M65.44,13s0,0,0,0h0s0,0,0,0S65.46,13,65.44,13Z"/><path class="cls-1" d="M86.58,18.58s0,0,0-.06S86.58,18.55,86.58,18.58Z"/><path class="cls-1" d="M69.3,32.45h0S69.32,32.48,69.3,32.45Z"/><path class="cls-1" d="M70.84,32.45h0S70.86,32.48,70.84,32.45Z"/><polygon class="cls-1" points="66.66 34.68 66.67 34.69 66.67 34.68 66.66 34.68"/><path class="cls-2" d="M11,2.36c0,.15.13.22.2.33s.23.32.32.5a4.23,4.23,0,0,1,.27.57c.05.15.09.29.14.43a4.31,4.31,0,0,1,.11.49,5,5,0,0,1,0,1.77c0,.19-.07.39-.1.59a6.37,6.37,0,0,1-.26,1,5.26,5.26,0,0,1-.44,1,4.49,4.49,0,0,1-.44.69,6,6,0,0,1-1,1c-.38.3-.78.58-1.15.9a3.63,3.63,0,0,0-.34.34c-.13.14-.28.27-.4.42A14.66,14.66,0,0,0,7,13.56a17.33,17.33,0,0,0-1,1.65,8.66,8.66,0,0,0-.52,1.06c-.15.4-.28.82-.41,1.23a5.55,5.55,0,0,0-.22,1,2.57,2.57,0,0,0,0,1,1.35,1.35,0,0,1,0,.35A2.56,2.56,0,0,0,5.17,21c.08.14.18.16.29.05a4.86,4.86,0,0,0,.74-1c.18-.3.36-.6.51-.91a5.82,5.82,0,0,0,.34-.77c.1-.29.26-.57.34-.87s.23-.59.32-.9.22-.6.33-.9c.19-.53.44-1,.67-1.54a12.34,12.34,0,0,1,.74-1.39c.13-.22.28-.43.42-.64s.24-.39.38-.57.38-.52.59-.76.4-.49.63-.72.44-.39.64-.61a8.8,8.8,0,0,1,.73-.64c.25-.22.54-.4.8-.62s.77-.59,1.16-.89,1-.77,1.58-1.16A9.79,9.79,0,0,0,17.8,4.92a7.39,7.39,0,0,0,1-1.45A11.7,11.7,0,0,0,19.51,2c.15-.41.25-.83.4-1.23A1,1,0,0,0,20,.31a.11.11,0,0,1,.1-.11c.05,0,.07,0,.09.1.15.46.37.89.53,1.34s.24.61.33.91.14.56.22.83.13.79.24,1.18a.07.07,0,0,1,0,.05,14.12,14.12,0,0,1,.06,1.95,6.14,6.14,0,0,1-.15,1.13,1.89,1.89,0,0,0-.09.52.91.91,0,0,1-.07.25c-.14.33-.19.67-.34,1s-.37.86-.59,1.28c-.13.26-.3.5-.45.75a6.05,6.05,0,0,1-.4.63c-.3.44-.64.86-1,1.28a18.84,18.84,0,0,1-1.8,1.88c-.39.36-.78.73-1.2,1.06l-.8.6a6.44,6.44,0,0,0-.7.57.25.25,0,0,0,0,.4c.24.26.49.5.74.75l.44.45,1.09,1.09c.36.36.74.71,1.1,1.08s1,1,1.53,1.53l.9.91a.38.38,0,0,0,.44,0c.23-.21.46-.42.68-.64l.64-.6c.17-.16.32-.34.5-.48s.45-.44.69-.65.52-.54.81-.76.59-.56.89-.83.67-.62,1-.95.4-.36.6-.53a4.18,4.18,0,0,1,.5-.43.51.51,0,0,1,.26-.09c.6,0,1.2,0,1.8,0a1.5,1.5,0,0,0,.3,0,.08.08,0,0,1,.1.05c0,.06,0,.08,0,.1a1.78,1.78,0,0,0-.51,1.27q0,3.18,0,6.38V36a1.08,1.08,0,0,0,.08.56.57.57,0,0,0,.43.35c.2,0,.32.33.26.51s-.12.08-.19.08H25.37a.5.5,0,0,1-.21,0c-.07,0-.19,0-.2-.11s0-.27.12-.35a.79.79,0,0,0,.4-.8c0-2.09,0-4.17,0-6.26,0-.94,0-1.88,0-2.82-.1-2.07,0-4.14-.06-6.21,0-.09,0-.19-.1-.23a.27.27,0,0,0-.31.06c-.37.37-.78.71-1.16,1.06l-1.38,1.28a7.17,7.17,0,0,0-.68.67,3.74,3.74,0,0,1-.29.25c-.31.28-.62.58-.94.86s-.41.42-.65.59a.25.25,0,0,1-.37,0l-.86-.8-.7-.61c-.32-.3-.66-.59-1-.89s-.43-.4-.65-.6l-1.5-1.36c-.51-.47-1-.95-1.58-1.39a2,2,0,0,1-.3-.36c0-.05-.08,0-.12,0l-.27-.21a.32.32,0,0,0-.47,0,6.49,6.49,0,0,0-.76.89,7,7,0,0,0-.51.7A9.63,9.63,0,0,0,10,22.33l-.42,1a1.38,1.38,0,0,0-.08.27c0,.3-.16.59-.22.89A9.29,9.29,0,0,0,9,25.92c0,.62,0,1.23,0,1.85a4.23,4.23,0,0,0,.12.93c.09.34.13.7.25,1s.28.85.47,1.27a9.26,9.26,0,0,0,.74,1.39,9.81,9.81,0,0,0,.72,1c.29.35.59.69.91,1s.82.78,1.24,1.16.82.67,1.25,1c.28.2.57.39.86.57l.62.4a8.2,8.2,0,0,0,.87.5,1.52,1.52,0,0,1,.38.24c.09.08.26,0,.31.18l0,0a8.17,8.17,0,0,1-1.48.16,6.73,6.73,0,0,1-1.09-.12c-.24,0-.48-.07-.72-.13A6.49,6.49,0,0,1,13.23,38c-.24-.11-.48-.19-.72-.28-.42-.17-.81-.37-1.21-.56s-.66-.37-1-.56c-.5-.29-1-.6-1.46-.94s-.79-.57-1.16-.88-.91-.75-1.33-1.17-.83-.79-1.23-1.2c-.23-.22-.44-.47-.66-.7-.38-.41-.73-.85-1.07-1.28a12.09,12.09,0,0,1-.79-1.09,15.88,15.88,0,0,1-1.14-2.06,14.43,14.43,0,0,1-.6-1.54c-.11-.35-.21-.71-.3-1.07s-.12-.43-.15-.65-.08-.5-.12-.75C.21,22.88.2,22.45.15,22s0-.78,0-1.17a14.85,14.85,0,0,1,.11-1.76A9.2,9.2,0,0,1,.5,17.64a11.54,11.54,0,0,1,.77-2.18,18.7,18.7,0,0,1,1-1.82A22.59,22.59,0,0,1,3.91,11.3c.43-.54.89-1.05,1.35-1.56S6.47,8.51,7.1,7.91A11.79,11.79,0,0,0,8,7,6.05,6.05,0,0,0,8.9,5.61a8.18,8.18,0,0,0,.36-1,4.39,4.39,0,0,0,.17-1.35V2a.78.78,0,0,0,0-.3.14.14,0,0,1,0-.16c.06-.06.11,0,.16,0a2.75,2.75,0,0,1,1,.57,3.47,3.47,0,0,1,.37.3s0,0,.06,0Z"/><path class="cls-1" d="M46.1,5.58a.74.74,0,0,0-.24.4c-.2.59-.4,1.19-.62,1.77s-.36,1-.53,1.47c-.09.24-.16.49-.27.73-.23.51-.37,1.06-.58,1.58s-.28.73-.41,1.1-.25.71-.37,1.07l-.4,1.08c-.08.22-.14.44-.23.66s-.17.52-.3.78a4.69,4.69,0,0,0-.2.6,8.7,8.7,0,0,1-.39.88c-.13.31-.27.62-.41.93s-.22.52-.35.76-.23.07-.35.08-.13-.06-.16-.14l-.3-.88c-.11-.29-.22-.57-.31-.86s-.15-.38-.22-.58-.13-.37-.2-.56-.2-.57-.31-.86-.2-.57-.31-.85-.2-.56-.31-.84-.19-.54-.29-.82-.19-.54-.29-.82-.15-.41-.22-.62c-.14-.36-.28-.72-.41-1.09s-.2-.58-.3-.86-.21-.54-.3-.82-.23-.58-.31-.88-.14-.37-.21-.56-.2-.58-.31-.86a6.14,6.14,0,0,0-.33-.88s0-.07-.07-.05,0,0,0,.07,0,.15,0,.22V18a.78.78,0,0,0,.71.77,2.59,2.59,0,0,1,.48.12A4.42,4.42,0,0,0,37,19a.28.28,0,0,1,.17.4c-.05.07-.12.06-.19.06H32.67c-.08,0-.18,0-.19-.11s0-.31.16-.35a9,9,0,0,0,.89-.24c.12,0,.24-.05.35-.09a.76.76,0,0,0,.5-.63c0-.12,0-.24,0-.36,0-3.88,0-7.77,0-11.66a.83.83,0,0,0-.73-.83A8.46,8.46,0,0,1,32.57,5a.09.09,0,0,1-.08-.11.81.81,0,0,0,0-.16c0-.14.05-.17.18-.17h4a.23.23,0,0,1,.27.18c.08.26.18.52.27.79s.2.59.33.88.19.55.29.82.26.75.41,1.11c.08.2.14.41.21.62s.19.53.28.8l.21.56c.14.37.28.74.41,1.11s.19.55.29.82.27.73.4,1.1.31.87.46,1.31l.54,1.57c0,.07,0,.18.13.18s.09-.11.11-.18c.11-.26.2-.53.29-.8l.29-.81q.15-.45.33-.9l.3-.79a4.79,4.79,0,0,0,.24-.73c.08-.33.26-.62.35-.94s.22-.59.31-.9.16-.38.23-.58.13-.38.2-.56.21-.59.31-.88.13-.42.22-.62.19-.55.31-.82.12-.37.2-.56.21-.59.32-.88.2-.51.28-.77c0-.09.06-.13.16-.13h4.08c.11,0,.18,0,.18.17s0,.23-.14.27c-.4.08-.8.19-1.2.26a.68.68,0,0,0-.55.63,2.26,2.26,0,0,0,0,.26V18a.74.74,0,0,0,.43.76,3.34,3.34,0,0,0,.43.1c.3.08.61.14.92.2.08,0,.13.05.12.14s0,0,0,0c0,.31,0,.31-.29.31-1.75,0-3.49,0-5.23,0-.17,0-.22-.06-.21-.21a.86.86,0,0,0,0-.16c0-.08.05-.11.13-.13l1.07-.23a.88.88,0,0,0,.62-.37.48.48,0,0,0,.09-.3c0-.07,0-.13,0-.19q0-6,0-12Z"/><path class="cls-1" d="M71.57,13.56H68.33c-.12,0-.19,0-.22.16a.94.94,0,0,0,0,.55,1,1,0,0,1,0,.24,4.62,4.62,0,0,0,.13,1,5.87,5.87,0,0,0,.51,1.44,3,3,0,0,0,1.78,1.5,4.55,4.55,0,0,0,1.76.13,3.85,3.85,0,0,0,1.14-.3,5.47,5.47,0,0,0,1.47-.88s.09-.06.12-.05,0,.08,0,.13a.75.75,0,0,0,0,.15.67.67,0,0,1-.32.7,6.74,6.74,0,0,1-2.22,1.2,4.6,4.6,0,0,1-1.42.24,6.78,6.78,0,0,1-.91,0,4.45,4.45,0,0,1-2.27-1,3.86,3.86,0,0,1-1-1.22,5,5,0,0,1-.4-.95,10.08,10.08,0,0,1-.26-1.33,8.22,8.22,0,0,1,0-1.4,5.91,5.91,0,0,1,.13-.94c.06-.25.12-.51.2-.75a4,4,0,0,1,.37-.88A4.93,4.93,0,0,1,68,9.87a4.7,4.7,0,0,1,1.57-.93,4.63,4.63,0,0,1,1.73-.25,3.7,3.7,0,0,1,1.57.41,3.65,3.65,0,0,1,1.33,1.07,4,4,0,0,1,.69,1.36,5.33,5.33,0,0,1,.16,1.73c0,.26,0,.3-.3.3Zm-.89-.62H73c.2,0,.26,0,.24-.25a11,11,0,0,0-.12-1.14,4.88,4.88,0,0,0-.36-1.1,2,2,0,0,0-2.52-1,2.37,2.37,0,0,0-1.23.95,4.41,4.41,0,0,0-.65,1.41,4.81,4.81,0,0,0-.2.93c0,.23,0,.24.22.24Z"/><path class="cls-1" d="M67,29.32c0,.65,0,1.3,0,1.95a.59.59,0,0,0,.82.54c.13,0,.28,0,.42-.08s.07,0,.08.07a.26.26,0,0,1-.13.27,2.23,2.23,0,0,1-1.44.47.81.81,0,0,1-.84-.84c0-.08,0-.18-.05-.21s-.14.06-.19.12a2.18,2.18,0,0,1-1.17.81,2.61,2.61,0,0,1-1.44.06,1.7,1.7,0,0,1-1.12-.95,1.93,1.93,0,0,1,.76-2.43,4.08,4.08,0,0,1,1.11-.49,6.32,6.32,0,0,1,1.89-.13c.18,0,.21,0,.21-.18,0-.48,0-1,0-1.43a.83.83,0,0,0-.44-.81,1.56,1.56,0,0,0-1-.07,3.44,3.44,0,0,0-1.45.73,4.17,4.17,0,0,1-.37.26c-.12.07-.18,0-.21-.09s-.11-.51-.17-.77c0-.09,0-.15.11-.2a5,5,0,0,1,1.07-.42,4.4,4.4,0,0,1,1.25-.14,3,3,0,0,1,1.39.4A2,2,0,0,1,67,26.89a2,2,0,0,1,.08.55v1.88ZM65.87,30h0c0-.32,0-.64,0-1,0-.14,0-.19-.19-.19a4.44,4.44,0,0,0-1.8.35A1.39,1.39,0,0,0,63,30.47a1.72,1.72,0,0,0,.1.6,1,1,0,0,0,.52.6,1.44,1.44,0,0,0,.94.12,2.55,2.55,0,0,0,.92-.37.7.7,0,0,0,.37-.65C65.85,30.5,65.87,30.23,65.87,30Z"/><path class="cls-1" d="M85.9,29.29v2a.56.56,0,0,0,.81.55c.13-.05.27,0,.41-.08s.12.12.08.22a.48.48,0,0,1-.21.19,2.05,2.05,0,0,1-1.5.39.76.76,0,0,1-.68-.78c0-.06,0-.12,0-.18s-.09-.1-.15,0a1.31,1.31,0,0,0-.2.28,1.11,1.11,0,0,1-.45.38,2.65,2.65,0,0,1-1.74.35,1.62,1.62,0,0,1-1.36-1,1.89,1.89,0,0,1-.16-.94,2.1,2.1,0,0,1,.29-.84,2.54,2.54,0,0,1,1.15-.9,4.48,4.48,0,0,1,2.26-.35c.43,0,.36.05.37-.35V27a1.27,1.27,0,0,0-.32-.9.54.54,0,0,0-.38-.16,2.29,2.29,0,0,0-1.38.26,6.41,6.41,0,0,0-1,.68c-.07.06-.17.14-.23.12a.3.3,0,0,1-.12-.28c0-.21-.11-.41-.11-.63a.23.23,0,0,1,.14-.24,5.87,5.87,0,0,1,1-.39,4.26,4.26,0,0,1,1.28-.13,2.35,2.35,0,0,1,1.92,1,1.68,1.68,0,0,1,.31.94c0,.65,0,1.31,0,2Zm-1.1.65h0c0-.32,0-.64,0-1,0-.16-.06-.21-.2-.2a4.64,4.64,0,0,0-1.69.31,1.69,1.69,0,0,0-.71.55,1.49,1.49,0,0,0-.24,1.1,1.17,1.17,0,0,0,1,1.09,1.83,1.83,0,0,0,1.67-.52.64.64,0,0,0,.19-.46C84.79,30.55,84.8,30.24,84.8,29.94Z"/><path class="cls-1" d="M45.56,29.29v2a.58.58,0,0,0,.86.53,1,1,0,0,1,.38-.05c.13,0,.08.13.06.2s-.15.15-.24.21a2.08,2.08,0,0,1-1.28.39.79.79,0,0,1-.75-.4,1,1,0,0,1-.13-.5c0-.06,0-.15,0-.17s-.1,0-.15.09a4.25,4.25,0,0,1-.48.47,2.63,2.63,0,0,1-1.32.49,2,2,0,0,1-1.42-.32,1.62,1.62,0,0,1-.6-.81,1.93,1.93,0,0,1,0-1.21,1.89,1.89,0,0,1,.71-1,3.67,3.67,0,0,1,1.44-.64,5.58,5.58,0,0,1,1.63-.07c.28,0,.28,0,.28-.28s0-.79,0-1.18a1.32,1.32,0,0,0-.2-.73.73.73,0,0,0-.62-.31,2.54,2.54,0,0,0-1.52.36c-.35.2-.65.46-1,.68-.08.05-.14.06-.16,0l-.18-.87c0-.09,0-.14.11-.19A4,4,0,0,1,42,25.51a3.88,3.88,0,0,1,1.31-.14,2.44,2.44,0,0,1,2,1,1.74,1.74,0,0,1,.31,1v1.95Zm-1.11.65h0c0-.31,0-.61,0-.92s0-.21-.21-.21a4.43,4.43,0,0,0-1.79.35,1.4,1.4,0,0,0-.76.75,1.6,1.6,0,0,0,0,1.06,1.13,1.13,0,0,0,1.16.85,2,2,0,0,0,1.27-.41.81.81,0,0,0,.36-.7C44.44,30.45,44.45,30.19,44.45,29.94Z"/><path class="cls-1" d="M45,35.41c.19,0,.35-.1.54-.08a1.17,1.17,0,0,1,.37.08c.05,0,.1.05.09.11s0,.17-.06.22-.14-.06-.18-.12a.47.47,0,0,0-.73,0,.25.25,0,0,0,.13.36l.45.18a.52.52,0,0,1,.25.21.45.45,0,0,1-.14.5.9.9,0,0,1-.42.19,1.67,1.67,0,0,1-.7-.06.17.17,0,0,1-.08-.16c0-.08,0-.17.06-.21s.1,0,.14.08a.55.55,0,0,0,.79.14.27.27,0,0,0,0-.46c-.17-.08-.35-.12-.52-.21a.4.4,0,0,1-.06-.69s.12,0,.1-.11Z"/><path class="cls-1" d="M43.33,35.44a.72.72,0,0,1,.59,0,.4.4,0,0,1,.14.43c-.06.23-.12.47-.17.71s0,.32.23.48a.79.79,0,0,1-.3,0,.24.24,0,0,1-.21-.33,3,3,0,0,0,.16-.72c0-.09.09-.15.06-.25s-.12-.29-.32-.28A.2.2,0,0,1,43.33,35.44Z"/><path class="cls-1" d="M42.58,35.43c.11,0,.21,0,.32,0s.16.11.13.2-.12.48-.19.71a1.64,1.64,0,0,0-.09.62c0,.09,0,.13-.12.14s-.19,0-.15-.18a3.9,3.9,0,0,0,.16-.77c0-.08.07-.13.08-.21s0-.34-.16-.45Z"/><polygon class="cls-1" points="44.43 36.96 44.42 36.97 44.41 36.96 44.42 36.95 44.43 36.96"/><path class="cls-1" d="M74.34,37a.5.5,0,0,1-.73-.19,1.17,1.17,0,0,1,.63-1.45.65.65,0,0,1,.51,0c.17.07.26.07.27-.14a.65.65,0,0,1,0-.13.22.22,0,0,0-.13-.32s-.09,0-.09-.1.08,0,.12,0h.32c.12,0,.16,0,.13.16-.12.44-.2.89-.31,1.33a3.48,3.48,0,0,0-.12.56c0,.21.06.28.27.27,0,0,.07,0,.08,0s0,0-.06.06a.59.59,0,0,1-.32.08.32.32,0,0,1-.25-.42,1.73,1.73,0,0,0,.1-.45,2.53,2.53,0,0,0,.12-.56.13.13,0,0,0-.11-.16.64.64,0,0,0-.87.42,1.09,1.09,0,0,0-.07.56c.06.31.11.38.42.45Z"/><path class="cls-1" d="M56.18,36.39a4.35,4.35,0,0,0,0-.72A.64.64,0,0,1,56.18,36.39Z"/><path class="cls-1" d="M56.08,35.6a.19.19,0,0,1-.19-.1C56,35.5,56.07,35.46,56.08,35.6Z"/><path class="cls-1" d="M56.11,36.55a.21.21,0,0,1,.07-.15C56.17,36.46,56.22,36.54,56.11,36.55Z"/><path class="cls-1" d="M56.08,36.65s0,0,0,0S56.1,36.64,56.08,36.65Z"/><path class="cls-1" d="M36.23,34.64h.12c.12,0,.15,0,.13.16a5.09,5.09,0,0,0-.1.51,2.62,2.62,0,0,1-.14.63,6.65,6.65,0,0,0-.19,1,.18.18,0,0,1-.28.15s-.06,0-.05-.09a9.08,9.08,0,0,0,.22-.9,10.23,10.23,0,0,0,.23-1.1.19.19,0,0,0-.1-.2s-.1,0-.09-.11.09,0,.13,0Z"/><path class="cls-1" d="M36.5,35.55a.57.57,0,0,1,.64-.19.36.36,0,0,1,.22.39,6.91,6.91,0,0,1-.16.79.36.36,0,0,0,0,.35.25.25,0,0,0,.24.08s.07,0,.07,0,0,0-.05,0a1.22,1.22,0,0,1-.17.07c-.25,0-.45,0-.41-.33a6.6,6.6,0,0,1,.17-.77c0-.13.08-.29-.06-.4a.36.36,0,0,0-.42-.07Z"/><path class="cls-1" d="M47.3,37a.55.55,0,0,1-.69.08.27.27,0,0,1-.09-.22,1.76,1.76,0,0,1,.07-.56c0-.17.07-.34.12-.5s-.06-.16-.14-.21-.07,0-.06-.08.06-.05.1-.05l.29,0c.12,0,.15,0,.12.15-.08.32-.15.63-.21,1S46.91,37,47.3,37Z"/><path class="cls-1" d="M48.2,37l-.09,0c-.16.06-.32.12-.46,0a.43.43,0,0,1,0-.47c.08-.21.09-.43.15-.64a1.63,1.63,0,0,0,.08-.45c0-.11.09-.07.16-.08s.1,0,.1.11a3.46,3.46,0,0,1-.13.64c0,.18-.07.37-.12.55s0,.27.24.28h.06Z"/><path class="cls-1" d="M38.63,37.09a.64.64,0,0,1-.63-.86,1.17,1.17,0,0,1,.41-.69s.1-.09.15,0,0,.09-.06.13-.27.27-.13.48c0,0,0,.05,0,.08a.27.27,0,0,0-.1.32c.08.21.18.4.44.44a.75.75,0,0,0,.44-.08s.1-.09.13,0,0,.08-.1.1A1.31,1.31,0,0,1,38.63,37.09Z"/><path class="cls-1" d="M39.44,35.72a.4.4,0,0,1-.39.39s-.06,0-.07,0,0,0,0-.06a.39.39,0,0,0,.1-.53s0,0,0-.08.07,0,.1,0A.33.33,0,0,1,39.44,35.72Z"/><path class="cls-1" d="M38.63,35.5s0,0,0,0,0,0,.08,0,0,0,0,0S38.66,35.49,38.63,35.5Z"/><path class="cls-1" d="M39.29,36.81s0,0,0,0,0,0,0,0a0,0,0,0,1,0,0S39.27,36.81,39.29,36.81Z"/><path class="cls-1" d="M63.93,35.52c-.07.14-.2.24-.24.4s-.07.12,0,.19,0,.07,0,.1a.49.49,0,0,0,.2.69c.24.16.45,0,.67-.07,0,0,.12-.08.16,0s-.05.12-.09.14a1.1,1.1,0,0,1-.81.14.6.6,0,0,1-.43-.45,1.12,1.12,0,0,1,.22-.92.42.42,0,0,1,.33-.22Z"/><path class="cls-1" d="M64.52,35.75c0-.12,0-.2-.09-.25s-.06,0,0-.09.07,0,.1,0a.34.34,0,0,1,.24.53.47.47,0,0,1-.28.2s-.09,0-.11,0,0-.07,0-.1A.27.27,0,0,0,64.52,35.75Z"/><path class="cls-1" d="M63.9,35.49c0-.05,0-.08.09-.07a.05.05,0,0,1,0,0,.09.09,0,0,1-.09.05Z"/><path class="cls-1" d="M64.37,35.38l0,0a0,0,0,0,1,0,0l0,0S64.36,35.35,64.37,35.38Z"/><path class="cls-1" d="M67.53,36.1a.54.54,0,0,0,.17-.48s0-.07,0-.1a.46.46,0,0,0-.63.25h0a.13.13,0,0,0-.08.17V36a.36.36,0,0,1-.07.24c-.15.17,0,.58.22.64a.8.8,0,0,0,.66-.07c.05,0,.13-.09.17,0s0,.11-.1.13a1.32,1.32,0,0,1-.65.18.6.6,0,0,1-.6-.51A1.07,1.07,0,0,1,67,35.53s.09-.05.07-.11h0c.15,0,.27-.09.42-.08a.49.49,0,0,1,.35.08c.18.14.23.25.16.44a.42.42,0,0,1-.42.27Z"/><path class="cls-1" d="M67.55,36.12s0,0,0,0l0,0Z"/><path class="cls-1" d="M60.92,35.85a.36.36,0,0,0-.25-.34l-.11,0a.06.06,0,0,1-.06-.05s0,0,.06,0a.47.47,0,0,1,.64.3,1.21,1.21,0,0,1-.22,1,1,1,0,0,1-.6.36A.59.59,0,0,1,60,37c-.12,0-.18,0-.21.12l-.09.37c0,.1,0,.21.12.24a.09.09,0,0,1,.07.09c0,.06-.06,0-.1,0h-.56s-.08,0-.09,0a.09.09,0,0,1,.06-.08c.23,0,.22-.23.25-.37l.24-1a5.61,5.61,0,0,0,.13-.59c0-.09,0-.19-.1-.24s-.07,0,0-.09.06,0,.09,0h.06c.28,0,.28,0,.34.26s-.08.3-.12.46,0,.28-.08.42c-.1.32-.1.33.23.36a.54.54,0,0,0,.59-.31h0v0h0c.07,0,0,0,0-.08h0c.1,0,.1-.1.06-.18A1.36,1.36,0,0,0,60.92,35.85Z"/><path class="cls-1" d="M50.8,35.75a.27.27,0,0,0-.14.34s.06.06,0,.1a.24.24,0,0,0-.11.29c.06.15.09.33.27.41a.56.56,0,0,0,.56,0s.13-.12.18,0-.07.1-.13.12a1,1,0,0,1-.86,0,.55.55,0,0,1-.29-.44,1.12,1.12,0,0,1,.56-1.12.77.77,0,0,1,.63-.09.44.44,0,0,1,.32.35.45.45,0,0,1-.3.41,1.44,1.44,0,0,1-.4.09c-.09,0-.1,0-.1-.1h.08c.16,0,.27,0,.31-.16h0c.16,0,.09-.17.1-.26s0-.15-.1-.14-.22,0-.34,0-.1,0-.08.07h0c-.13,0-.17,0-.14.14Z"/><path class="cls-1" d="M51.66,36.85s0,0,0,0,0,0,0-.05l0,0A0,0,0,0,1,51.66,36.85Z"/><path class="cls-1" d="M41.32,34.82h.78a.68.68,0,0,0-.35.6c-.09.44-.2.89-.3,1.33a.2.2,0,0,0,.11.22s.07,0,.06.06,0,0-.07,0a5.82,5.82,0,0,1-.59,0s-.06,0-.06,0,0,0,0-.05c.27,0,.25-.28.3-.46.1-.38.18-.77.27-1.15C41.55,35.17,41.52,35.05,41.32,34.82Z"/><path class="cls-1" d="M72.74,35.58c0-.07,0-.08-.06-.09A.61.61,0,0,0,72,36c.13.12,0,.2,0,.3a.47.47,0,0,0,.13.48.58.58,0,0,0,.51.13,1.92,1.92,0,0,0,.33-.14.08.08,0,0,1,.12,0c0,.06,0,.09,0,.13s-.15.06-.22.09a1.42,1.42,0,0,1-.46.12.67.67,0,0,1-.68-.82,1.18,1.18,0,0,1,.41-.76.9.9,0,0,1,.67-.21.45.45,0,0,1,.38.34.43.43,0,0,1-.28.43s-.12,0-.15,0,0-.08.06-.11a.38.38,0,0,0,.09-.35s0-.07-.07,0Z"/><path class="cls-1" d="M84.74,37.09c-.25,0-.5-.24-.55-.46a1.06,1.06,0,0,1,.11-.76c0-.06.07-.12.12-.11s0,.1,0,.15c0,.22,0,.44,0,.66a.41.41,0,0,0,.59.37l.25-.12s.07,0,.1,0,0,.07,0,.09A1.06,1.06,0,0,1,84.74,37.09Z"/><path class="cls-1" d="M84.67,35.45a.84.84,0,0,1,.71,0,.16.16,0,0,1,.1.21c0,.08-.12,0-.19,0a.74.74,0,0,0-.45-.13A.23.23,0,0,1,84.67,35.45Z"/><path class="cls-1" d="M86.5,36.21h-.12c-.2,0-.27.1-.23.29a.54.54,0,0,0,.88.35l.08-.05s.09-.08.14,0,0,.11,0,.14a.91.91,0,0,1-1.18,0,.72.72,0,0,1-.14-.66,1.13,1.13,0,0,1,.69-.84.63.63,0,0,1,.66.07.38.38,0,0,1,0,.57A1,1,0,0,1,86.5,36.21Zm.54-.4a.38.38,0,0,0,0-.21c0-.07,0-.1-.09-.09a.46.46,0,0,0-.52.18c-.08.12-.24.23-.11.41a.12.12,0,0,0,.18,0h.16c.12,0,.22,0,.26-.12l.06,0C87.07,35.93,87.05,35.87,87,35.81Z"/><path class="cls-1" d="M49.1,35.41s.1,0,.12,0a.5.5,0,0,1,0,.34A5.49,5.49,0,0,0,49,37c0,.14-.11.11-.19.1s-.09-.09-.07-.14c.12-.33.14-.68.23-1a.33.33,0,0,0-.07-.37c-.07-.06,0-.12.07-.13Z"/><path class="cls-1" d="M49.88,35.35c.16,0,.23.09.21.25s-.06.08-.1.11-.05,0-.08-.05-.09-.12-.17-.14-.09,0-.09-.07.06-.05.09-.07A.22.22,0,0,1,49.88,35.35Z"/><path class="cls-1" d="M77.25,35.94a.8.8,0,0,0,.09.9.64.64,0,0,0,.63,0c.07,0,.16-.11.21,0S78.12,37,78,37a.83.83,0,0,1-.93,0,.8.8,0,0,1-.25-.74,1.05,1.05,0,0,1,.52-.77.8.8,0,0,1,.82-.06.21.21,0,0,1,.08.27c0,.07-.08,0-.12,0s-.21-.12-.32-.16a.44.44,0,0,0-.59.4Z"/><path class="cls-1" d="M69.08,35.66a1,1,0,0,0-.24.54,3.38,3.38,0,0,0-.1.71c0,.08,0,.16-.11.18s-.24,0-.21-.18.14-.66.22-1a.32.32,0,0,0-.11-.39s-.09,0-.08-.09.07,0,.11,0a.86.86,0,0,0,.23,0c.15,0,.18,0,.2.16s0,.15.09.14Z"/><path class="cls-1" d="M69.08,35.66c.15-.18.3-.36.57-.32.06,0,.12,0,.13.09a.44.44,0,0,1,0,.3.07.07,0,0,1-.1,0c-.16-.25-.36-.16-.56-.08Z"/><path class="cls-1" d="M62.44,35.64a.58.58,0,0,1,.37-.3c.25-.05.37.08.29.33,0,.08-.09.11-.13,0A.36.36,0,0,0,62.44,35.64Z"/><path class="cls-1" d="M52.9,35.65c.13-.2.27-.36.53-.31.07,0,.12,0,.13.11a.36.36,0,0,1,0,.27.08.08,0,0,1-.12,0C53.27,35.52,53.1,35.52,52.9,35.65Z"/><path class="cls-1" d="M82.48,36.14a1.12,1.12,0,0,1-.18.58.86.86,0,0,1-1.27.22.93.93,0,0,1-.17-.74,1.31,1.31,0,0,1,.41-.7.84.84,0,0,1,.9-.08A.76.76,0,0,1,82.48,36.14Zm-1.15.74h0s0,0,0,0a.42.42,0,0,0,.61-.2h0a1.24,1.24,0,0,0,.19-.9.23.23,0,0,0-.14-.18h0c0-.13-.12-.16-.22-.16s-.33,0-.4.16a.65.65,0,0,0-.2.45c-.13.13-.08.3-.08.46s0,.15.08.17v.05C81.23,36.85,81.26,36.89,81.33,36.88Z"/><path class="cls-1" d="M78.37,23.64a.8.8,0,0,1-.81-.82.78.78,0,0,1,.81-.79.84.84,0,0,1,.86.79A.85.85,0,0,1,78.37,23.64Z"/><path class="cls-1" d="M83.56,34.63c.13,0,.22,0,.22.17s-.11.16-.21.17a.15.15,0,0,1-.17-.17C83.4,34.69,83.45,34.61,83.56,34.63Z"/><path class="cls-1" d="M70.68,12.94h-2.3c-.22,0-.23,0-.22-.24a4.81,4.81,0,0,1,.2-.93A4.41,4.41,0,0,1,69,10.36a2.37,2.37,0,0,1,1.23-.95,2,2,0,0,1,2.52,1,4.88,4.88,0,0,1,.36,1.1,11,11,0,0,1,.12,1.14c0,.2,0,.25-.24.25Zm0-.1H73a.15.15,0,0,0,.15-.19l0-.35a4.85,4.85,0,0,0-.39-1.67,2.13,2.13,0,0,0-.82-1,2,2,0,0,0-1.26-.21A2.24,2.24,0,0,0,69.4,10a3.75,3.75,0,0,0-1,1.79c-.07.25-.1.51-.18.76s0,.25.21.25Z"/><path class="cls-1" d="M84.8,29.94c0,.3,0,.61,0,.91a.64.64,0,0,1-.19.46,1.83,1.83,0,0,1-1.67.52,1.17,1.17,0,0,1-1-1.09,1.49,1.49,0,0,1,.24-1.1,1.69,1.69,0,0,1,.71-.55,4.64,4.64,0,0,1,1.69-.31c.14,0,.2,0,.2.2,0,.32,0,.64,0,1Zm-.09,0h0c0-.31,0-.61,0-.92,0-.14,0-.18-.18-.18a4.67,4.67,0,0,0-1.53.29,1.4,1.4,0,0,0-.88,1.89,1.07,1.07,0,0,0,1,.69A2.23,2.23,0,0,0,84,31.6a1.27,1.27,0,0,0,.64-.47.38.38,0,0,0,.08-.24Z"/><path class="cls-1" d="M67,35.78c0,.08,0,.15-.08.17A.13.13,0,0,1,67,35.78Z"/><path class="cls-1" d="M60.86,36.48c0-.07,0-.14.06-.18S61,36.45,60.86,36.48Z"/><path class="cls-1" d="M60.82,36.57s0-.06,0-.08S60.89,36.57,60.82,36.57Z"/><path class="cls-1" d="M60.79,36.6l0,0v0Z"/><path class="cls-1" d="M51.08,36.1a1.14,1.14,0,0,1,.31-.16C51.35,36.08,51.24,36.13,51.08,36.1Z"/><path class="cls-1" d="M51.39,35.94c0-.14.1-.27,0-.4.12,0,.11.07.1.14S51.55,35.9,51.39,35.94Z"/><path class="cls-1" d="M51.05,35.51c0,.07,0,.07-.08.07S51,35.5,51.05,35.51Z"/><path class="cls-1" d="M86.66,36.1a.68.68,0,0,1,.26-.12C86.88,36.12,86.78,36.12,86.66,36.1Z"/><path class="cls-1" d="M87,35.93s0-.1.06-.12S87.07,35.93,87,35.93Z"/><path class="cls-1" d="M87,35.6c-.07,0-.08-.05-.09-.09S87.05,35.53,87,35.6Z"/><path class="cls-1" d="M86.32,36.1a.28.28,0,0,1,.18,0A.12.12,0,0,1,86.32,36.1Z"/><path class="cls-1" d="M82,36.73c0-.08,0-.13,0-.19a1.36,1.36,0,0,0,0-.89.23.23,0,0,1,.14.18,1.24,1.24,0,0,1-.19.9Z"/><path class="cls-1" d="M81.33,36.89c.13,0,.24,0,.37,0s.15-.15.26-.16a.42.42,0,0,1-.61.2S81.34,36.91,81.33,36.89Z"/><path class="cls-1" d="M82.05,35.65a.1.1,0,0,1-.09,0,.36.36,0,0,0-.43,0s-.06,0-.1,0c.07-.19.24-.17.4-.16S82,35.52,82.05,35.65Z"/><path class="cls-1" d="M81.23,36.1v.63c-.1,0-.07-.11-.08-.17S81.1,36.23,81.23,36.1Z"/><path class="cls-1" d="M81.24,36.78c.07,0,.11,0,.09.1S81.23,36.85,81.24,36.78Z"/></g></g></svg>