<svg width="187" height="52" viewBox="0 0 187 52" fill="none" xmlns="http://www.w3.org/2000/svg">
<rect width="186.914" height="52" rx="26" fill="url(#paint0_linear_1337_1703)"/>
<path fill-rule="evenodd" clip-rule="evenodd" d="M41.0095 18.9048C39.1381 17.0333 36.6476 16 33.9952 16C28.5286 16 24.0857 20.4476 24.081 25.9095C24.081 27.6571 24.5381 29.3619 25.4048 30.8619L24 36L29.2571 34.6238C30.7048 35.4143 32.3333 35.8286 33.9952 35.8286H34C39.4619 35.8286 43.9095 31.381 43.9143 25.919C43.9143 23.2667 42.881 20.7762 41.0095 18.9048ZM34 34.1524C32.519 34.1524 31.0667 33.7524 29.8048 33.0048L29.5048 32.8286L26.3857 33.6476L27.219 30.6095L27.0238 30.3C26.2 28.9905 25.7619 27.4714 25.7619 25.9143C25.7619 21.3714 29.4619 17.6762 34.0048 17.6762C36.2048 17.6762 38.2762 18.5333 39.8286 20.0905C41.3857 21.6476 42.2429 23.719 42.2381 25.919C42.2333 30.4571 38.5381 34.1524 34 34.1524ZM38.519 27.9857C38.2714 27.8619 37.0524 27.2619 36.8286 27.181C36.6 27.1 36.4381 27.0571 36.2714 27.3048C36.1048 27.5524 35.6333 28.1095 35.4857 28.2762C35.3429 28.4429 35.1952 28.4619 34.9476 28.3381C34.7 28.2143 33.9 27.9524 32.9571 27.1095C32.219 26.4524 31.7238 25.6429 31.581 25.3952C31.4381 25.1476 31.5667 25.0143 31.6905 24.8905C31.8 24.781 31.9381 24.6 32.0619 24.4571C32.1857 24.3143 32.2286 24.2095 32.3095 24.0429C32.3905 23.8762 32.3524 23.7333 32.2905 23.6095C32.2286 23.4857 31.7333 22.2667 31.5286 21.7714C31.3286 21.2905 31.1238 21.3524 30.9714 21.3476C30.8286 21.3381 30.6619 21.3381 30.4952 21.3381C30.3286 21.3381 30.0619 21.4 29.8333 21.6476C29.6048 21.8952 28.9667 22.4952 28.9667 23.7143C28.9667 24.9333 29.8524 26.1095 29.9762 26.2762C30.1 26.4429 31.7238 28.9429 34.2095 30.0143C34.8 30.2714 35.2619 30.4238 35.6238 30.5381C36.219 30.7286 36.7571 30.7 37.1857 30.6381C37.6619 30.5667 38.6524 30.0381 38.8571 29.4619C39.0619 28.8857 39.0619 28.3857 39 28.2857C38.9286 28.1714 38.7667 28.1095 38.519 27.9857Z" fill="white"/>
<path d="M61.0021 31.5V20.3H63.0501V29.9H68.0101V31.5H61.0021ZM72.8632 31.692C72.0632 31.692 71.3539 31.5213 70.7352 31.18C70.1165 30.8387 69.6312 30.3587 69.2792 29.74C68.9272 29.1213 68.7512 28.4067 68.7512 27.596C68.7512 26.7747 68.9219 26.044 69.2632 25.404C69.6152 24.764 70.0952 24.268 70.7032 23.916C71.3219 23.5533 72.0472 23.372 72.8792 23.372C73.6579 23.372 74.3459 23.5427 74.9432 23.884C75.5405 24.2253 76.0045 24.6947 76.3352 25.292C76.6765 25.8787 76.8472 26.5347 76.8472 27.26C76.8472 27.3773 76.8419 27.5 76.8312 27.628C76.8312 27.756 76.8259 27.8893 76.8152 28.028H70.7832C70.8259 28.6467 71.0392 29.132 71.4232 29.484C71.8179 29.836 72.2925 30.012 72.8472 30.012C73.2632 30.012 73.6099 29.9213 73.8872 29.74C74.1752 29.548 74.3885 29.3027 74.5272 29.004H76.6072C76.4579 29.5053 76.2072 29.964 75.8552 30.38C75.5139 30.7853 75.0872 31.1053 74.5752 31.34C74.0739 31.5747 73.5032 31.692 72.8632 31.692ZM72.8792 25.036C72.3779 25.036 71.9352 25.18 71.5512 25.468C71.1672 25.7453 70.9219 26.172 70.8152 26.748H74.7672C74.7352 26.2253 74.5432 25.8093 74.1912 25.5C73.8392 25.1907 73.4019 25.036 72.8792 25.036ZM81.5651 31.5C80.7331 31.5 80.0664 31.2973 79.5651 30.892C79.0637 30.4867 78.8131 29.7667 78.8131 28.732V25.276H77.4531V23.564H78.8131L79.0531 21.436H80.8611V23.564H83.0051V25.276H80.8611V28.748C80.8611 29.132 80.9411 29.3987 81.1011 29.548C81.2717 29.6867 81.5597 29.756 81.9651 29.756H82.9571V31.5H81.5651ZM83.9794 24.236L84.8594 20.3H87.0194L85.3874 24.236H83.9794ZM90.6497 31.692C89.9457 31.692 89.327 31.58 88.7937 31.356C88.2604 31.1213 87.8337 30.8013 87.5137 30.396C87.1937 29.9907 87.0017 29.5213 86.9377 28.988H89.0017C89.0657 29.2973 89.2364 29.564 89.5137 29.788C89.8017 30.0013 90.1697 30.108 90.6177 30.108C91.0657 30.108 91.391 30.0173 91.5937 29.836C91.807 29.6547 91.9137 29.4467 91.9137 29.212C91.9137 28.8707 91.7644 28.6413 91.4657 28.524C91.167 28.396 90.751 28.2733 90.2177 28.156C89.8764 28.0813 89.5297 27.9907 89.1777 27.884C88.8257 27.7773 88.5004 27.644 88.2017 27.484C87.9137 27.3133 87.679 27.1 87.4977 26.844C87.3164 26.5773 87.2257 26.252 87.2257 25.868C87.2257 25.164 87.503 24.572 88.0577 24.092C88.623 23.612 89.4124 23.372 90.4257 23.372C91.3644 23.372 92.111 23.5907 92.6657 24.028C93.231 24.4653 93.567 25.068 93.6737 25.836H91.7377C91.6204 25.2493 91.1777 24.956 90.4097 24.956C90.0257 24.956 89.727 25.0307 89.5137 25.18C89.311 25.3293 89.2097 25.516 89.2097 25.74C89.2097 25.9747 89.3644 26.1613 89.6737 26.3C89.983 26.4387 90.3937 26.5667 90.9057 26.684C91.4604 26.812 91.967 26.956 92.4257 27.116C92.895 27.2653 93.2684 27.4947 93.5457 27.804C93.823 28.1027 93.9617 28.5347 93.9617 29.1C93.9724 29.5907 93.8444 30.0333 93.5777 30.428C93.311 30.8227 92.927 31.132 92.4257 31.356C91.9244 31.58 91.3324 31.692 90.6497 31.692ZM103.908 31.692C102.778 31.692 101.807 31.452 100.996 30.972C100.186 30.4813 99.5618 29.804 99.1244 28.94C98.6871 28.0653 98.4684 27.0573 98.4684 25.916C98.4684 24.7747 98.6871 23.7667 99.1244 22.892C99.5618 22.0173 100.186 21.3347 100.996 20.844C101.807 20.3533 102.778 20.108 103.908 20.108C105.252 20.108 106.351 20.444 107.204 21.116C108.068 21.7773 108.607 22.7107 108.82 23.916H106.564C106.426 23.308 106.127 22.8333 105.668 22.492C105.22 22.14 104.623 21.964 103.876 21.964C102.842 21.964 102.031 22.316 101.444 23.02C100.858 23.724 100.564 24.6893 100.564 25.916C100.564 27.1427 100.858 28.108 101.444 28.812C102.031 29.5053 102.842 29.852 103.876 29.852C104.623 29.852 105.22 29.692 105.668 29.372C106.127 29.0413 106.426 28.588 106.564 28.012H108.82C108.607 29.164 108.068 30.0653 107.204 30.716C106.351 31.3667 105.252 31.692 103.908 31.692ZM113.993 31.692C113.225 31.692 112.532 31.516 111.913 31.164C111.305 30.812 110.82 30.3267 110.457 29.708C110.105 29.0787 109.929 28.3533 109.929 27.532C109.929 26.7107 110.111 25.9907 110.473 25.372C110.836 24.7427 111.321 24.252 111.929 23.9C112.548 23.548 113.241 23.372 114.009 23.372C114.767 23.372 115.449 23.548 116.057 23.9C116.676 24.252 117.161 24.7427 117.513 25.372C117.876 25.9907 118.057 26.7107 118.057 27.532C118.057 28.3533 117.876 29.0787 117.513 29.708C117.161 30.3267 116.676 30.812 116.057 31.164C115.439 31.516 114.751 31.692 113.993 31.692ZM113.993 29.916C114.527 29.916 114.991 29.7187 115.385 29.324C115.78 28.9187 115.977 28.3213 115.977 27.532C115.977 26.7427 115.78 26.1507 115.385 25.756C114.991 25.3507 114.532 25.148 114.009 25.148C113.465 25.148 112.996 25.3507 112.601 25.756C112.217 26.1507 112.025 26.7427 112.025 27.532C112.025 28.3213 112.217 28.9187 112.601 29.324C112.996 29.7187 113.46 29.916 113.993 29.916ZM119.488 31.5V23.564H121.296L121.456 24.908C121.702 24.4387 122.054 24.0653 122.512 23.788C122.982 23.5107 123.531 23.372 124.16 23.372C125.142 23.372 125.904 23.6813 126.448 24.3C126.992 24.9187 127.264 25.8253 127.264 27.02V31.5H125.216V27.212C125.216 26.5293 125.078 26.0067 124.8 25.644C124.523 25.2813 124.091 25.1 123.504 25.1C122.928 25.1 122.454 25.3027 122.08 25.708C121.718 26.1133 121.536 26.6787 121.536 27.404V31.5H119.488ZM128.823 31.5V23.564H130.631L130.791 24.908C131.036 24.4387 131.388 24.0653 131.847 23.788C132.316 23.5107 132.865 23.372 133.495 23.372C134.476 23.372 135.239 23.6813 135.783 24.3C136.327 24.9187 136.599 25.8253 136.599 27.02V31.5H134.551V27.212C134.551 26.5293 134.412 26.0067 134.135 25.644C133.857 25.2813 133.425 25.1 132.839 25.1C132.263 25.1 131.788 25.3027 131.415 25.708C131.052 26.1133 130.871 26.6787 130.871 27.404V31.5H128.823ZM142.013 31.692C141.213 31.692 140.504 31.5213 139.885 31.18C139.267 30.8387 138.781 30.3587 138.429 29.74C138.077 29.1213 137.901 28.4067 137.901 27.596C137.901 26.7747 138.072 26.044 138.413 25.404C138.765 24.764 139.245 24.268 139.853 23.916C140.472 23.5533 141.197 23.372 142.029 23.372C142.808 23.372 143.496 23.5427 144.093 23.884C144.691 24.2253 145.155 24.6947 145.485 25.292C145.827 25.8787 145.997 26.5347 145.997 27.26C145.997 27.3773 145.992 27.5 145.981 27.628C145.981 27.756 145.976 27.8893 145.965 28.028H139.933C139.976 28.6467 140.189 29.132 140.573 29.484C140.968 29.836 141.443 30.012 141.997 30.012C142.413 30.012 142.76 29.9213 143.037 29.74C143.325 29.548 143.539 29.3027 143.677 29.004H145.757C145.608 29.5053 145.357 29.964 145.005 30.38C144.664 30.7853 144.237 31.1053 143.725 31.34C143.224 31.5747 142.653 31.692 142.013 31.692ZM142.029 25.036C141.528 25.036 141.085 25.18 140.701 25.468C140.317 25.7453 140.072 26.172 139.965 26.748H143.917C143.885 26.2253 143.693 25.8093 143.341 25.5C142.989 25.1907 142.552 25.036 142.029 25.036ZM151.208 31.692C150.397 31.692 149.682 31.516 149.064 31.164C148.445 30.812 147.954 30.3213 147.592 29.692C147.24 29.0627 147.064 28.3427 147.064 27.532C147.064 26.7213 147.24 26.0013 147.592 25.372C147.954 24.7427 148.445 24.252 149.064 23.9C149.682 23.548 150.397 23.372 151.208 23.372C152.221 23.372 153.074 23.6387 153.768 24.172C154.461 24.6947 154.904 25.42 155.096 26.348H152.936C152.829 25.964 152.616 25.6653 152.296 25.452C151.986 25.228 151.618 25.116 151.192 25.116C150.626 25.116 150.146 25.3293 149.752 25.756C149.357 26.1827 149.16 26.7747 149.16 27.532C149.16 28.2893 149.357 28.8813 149.752 29.308C150.146 29.7347 150.626 29.948 151.192 29.948C151.618 29.948 151.986 29.8413 152.296 29.628C152.616 29.4147 152.829 29.1107 152.936 28.716H155.096C154.904 29.612 154.461 30.332 153.768 30.876C153.074 31.42 152.221 31.692 151.208 31.692ZM159.94 31.5C159.108 31.5 158.441 31.2973 157.94 30.892C157.439 30.4867 157.188 29.7667 157.188 28.732V25.276H155.828V23.564H157.188L157.428 21.436H159.236V23.564H161.38V25.276H159.236V28.748C159.236 29.132 159.316 29.3987 159.476 29.548C159.647 29.6867 159.935 29.756 160.34 29.756H161.332V31.5H159.94Z" fill="white"/>
<defs>
<linearGradient id="paint0_linear_1337_1703" x1="-48.6114" y1="-13" x2="161.097" y2="145.908" gradientUnits="userSpaceOnUse">
<stop offset="0.106022" stop-color="#03218E"/>
<stop offset="0.871847" stop-color="#0E73E4"/>
</linearGradient>
</defs>
</svg>
