<svg width="48" height="48" viewBox="0 0 48 48" fill="none" xmlns="http://www.w3.org/2000/svg">
<g clip-path="url(#clip0_976_3615)">
<path d="M48 35.8192C48 36.0822 47.9918 36.6493 47.9753 37.0932C47.9342 38.1699 47.8521 39.5589 47.7205 40.1918C47.5233 41.1452 47.2356 42.0411 46.8493 42.789C46.3973 43.6767 45.8219 44.4658 45.1315 45.1479C44.4493 45.8301 43.6603 46.4055 42.7726 46.8575C42.0247 47.2438 41.1205 47.5315 40.1589 47.7288C39.5342 47.8521 38.1534 47.9425 37.0849 47.9753C36.6411 47.9918 36.074 48 35.811 48H12.1726C11.9096 48 11.3425 47.9918 10.8986 47.9753C9.82192 47.9342 8.43288 47.8521 7.8 47.7205C6.84658 47.5233 5.95069 47.2356 5.20274 46.8493C4.31507 46.3973 3.52603 45.8219 2.84384 45.1315C2.16164 44.4493 1.5863 43.6603 1.13425 42.7726C0.747945 42.0247 0.460274 41.1205 0.263014 40.1589C0.139726 39.5342 0.0493151 38.1534 0.0164384 37.0849C0.00821918 36.6493 0 36.0822 0 35.8192V12.1808C0 11.9178 0.00821918 11.3507 0.0246575 10.9068C0.0657534 9.83014 0.147945 8.4411 0.279452 7.80822C0.476712 6.85479 0.764384 5.9589 1.15068 5.21096C1.60274 4.32329 2.17808 3.53425 2.86027 2.85205C3.54247 2.16986 4.33151 1.59452 5.21918 1.14247C5.96712 0.756164 6.87123 0.468493 7.83288 0.271233C8.45753 0.147945 9.83836 0.0575342 10.9068 0.0246575C11.3507 0.00821918 11.9178 0 12.1808 0H35.8192C36.0822 0 36.6493 0.00821918 37.0932 0.0246575C38.1699 0.0657534 39.5589 0.147945 40.1918 0.279452C41.1452 0.476712 42.0411 0.764384 42.789 1.15068C43.6767 1.60274 44.4658 2.17808 45.1479 2.86849C45.8301 3.55068 46.4055 4.33973 46.8575 5.2274C47.2438 5.97534 47.5315 6.87945 47.7288 7.8411C47.8521 8.46575 47.9425 9.84658 47.9753 10.9151C47.9918 11.3589 48 11.926 48 12.189V35.8192Z" fill="url(#paint0_linear_976_3615)"/>
<path fill-rule="evenodd" clip-rule="evenodd" d="M36.6246 11.4904C33.3945 8.26025 29.0959 6.47668 24.5178 6.47668C15.0822 6.47668 7.41369 14.1534 7.40547 23.5808C7.40547 26.5972 8.19451 29.5397 9.6904 32.1287L7.26575 40.9972L16.3397 38.6219C18.8383 39.9863 21.6493 40.7013 24.5178 40.7013H24.526C33.9534 40.7013 41.6301 33.0246 41.6383 23.5972C41.6383 19.0191 39.8548 14.7205 36.6246 11.4904ZM24.526 37.8082C21.9699 37.8082 19.463 37.1178 17.2849 35.8274L16.7671 35.5233L11.3836 36.937L12.8219 31.6931L12.4849 31.1589C11.063 28.8986 10.3068 26.2767 10.3068 23.589C10.3068 15.7479 16.6931 9.36983 24.5342 9.36983C28.3315 9.36983 31.9068 10.8493 34.5863 13.537C37.274 16.2246 38.7534 19.8 38.7452 23.5972C38.737 31.4301 32.3589 37.8082 24.526 37.8082ZM32.326 27.1644C31.8986 26.9507 29.7945 25.915 29.4082 25.7753C29.0137 25.6356 28.7342 25.5616 28.4466 25.989C28.1589 26.4164 27.3452 27.378 27.0904 27.6657C26.8438 27.9534 26.589 27.9863 26.1616 27.7726C25.7342 27.5589 24.3534 27.1068 22.726 25.652C21.452 24.5178 20.5973 23.1205 20.3507 22.6931C20.1041 22.2657 20.326 22.0356 20.5397 21.8219C20.7288 21.6328 20.9671 21.3205 21.1808 21.0739C21.3945 20.8274 21.4685 20.6465 21.6082 20.3589C21.7479 20.0712 21.6822 19.8246 21.5753 19.6109C21.4685 19.3972 20.6137 17.2931 20.2603 16.4383C19.9151 15.6082 19.5616 15.715 19.2986 15.7068C19.052 15.6904 18.7644 15.6904 18.4767 15.6904C18.189 15.6904 17.7288 15.7972 17.3342 16.2246C16.9397 16.652 15.8383 17.6876 15.8383 19.7918C15.8383 21.8959 17.3671 23.926 17.5808 24.2137C17.7945 24.5013 20.5973 28.8164 24.8877 30.6657C25.9068 31.1096 26.7041 31.3726 27.3288 31.5698C28.3562 31.8986 29.2849 31.8493 30.0246 31.7424C30.8466 31.6191 32.5562 30.7068 32.9096 29.7123C33.263 28.7178 33.263 27.8548 33.1562 27.6822C33.0329 27.4849 32.7534 27.378 32.326 27.1644Z" fill="white"/>
</g>
<defs>
<linearGradient id="paint0_linear_976_3615" x1="24.0018" y1="48.0037" x2="24.0018" y2="0" gradientUnits="userSpaceOnUse">
<stop stop-color="#25CF43"/>
<stop offset="1" stop-color="#61FD7D"/>
</linearGradient>
<clipPath id="clip0_976_3615">
<rect width="48" height="48" fill="white"/>
</clipPath>
</defs>
</svg>
