<svg width="111" height="40" viewBox="0 0 111 40" fill="none" xmlns="http://www.w3.org/2000/svg">
<g clip-path="url(#clip0_1312_1823)">
<path d="M0.789551 40H110.146V0H0.789551V40Z" fill="#E32124"/>
<path d="M96.0593 16C96.1405 16 96.2216 16 96.268 15.9189C96.2796 15.8841 96.2912 15.8493 96.2912 15.8145C96.2915 15.7817 96.2831 15.7493 96.2668 15.7208C96.2505 15.6923 96.2269 15.6686 96.1985 15.6522C96.1405 15.629 96.0825 15.629 95.955 15.629H95.897V15.9884H96.0593V16ZM95.955 15.4319C96.1289 15.4319 96.2101 15.4319 96.2796 15.4667C96.5115 15.5362 96.5347 15.7449 96.5347 15.8145C96.5347 15.8261 96.5347 15.8725 96.5231 15.9189C96.5115 15.9652 96.4883 16.058 96.3608 16.1391C96.3376 16.1507 96.3376 16.1507 96.3028 16.1623L96.5927 16.6957H96.3144L96.0593 16.2087H95.897V16.6957H95.6419V15.4319H95.955ZM96.0593 17.2174C96.3576 17.2174 96.6437 17.0989 96.8546 16.888C97.0655 16.6771 97.184 16.391 97.184 16.0928C97.184 15.7945 97.0655 15.5084 96.8546 15.2975C96.6437 15.0866 96.3576 14.9681 96.0593 14.9681C95.4448 14.9681 94.9463 15.4667 94.9463 16.0928C94.9463 16.7073 95.4448 17.2174 96.0593 17.2174ZM95.1782 16.0928C95.1782 15.6058 95.5724 15.2 96.0593 15.2C96.5579 15.2 96.9521 15.6058 96.9521 16.0928C96.9521 16.5681 96.5463 16.9739 96.0593 16.9739C95.584 16.9739 95.1782 16.5681 95.1782 16.0928ZM87.3637 23.2464C85.8796 23.2464 84.639 22.2493 84.2564 20.8928H92.4651L93.6014 19.1304H84.2448C84.4347 18.4517 84.8408 17.8534 85.4016 17.4265C85.9625 16.9997 86.6473 16.7675 87.3521 16.7652H93.0101L94.1347 15.0029H87.2245C84.4535 15.0029 82.2159 17.2406 82.2159 20C82.2159 22.7594 84.4535 24.9971 87.2245 24.9971H93.1608L94.2854 23.2348H87.3521L87.3637 23.2464ZM63.839 25.0087C62.5137 25.0087 61.2427 24.4822 60.3056 23.5451C59.3684 22.608 58.8419 21.3369 58.8419 20.0116C58.8419 18.6863 59.3684 17.4153 60.3056 16.4781C61.2427 15.541 62.5137 15.0145 63.839 15.0145H70.7492L69.613 16.7768H63.955C63.1121 16.7994 62.3112 17.1501 61.723 17.7543C61.1348 18.3585 60.8057 19.1684 60.8057 20.0116C60.8057 20.8548 61.1348 21.6648 61.723 22.2689C62.3112 22.8731 63.1121 23.2238 63.955 23.2464H70.8883L69.7521 25.0087H63.8159H63.839ZM27.3173 23.2464C29.1028 23.2464 30.5637 21.7971 30.5637 20.0116C30.5637 18.2261 29.1144 16.7768 27.3173 16.7768H21.7637C20.9207 16.7994 20.1199 17.1501 19.5317 17.7543C18.9435 18.3585 18.6143 19.1684 18.6143 20.0116C18.6143 20.8548 18.9435 21.6648 19.5317 22.2689C20.1199 22.8731 20.9207 23.2238 21.7637 23.2464H27.3173ZM21.6361 25.0087C18.8651 25.0087 16.6274 22.771 16.6274 20.0116C16.6274 17.2522 18.8651 15.0145 21.6361 15.0145H27.4448C28.7701 15.0145 30.0412 15.541 30.9783 16.4781C31.9155 17.4153 32.4419 18.6863 32.4419 20.0116C32.4419 21.3369 31.9155 22.608 30.9783 23.5451C30.0412 24.4822 28.7701 25.0087 27.4448 25.0087H21.6361ZM41.8796 21.7739C43.7579 21.7739 45.2651 20.2551 45.2651 18.3884C45.2651 16.5218 43.7579 15.0029 41.8796 15.0029H33.4622V25.0087H35.3869V16.7652H41.7521C42.6332 16.7652 43.3637 17.4957 43.3637 18.3884C43.3637 19.2812 42.6332 20 41.7521 20H36.326L42.0535 25.0087H44.8477L40.9869 21.7739H41.8564H41.8796ZM73.6941 23.2464V15.0145H71.7811V24.058C71.7811 24.3131 71.8738 24.5449 72.0593 24.7304C72.2448 24.9044 72.4999 25.0203 72.7666 25.0203H81.5434L82.6796 23.258H73.7057L73.6941 23.2464ZM50.1579 21.4841H55.2941L52.5811 17.1131L47.5956 25.0203H45.3347L51.3869 15.5362C51.6535 15.1536 52.0941 14.9218 52.5811 14.9218C53.0448 14.9218 53.4854 15.142 53.7521 15.5131L59.8274 25.0203H57.555L56.4883 23.258H51.2941L50.1579 21.4957V21.4841Z" fill="#FEFEFE"/>
</g>
<defs>
<clipPath id="clip0_1312_1823">
<rect width="109.409" height="40" fill="white" transform="translate(0.763184)"/>
</clipPath>
</defs>
</svg>
