<svg width="257" height="40" viewBox="0 0 257 40" fill="none" xmlns="http://www.w3.org/2000/svg">
<path d="M110.284 37.0643L99.0918 5.68811C98.9083 5.32114 98.7248 4.77068 98.7248 4.22022C98.7248 2.93581 99.8257 1.46792 101.661 1.46792C102.945 1.46792 104.046 2.38536 104.596 3.85325L113.771 30.8257L123.128 3.66976C123.495 2.38536 124.413 1.28444 125.881 1.28444H126.248C127.716 1.28444 128.817 2.20187 129.184 3.66976L138.358 30.8257L147.716 3.66976C148.083 2.56884 148.817 1.46792 150.468 1.46792C152.119 1.46792 153.22 2.56884 153.22 4.03673C153.22 4.58719 153.037 5.13765 152.853 5.50462L141.477 36.8808C140.927 38.5321 139.826 39.4496 138.358 39.4496H138.174C136.89 39.4496 135.606 38.7156 135.055 36.8808L125.881 10.2753L116.706 36.8808C116.156 38.5321 115.239 39.4496 113.587 39.4496H113.404C111.936 39.6331 110.835 38.5321 110.284 37.0643ZM192.119 4.4037C192.119 2.93581 193.22 1.46792 194.872 1.46792C196.339 1.46792 197.807 2.56884 197.807 4.4037V10.8257C200.56 4.58719 206.615 1.8349 210.468 1.8349C212.119 1.8349 213.22 2.93581 213.22 4.77068C213.22 6.23857 212.303 7.33948 210.651 7.70646C203.495 8.4404 197.624 13.945 197.624 24.5872V37.0643C197.624 38.5321 196.523 40 194.872 40C193.404 40 191.936 38.8991 191.936 37.0643V4.4037M231.018 39.8165C221.11 39.8165 213.037 32.1101 213.037 20.734V20.5505C213.037 9.90829 220.376 1.46792 230.468 1.46792C241.294 1.46792 247.349 10.2753 247.349 20.1835C247.349 21.6514 246.248 22.7523 244.78 22.7523H218.358C219.092 30.6422 224.78 35.2294 231.202 35.2294C235.605 35.2294 239.092 33.578 241.661 31.0092C242.028 30.6422 242.578 30.4587 243.128 30.4587C244.413 30.4587 245.514 31.5597 245.514 32.8441C245.514 33.3945 245.33 34.1285 244.78 34.4954C241.294 37.6147 237.257 39.8165 231.018 39.8165ZM241.844 18.5321C241.294 11.7432 237.44 6.05508 230.284 6.05508C223.862 6.05508 219.092 11.3762 218.541 18.5321H241.844ZM153.037 28.4404C153.037 20.5505 159.459 16.3303 168.817 16.3303C173.587 16.3303 176.89 16.8808 180.193 17.7982V16.5138C180.193 9.7248 176.156 6.60554 169.183 6.60554C165.514 6.60554 163.312 6.97251 160.56 8.25691C160.193 8.4404 159.826 8.4404 159.642 8.4404C158.358 8.4404 157.073 7.33948 157.073 6.05508C157.073 4.77068 157.624 4.22022 158.541 3.66976C162.211 2.20187 164.963 1.46792 169.734 1.46792C174.872 1.46792 178.908 2.75233 181.661 5.50462C184.229 8.07343 185.514 11.7432 185.514 16.3303V36.6973C185.514 38.1652 184.413 39.4496 182.761 39.4496C181.294 39.4496 180.009 38.3487 180.009 36.8808V33.211C177.44 36.6973 173.037 39.6331 166.615 39.6331C160.009 39.8165 153.037 35.9633 153.037 28.4404ZM180.193 25.5046V21.8349C177.44 21.1009 173.771 20.367 169.183 20.367C162.211 20.367 158.358 23.4863 158.358 28.0734V28.2569C158.358 32.8441 162.578 35.5964 167.532 35.5964C174.688 35.5964 180.193 31.3762 180.193 25.5046ZM10.1009 3.85325C9.00002 1.10095 5.88076 3.51667e-05 3.12846 1.10095C0.376169 2.20187 -0.724748 5.50462 0.743141 8.07343L12.4863 33.578C14.3211 37.6147 16.3395 39.8165 20.0092 39.8165C23.8624 39.8165 25.5138 37.4312 27.5321 33.578C27.5321 33.578 37.8074 11.1927 37.9908 11.0092C38.1743 10.8257 38.3578 10.0918 39.4587 10.0918C40.3762 10.0918 40.9266 10.8257 40.9266 11.7432V33.3945C40.9266 36.6973 42.7615 39.6331 46.2477 39.6331C49.9174 39.6331 51.7523 36.8808 51.7523 33.3945V15.7799C51.7523 12.2936 54.3211 10.0918 57.4404 10.0918C60.7431 10.0918 62.945 12.4771 62.945 15.7799V33.578C62.945 36.8808 64.7798 39.8165 68.2661 39.8165C71.9358 39.8165 73.7707 37.0643 73.7707 33.578V15.7799C73.7707 12.2936 76.3395 10.0918 79.4587 10.0918C82.7615 10.0918 84.9633 12.4771 84.9633 15.7799V33.578C84.9633 36.8808 86.7982 39.8165 90.2844 39.8165C93.9541 39.8165 95.789 37.0643 95.789 33.578V13.3945C95.789 5.87159 89.9174 0.73398 82.578 0.73398C75.2385 0.73398 70.8349 5.68811 70.8349 5.68811C68.2661 2.56884 65.1468 0.73398 59.4587 0.73398C53.5872 0.73398 48.2661 5.68811 48.2661 5.68811C45.8808 2.56884 41.6606 0.73398 38.5413 0.73398C33.4037 0.73398 29.1835 3.1193 26.6147 8.80737L19.0918 26.422L10.1009 3.85325ZM247.532 6.05508C247.532 3.48627 249.734 1.46792 252.119 1.46792C254.688 1.46792 256.706 3.66976 256.706 6.05508C256.706 8.62389 254.505 10.6422 252.119 10.6422C249.55 10.6422 247.532 8.62389 247.532 6.05508ZM255.789 6.05508C255.789 3.85325 254.321 2.38536 252.119 2.38536C249.917 2.38536 248.45 4.03673 248.45 6.05508C248.45 8.25691 249.917 9.7248 252.119 9.7248C254.321 9.7248 255.789 8.07343 255.789 6.05508Z" fill="#717074"/>
</svg>
