<svg width="188" height="40" viewBox="0 0 188 40" fill="none" xmlns="http://www.w3.org/2000/svg">
<g clip-path="url(#clip0_1312_1811)">
<path d="M187.908 18.0962V14.8028H183.818V9.6829L183.68 9.72529L179.839 10.9006L179.763 10.9236V14.803H173.7V12.6418C173.7 11.6355 173.925 10.8655 174.369 10.3519C174.809 9.84448 175.439 9.58652 176.242 9.58652C176.82 9.58652 177.418 9.72257 178.02 9.99085L178.171 10.0582V6.58989L178.1 6.56381C177.538 6.362 176.775 6.26038 175.828 6.26038C174.635 6.26038 173.551 6.51997 172.606 7.03444C171.66 7.54964 170.916 8.28512 170.395 9.22023C169.876 10.1543 169.612 11.233 169.612 12.4268V14.8028H166.764V18.0962H169.612V31.9705H173.7V18.0962H179.763V26.9131C179.763 30.5443 181.476 32.3844 184.854 32.3844C185.409 32.3844 185.993 32.3194 186.59 32.192C187.197 32.0612 187.611 31.9306 187.854 31.7911L187.908 31.7593V28.4355L187.742 28.5454C187.52 28.6932 187.243 28.8141 186.919 28.9039C186.594 28.9954 186.322 29.0412 186.112 29.0412C185.321 29.0412 184.735 28.828 184.372 28.4072C184.005 27.9826 183.818 27.24 183.818 26.2013V18.0962H187.908ZM157.635 29.0418C156.151 29.0418 154.981 28.5498 154.157 27.5806C153.327 26.6065 152.907 25.2178 152.907 23.4534C152.907 21.633 153.327 20.2082 154.157 19.217C154.982 18.2322 156.141 17.7324 157.602 17.7324C159.019 17.7324 160.148 18.2098 160.956 19.1519C161.768 20.099 162.181 21.5124 162.181 23.3539C162.181 25.2182 161.793 26.6502 161.028 27.6081C160.269 28.5588 159.128 29.0418 157.635 29.0418ZM157.817 14.3892C154.986 14.3892 152.737 15.2187 151.134 16.8547C149.532 18.4909 148.72 20.7551 148.72 23.5851C148.72 26.273 149.513 28.4351 151.077 30.0102C152.641 31.5859 154.769 32.3841 157.403 32.3841C160.147 32.3841 162.351 31.543 163.953 29.8843C165.555 28.2275 166.367 25.9846 166.367 23.2208C166.367 20.4908 165.605 18.3127 164.102 16.748C162.599 15.1827 160.483 14.3892 157.817 14.3892ZM142.129 14.3892C140.203 14.3892 138.61 14.8818 137.393 15.853C136.169 16.8299 135.548 18.1112 135.548 19.6617C135.548 20.4676 135.682 21.1836 135.946 21.7908C136.211 22.4 136.622 22.9364 137.167 23.3866C137.709 23.8331 138.545 24.3008 139.652 24.7767C140.583 25.1599 141.278 25.4839 141.719 25.7394C142.15 25.9897 142.456 26.2413 142.629 26.4864C142.797 26.7263 142.882 27.0545 142.882 27.4596C142.882 28.613 142.018 29.1742 140.241 29.1742C139.582 29.1742 138.83 29.0365 138.006 28.7652C137.188 28.4979 136.416 28.1065 135.717 27.6047L135.548 27.483V31.4189L135.61 31.4479C136.188 31.7149 136.918 31.94 137.777 32.1172C138.635 32.2946 139.415 32.3848 140.092 32.3848C142.181 32.3848 143.864 31.8899 145.092 30.9129C146.328 29.9293 146.954 28.6177 146.954 27.0136C146.954 25.8564 146.617 24.864 145.952 24.0637C145.292 23.2699 144.147 22.5411 142.549 21.8969C141.277 21.3861 140.461 20.962 140.125 20.6365C139.801 20.322 139.636 19.8773 139.636 19.3141C139.636 18.8148 139.839 18.4148 140.256 18.0909C140.677 17.7654 141.262 17.5998 141.996 17.5998C142.677 17.5998 143.374 17.7074 144.067 17.9183C144.76 18.1291 145.368 18.4116 145.876 18.757L146.043 18.8711V15.1376L145.979 15.11C145.51 14.9092 144.893 14.7372 144.142 14.5978C143.395 14.4592 142.718 14.3892 142.129 14.3892ZM124.891 29.0418C123.407 29.0418 122.237 28.5498 121.413 27.5806C120.583 26.6065 120.163 25.2182 120.163 23.4534C120.163 21.633 120.584 20.2082 121.414 19.217C122.238 18.2322 123.396 17.7324 124.858 17.7324C126.275 17.7324 127.403 18.2098 128.212 19.1519C129.024 20.099 129.436 21.5124 129.436 23.3539C129.436 25.2182 129.048 26.6502 128.284 27.6081C127.525 28.5588 126.384 29.0418 124.891 29.0418ZM125.073 14.3892C122.241 14.3892 119.993 15.2187 118.39 16.8547C116.788 18.4909 115.975 20.7551 115.975 23.5851C115.975 26.2741 116.769 28.4351 118.333 30.0102C119.897 31.5859 122.025 32.3841 124.659 32.3841C127.402 32.3841 129.607 31.543 131.209 29.8843C132.811 28.2275 133.623 25.9846 133.623 23.2208C133.623 20.4908 132.861 18.3127 131.358 16.748C129.854 15.1827 127.739 14.3892 125.073 14.3892ZM109.77 17.7759V14.8028H105.732V31.9701H109.77V23.1884C109.77 21.6951 110.108 20.4684 110.776 19.5418C111.436 18.6262 112.315 18.1623 113.388 18.1623C113.752 18.1623 114.16 18.2223 114.602 18.3409C115.04 18.4588 115.357 18.5869 115.544 18.7217L115.714 18.8447V14.7735L115.648 14.7454C115.272 14.5856 114.74 14.505 114.067 14.505C113.052 14.505 112.144 14.8311 111.366 15.4731C110.684 16.0374 110.19 16.8111 109.813 17.7759H109.77ZM98.4997 14.3892C96.6471 14.3892 94.9946 14.7865 93.589 15.5696C92.1806 16.3546 91.0913 17.4752 90.3502 18.9001C89.6124 20.3216 89.2377 21.9821 89.2377 23.8338C89.2377 25.4559 89.601 26.9444 90.3189 28.2563C91.0371 29.5704 92.0538 30.5984 93.3407 31.3114C94.6258 32.0236 96.111 32.3846 97.7555 32.3846C99.6747 32.3846 101.313 32.0009 102.627 31.2442L102.68 31.2138V27.5141L102.51 27.638C101.915 28.0715 101.25 28.4175 100.535 28.6668C99.8209 28.9159 99.1702 29.0418 98.5995 29.0418C97.015 29.0418 95.7429 28.546 94.8196 27.5685C93.8943 26.5897 93.4251 25.2153 93.4251 23.4858C93.4251 21.7455 93.9144 20.3358 94.8786 19.2956C95.84 18.2585 97.1144 17.7324 98.6662 17.7324C99.9935 17.7324 101.287 18.1819 102.511 19.0695L102.68 19.1925V15.2943L102.625 15.2635C102.165 15.0057 101.537 14.7929 100.757 14.6314C99.9806 14.4704 99.2212 14.3892 98.4997 14.3892ZM86.4565 14.803H82.4182V31.9701H86.4565V14.803ZM84.4787 7.48968C83.814 7.48968 83.2343 7.71594 82.7581 8.16429C82.2798 8.61391 82.0373 9.18001 82.0373 9.84811C82.0373 10.5057 82.2769 11.0615 82.7507 11.4991C83.2213 11.9355 83.8028 12.1567 84.4789 12.1567C85.1547 12.1567 85.7384 11.9355 86.2147 11.4999C86.694 11.0615 86.9371 10.5059 86.9371 9.84811C86.9371 9.20338 86.7005 8.64308 86.2344 8.18241C85.7687 7.72264 85.1777 7.48968 84.4787 7.48968ZM74.403 13.5364V31.9701H78.5242V8.0152H72.8202L65.5701 25.8082L58.5343 8.0152H52.5981V31.9699H56.471V13.5346H56.604L64.0336 31.9701H66.9563L74.27 13.5364H74.403Z" fill="#706D6E"/>
<path d="M19.6387 19.0074H0.641602V0.0102539H19.6387V19.0074Z" fill="#F1511B"/>
<path d="M40.6135 19.0074H21.6167V0.0102539H40.6135V19.0074Z" fill="#80CC28"/>
<path d="M19.6382 39.9897H0.641602V20.9928H19.6382V39.9897Z" fill="#00ADEF"/>
<path d="M40.6135 39.9897H21.6167V20.9928H40.6135V39.9897Z" fill="#FBBC09"/>
</g>
<defs>
<clipPath id="clip0_1312_1811">
<rect width="187.266" height="40" fill="white" transform="translate(0.641602)"/>
</clipPath>
</defs>
</svg>
