<svg width="170" height="40" viewBox="0 0 170 40" fill="none" xmlns="http://www.w3.org/2000/svg">
<g clip-path="url(#clip0_1312_1834)">
<path d="M34.201 22.9094C37.5128 22.9094 42.3046 22.2264 42.3046 18.2871C42.3145 17.9831 42.2869 17.679 42.2225 17.3817L40.2502 8.81487C39.7949 6.92995 39.3951 6.07485 36.0859 4.42025C33.518 3.10716 27.9241 0.938965 26.2695 0.938965C24.7287 0.938965 24.2813 2.92449 22.444 2.92449C20.6756 2.92449 19.3625 1.44196 17.7079 1.44196C16.1195 1.44196 15.0844 2.52474 14.2849 4.75117C14.2849 4.75117 12.0584 11.0307 11.7725 11.9414C11.7271 12.1086 11.7074 12.2818 11.7143 12.455C11.7143 14.8959 21.3242 22.8989 34.201 22.8989M42.8129 19.8862C43.2709 22.0543 43.2709 22.282 43.2709 22.5679C43.2709 26.2742 39.1039 28.3312 33.6265 28.3312C21.2474 28.3392 10.4038 21.0854 10.4038 16.291C10.4031 15.6237 10.5392 14.9633 10.8036 14.3505C6.35071 14.5729 0.587402 15.3671 0.587402 20.4553C0.587402 28.7892 20.3341 39.061 35.9694 39.061C47.9567 39.061 50.98 33.6392 50.98 29.3584C50.98 25.991 48.0679 22.1682 42.8182 19.8862" fill="#EE0000"/>
<path d="M42.8128 19.8862C43.2708 22.0543 43.2708 22.282 43.2708 22.5679C43.2708 26.2742 39.1039 28.3312 33.6265 28.3312C21.2474 28.3392 10.4038 21.0854 10.4038 16.291C10.4031 15.6237 10.5391 14.9633 10.8036 14.3505L11.7725 11.952C11.7281 12.1158 11.7085 12.2854 11.7143 12.455C11.7143 14.8959 21.3242 22.8989 34.201 22.8989C37.5128 22.8989 42.3045 22.2158 42.3045 18.2766C42.3144 17.9725 42.2869 17.6685 42.2225 17.3712L42.8128 19.8862ZM153.933 25.3741C153.933 28.5219 155.826 30.052 159.278 30.052C160.341 30.0256 161.397 29.8763 162.426 29.6073V25.9566C161.769 26.1649 161.083 26.2685 160.393 26.2637C158.971 26.2637 158.444 25.8189 158.444 24.482V18.8881H162.564V15.1288H158.444V10.3636L153.944 11.3378V15.1288H150.955V18.8881H153.933V25.3741ZM139.902 25.4589C139.902 24.4846 140.879 24.0108 142.354 24.0108C143.255 24.016 144.153 24.128 145.028 24.3443V26.2372C144.165 26.7082 143.196 26.948 142.213 26.9334C140.768 26.9334 139.902 26.3775 139.902 25.4589ZM141.279 30.1076C142.867 30.1076 144.149 29.7741 145.345 28.9666V29.8588H149.798V20.4183C149.798 16.8285 147.378 14.8588 143.341 14.8588C141.086 14.8588 138.857 15.3883 136.458 16.4737L138.073 19.7882C139.799 19.0628 141.25 18.6181 142.528 18.6181C144.382 18.6181 145.34 19.3408 145.34 20.818V21.5408C144.249 21.2583 143.126 21.1177 141.999 21.1225C138.211 21.1225 135.929 22.7109 135.929 25.5515C135.929 28.1406 137.988 30.1156 141.274 30.1156L141.279 30.1076ZM116.801 29.8667H121.59V22.2291H129.609V29.8588H134.412V10.3689H129.628V17.8583H121.609V10.3689H116.82L116.801 29.8667ZM98.5716 22.4806C98.5716 20.3627 100.242 18.7478 102.442 18.7478C103.587 18.7246 104.698 19.1329 105.555 19.8915V25.0406C105.14 25.433 104.651 25.7394 104.117 25.9421C103.582 26.1447 103.013 26.2396 102.442 26.2213C100.271 26.2213 98.5716 24.6064 98.5716 22.4912V22.4806ZM105.616 29.8694H110.072V9.39465L105.571 10.3689V15.9098C104.426 15.2603 103.129 14.9243 101.812 14.9356C97.5259 14.9356 94.1558 18.2474 94.1558 22.4806C94.1435 23.4738 94.3292 24.4596 94.702 25.3803C95.0748 26.301 95.6273 27.1382 96.3272 27.8431C97.0271 28.5479 97.8605 29.1063 98.7785 29.4855C99.6966 29.8648 100.681 30.0574 101.674 30.052C103.095 30.0588 104.48 29.6107 105.627 28.7734L105.616 29.8694ZM85.1707 18.5439C86.5897 18.5439 87.7863 19.4626 88.2601 20.8816H82.1183C82.563 19.4176 83.6776 18.5439 85.1707 18.5439ZM77.5807 22.515C77.5807 26.8037 81.0884 30.1447 85.5969 30.1447C88.0748 30.1447 89.8856 29.4749 91.752 27.9156L88.7711 25.2682C88.0748 25.9936 87.045 26.3828 85.8219 26.3828C85.0528 26.4045 84.2952 26.1927 83.6487 25.7755C83.0023 25.3582 82.4973 24.755 82.2003 24.0452H92.6971V22.9253C92.6971 18.2474 89.5521 14.88 85.2633 14.88C84.2552 14.8648 83.2541 15.0513 82.3191 15.4286C81.3841 15.8059 80.5339 16.3663 79.8186 17.0769C79.1033 17.7875 78.5373 18.634 78.1539 19.5665C77.7705 20.499 77.5774 21.4988 77.586 22.507L77.5807 22.515ZM69.816 14.4617C71.4044 14.4617 72.2939 15.4624 72.2939 16.6617C72.2939 17.8609 71.4044 18.8616 69.816 18.8616H65.0798V14.4617H69.816ZM60.2854 29.8588H65.0745V22.7585H68.7199L72.3971 29.8588H77.758L73.4693 22.0623C74.5592 21.619 75.4916 20.8598 76.1464 19.8822C76.8013 18.9047 77.1487 17.7536 77.1439 16.577C77.1439 13.0692 74.388 10.3689 70.2607 10.3689H60.2854V29.8588Z" fill="black"/>
</g>
<defs>
<clipPath id="clip0_1312_1834">
<rect width="169.205" height="40" fill="white" transform="translate(0.587402)"/>
</clipPath>
</defs>
</svg>
