<svg width="360" height="975" viewBox="0 0 360 975" fill="none" xmlns="http://www.w3.org/2000/svg">
<rect width="161.746" height="360" transform="matrix(0 1 1 0 0 323.492)" fill="url(#paint0_linear_1116_2174)"/>
<rect width="161.746" height="360" transform="matrix(0 1 1 0 0 485.238)" fill="url(#paint1_linear_1116_2174)"/>
<rect width="180" height="328.016" transform="matrix(-1 0 0 1 180.272 646.984)" fill="url(#paint2_linear_1116_2174)"/>
<path d="M0 323.492C-5.63757e-07 281.01 9.31167 238.945 27.4034 199.697C45.4951 160.449 72.0125 124.788 105.442 94.7486C138.871 64.7096 178.557 40.8813 222.234 24.6243C265.911 8.36735 312.724 -6.41453e-06 360 0L360 323.492H0Z" fill="url(#paint3_linear_1116_2174)"/>
<path fill-rule="evenodd" clip-rule="evenodd" d="M27.4034 199.697C9.31167 238.945 0 281.01 0 323.492L0 0L360 0C312.724 -6.41452e-06 265.911 8.36735 222.234 24.6243C178.557 40.8813 138.871 64.7096 105.442 94.7486C72.0125 124.788 45.4951 160.449 27.4034 199.697Z" fill="url(#paint4_linear_1116_2174)"/>
<defs>
<linearGradient id="paint0_linear_1116_2174" x1="-25.4121" y1="-55.102" x2="195.549" y2="341.185" gradientUnits="userSpaceOnUse">
<stop stop-color="#03218E" stop-opacity="0.4"/>
<stop offset="0.963095" stop-color="#03218E" stop-opacity="0"/>
</linearGradient>
<linearGradient id="paint1_linear_1116_2174" x1="0.0595982" y1="-6.63645e-07" x2="190.765" y2="343.812" gradientUnits="userSpaceOnUse">
<stop stop-color="#0E73E4" stop-opacity="0.4"/>
<stop offset="0.794874" stop-color="#0E73E4" stop-opacity="0"/>
</linearGradient>
<linearGradient id="paint2_linear_1116_2174" x1="179.592" y1="-0.165217" x2="36.7825" y2="251.409" gradientUnits="userSpaceOnUse">
<stop stop-color="#FFCD07" stop-opacity="0.4"/>
<stop offset="1" stop-color="#FFCD07" stop-opacity="0"/>
</linearGradient>
<linearGradient id="paint3_linear_1116_2174" x1="-4.02044e-05" y1="323.776" x2="370.512" y2="14.6986" gradientUnits="userSpaceOnUse">
<stop stop-color="#FFCD07" stop-opacity="0"/>
<stop offset="1" stop-color="#FFCD07" stop-opacity="0.4"/>
</linearGradient>
<linearGradient id="paint4_linear_1116_2174" x1="-30.6122" y1="298.08" x2="336.759" y2="-38.3088" gradientUnits="userSpaceOnUse">
<stop stop-color="#0E73E4" stop-opacity="0.4"/>
<stop offset="0.844451" stop-color="#0E73E4" stop-opacity="0"/>
</linearGradient>
</defs>
</svg>
