<svg width="1328" height="441" viewBox="0 0 1328 441" fill="none" xmlns="http://www.w3.org/2000/svg">
<rect x="440.613" width="220.306" height="440.667" fill="url(#paint0_linear_976_3681)"/>
<rect x="660.919" width="220.306" height="440.667" fill="url(#paint1_linear_976_3681)"/>
<rect x="881.225" y="220.667" width="220.333" height="446.775" transform="rotate(-90 881.225 220.667)" fill="url(#paint2_linear_976_3681)"/>
<path d="M440.613 0C382.75 -6.9008e-07 325.455 11.3982 271.997 33.5438C218.54 55.6893 169.967 88.1486 129.052 129.068C88.1377 169.988 55.6825 218.567 33.5396 272.031C11.3968 325.495 -8.73692e-06 382.798 0 440.667L440.613 440.667V0Z" fill="url(#paint3_linear_976_3681)"/>
<path fill-rule="evenodd" clip-rule="evenodd" d="M271.997 33.5438C325.455 11.3982 382.75 0 440.613 0H0V440.667C-8.73691e-06 382.798 11.3968 325.495 33.5396 272.031C55.6825 218.567 88.1377 169.988 129.052 129.068C169.967 88.1486 218.54 55.6893 271.997 33.5438Z" fill="url(#paint4_linear_976_3681)"/>
<defs>
<linearGradient id="paint0_linear_976_3681" x1="406" y1="-67.449" x2="660.692" y2="440.821" gradientUnits="userSpaceOnUse">
<stop stop-color="#03218E" stop-opacity="0.4"/>
<stop offset="0.963095" stop-color="#03218E" stop-opacity="0"/>
</linearGradient>
<linearGradient id="paint1_linear_976_3681" x1="661" y1="-8.12351e-07" x2="880.734" y2="440.799" gradientUnits="userSpaceOnUse">
<stop stop-color="#0E73E4" stop-opacity="0.4"/>
<stop offset="0.794874" stop-color="#0E73E4" stop-opacity="0"/>
</linearGradient>
<linearGradient id="paint2_linear_976_3681" x1="1101.06" y1="220.441" x2="896.492" y2="544.302" gradientUnits="userSpaceOnUse">
<stop stop-color="#FFCD07" stop-opacity="0.4"/>
<stop offset="1" stop-color="#FFCD07" stop-opacity="0"/>
</linearGradient>
<linearGradient id="paint3_linear_976_3681" x1="441" y1="-4.92131e-05" x2="71.8575" y2="492.396" gradientUnits="userSpaceOnUse">
<stop stop-color="#FFCD07" stop-opacity="0"/>
<stop offset="1" stop-color="#FFCD07" stop-opacity="0.4"/>
</linearGradient>
<linearGradient id="paint4_linear_976_3681" x1="406" y1="-37.4716" x2="0.365833" y2="455.457" gradientUnits="userSpaceOnUse">
<stop stop-color="#0E73E4" stop-opacity="0.4"/>
<stop offset="0.844451" stop-color="#0E73E4" stop-opacity="0"/>
</linearGradient>
</defs>
</svg>
